<svg class="iso-export-surface" viewBox="-214 -184 428 408" width="1600" height="1600" preserveAspectRatio="xMidYMid meet" aria-hidden="true" focusable="false" xmlns="http://www.w3.org/2000/svg"><g class="iso-art"><g class="iso-shape iso-vector" opacity="1" style="pointer-events: none;"><path class="iso-line" d="M36.94 -17.93 L201.06 76.82 Q204.00 78.52 201.06 80.22 L70.94 155.34 Q68.00 157.04 65.06 155.34 L-99.06 60.59 Q-102.00 58.89 -99.06 57.19 L31.06 -17.93 Q34.00 -19.63 36.94 -17.93 Z" fill="none" pointer-events="none" pathLength="1" opacity="1" stroke="#969696" stroke-width="2.8" stroke-linecap="round" stroke-linejoin="round" style="stroke-linecap: round; stroke-linejoin: round;"/></g><g class="iso-shape iso-vector" opacity="1" style="pointer-events: none;"><path class="iso-line" d="M36.94 -174.97 L201.06 -80.22 Q204.00 -78.52 201.06 -76.82 L70.94 -1.70 Q68.00 0.00 65.06 -1.70 L-99.06 -96.45 Q-102.00 -98.15 -99.06 -99.85 L31.06 -174.97 Q34.00 -176.67 36.94 -174.97 Z" fill="none" pointer-events="none" pathLength="1" opacity="1" stroke="#969696" stroke-width="2.8" stroke-linecap="round" stroke-linejoin="round" style="stroke-linecap: round; stroke-linejoin: round;"/></g><g class="iso-shape iso-vector" opacity="1" style="pointer-events: none;"><path class="iso-line" d="M-99.06 60.59 L65.06 155.34 Q68.00 157.04 65.06 158.74 L2.94 194.60 Q0.00 196.30 -2.94 194.60 L-167.06 99.85 Q-170.00 98.15 -167.06 96.45 L-104.94 60.59 Q-102.00 58.89 -99.06 60.59 Z" fill="none" pointer-events="none" pathLength="1" opacity="1" stroke="#969696" stroke-width="2.8" stroke-linecap="round" stroke-linejoin="round" style="stroke-linecap: round; stroke-linejoin: round;"/></g><g class="iso-shape iso-vector" opacity="1" style="pointer-events: none;"><path class="iso-line" d="M-99.06 -57.19 L65.06 37.56 Q68.00 39.26 65.06 40.96 L2.94 76.82 Q0.00 78.52 -2.94 76.82 L-167.06 -17.93 Q-170.00 -19.63 -167.06 -21.33 L-104.94 -57.19 Q-102.00 -58.89 -99.06 -57.19 Z" fill="none" pointer-events="none" pathLength="1" opacity="1" stroke="#969696" stroke-width="2.8" stroke-linecap="round" stroke-linejoin="round" style="stroke-linecap: round; stroke-linejoin: round;"/></g><g class="iso-shape iso-line-group" style="pointer-events: none;"/><g class="iso-linework" pointer-events="none"><g class="iso-line-joins" opacity="1"><path class="iso-line" d="M-102.00 58.89 L68.00 157.04 L68.00 39.26 L-102.00 -58.89 L-170.00 -19.63 L-170.00 98.15 L-102.00 58.89 Z" fill="none" stroke="#969696" stroke-width="2.8" pathLength="1" style="stroke-linecap: round; stroke-linejoin: round; stroke-miterlimit: 4;"/></g></g><g class="iso-shape iso-line-group" style="pointer-events: none;"/><g class="iso-shape iso-line-group" style="pointer-events: none;"/><g class="iso-shape iso-vector" opacity="1" style="pointer-events: none;"><path class="iso-line" d="M-167.06 99.85 L-2.94 194.60 Q0.00 196.30 0.00 192.90 L0.00 81.92 Q0.00 78.52 -2.94 76.82 L-167.06 -17.93 Q-170.00 -19.63 -170.00 -16.23 L-170.00 94.75 Q-170.00 98.15 -167.06 99.85 Z" fill="none" pointer-events="none" pathLength="1" opacity="1" stroke="#969696" stroke-width="2.8" stroke-linecap="round" stroke-linejoin="round" style="stroke-linecap: round; stroke-linejoin: round;"/></g><g class="iso-shape iso-line-group" style="pointer-events: none;"/><g class="iso-shape iso-line-group" style="pointer-events: none;"/><g class="iso-shape iso-line-group" style="pointer-events: none;"/><g class="iso-shape iso-vector" opacity="1" style="pointer-events: none;"><path class="iso-line" d="M65.06 158.74 L2.94 194.60 Q0.00 196.30 0.00 192.90 L0.00 81.92 Q0.00 78.52 2.94 76.82 L65.06 40.96 Q68.00 39.26 68.00 42.66 L68.00 153.64 Q68.00 157.04 65.06 158.74 Z" fill="none" pointer-events="none" pathLength="1" opacity="1" stroke="#969696" stroke-width="2.8" stroke-linecap="round" stroke-linejoin="round" style="stroke-linecap: round; stroke-linejoin: round;"/></g><g class="iso-shape iso-face-group" style="pointer-events: none;"><path class="iso-face" d="M-167.06 99.85 L-2.94 194.60 Q0.00 196.30 0.00 192.90 L0.00 81.92 Q0.00 78.52 -2.94 76.82 L-167.06 -17.93 Q-170.00 -19.63 -170.00 -16.23 L-170.00 94.75 Q-170.00 98.15 -167.06 99.85 Z" fill="#e6e6e6" pathLength="1" pointer-events="none" opacity="1" stroke="#969696" stroke-width="2.8" stroke-linecap="round" stroke-linejoin="round"/></g><g class="iso-shape iso-block" opacity="1" style="pointer-events: none;"><path class="iso-block-face iso-block-face-left" d="M-201.06 119.48 L-36.94 214.23 Q-34.00 215.93 -34.00 212.53 L-34.00 140.81 Q-34.00 137.41 -36.94 135.71 L-201.06 40.96 Q-204.00 39.26 -204.00 42.66 L-204.00 114.38 Q-204.00 117.78 -201.06 119.48 Z" fill="none" stroke="none" stroke-width="2.8" pathLength="1" pointer-events="none"/><path class="iso-block-face iso-block-face-right" d="M-2.94 198.00 L-31.06 214.23 Q-34.00 215.93 -34.00 212.53 L-34.00 140.81 Q-34.00 137.41 -31.06 135.71 L-2.94 119.48 Q0.00 117.78 0.00 121.18 L0.00 192.90 Q0.00 196.30 -2.94 198.00 Z" fill="none" stroke="none" stroke-width="2.8" pathLength="1" pointer-events="none"/><path class="iso-block-face iso-block-face-top" d="M-167.06 21.33 L-2.94 116.08 Q0.00 117.78 -2.94 119.48 L-31.06 135.71 Q-34.00 137.41 -36.94 135.71 L-201.06 40.96 Q-204.00 39.26 -201.06 37.56 L-172.94 21.33 Q-170.00 19.63 -167.06 21.33 Z" fill="none" stroke="none" stroke-width="2.8" pathLength="1" pointer-events="none"/><g class="iso-block-edges" pointer-events="none"><path d="M-167.06 99.85 L-2.94 194.60 Q0.00 196.30 -2.94 198.00 L-31.06 214.23 Q-34.00 215.93 -36.94 214.23 L-201.06 119.48 Q-204.00 117.78 -201.06 116.08 L-172.94 99.85 Q-170.00 98.15 -167.06 99.85 Z" fill="none" stroke="#969696" stroke-width="2.8" stroke-linecap="round" stroke-linejoin="round" pathLength="1"/><path d="M-167.06 21.33 L-2.94 116.08 Q0.00 117.78 -2.94 119.48 L-31.06 135.71 Q-34.00 137.41 -36.94 135.71 L-201.06 40.96 Q-204.00 39.26 -201.06 37.56 L-172.94 21.33 Q-170.00 19.63 -167.06 21.33 Z" fill="none" stroke="#969696" stroke-width="2.8" stroke-linecap="round" stroke-linejoin="round" pathLength="1"/><path d="M-167.06 99.85 L-2.94 194.60 Q0.00 196.30 0.00 192.90 L0.00 121.18 Q0.00 117.78 -2.94 116.08 L-167.06 21.33 Q-170.00 19.63 -170.00 23.03 L-170.00 94.75 Q-170.00 98.15 -167.06 99.85 Z" fill="none" stroke="#969696" stroke-width="2.8" stroke-linecap="round" stroke-linejoin="round" pathLength="1"/><path d="M-201.06 119.48 L-36.94 214.23 Q-34.00 215.93 -34.00 212.53 L-34.00 140.81 Q-34.00 137.41 -36.94 135.71 L-201.06 40.96 Q-204.00 39.26 -204.00 42.66 L-204.00 114.38 Q-204.00 117.78 -201.06 119.48 Z" fill="none" stroke="#969696" stroke-width="2.8" stroke-linecap="round" stroke-linejoin="round" pathLength="1"/><path d="M-172.94 99.85 L-201.06 116.08 Q-204.00 117.78 -204.00 114.38 L-204.00 42.66 Q-204.00 39.26 -201.06 37.56 L-172.94 21.33 Q-170.00 19.63 -170.00 23.03 L-170.00 94.75 Q-170.00 98.15 -172.94 99.85 Z" fill="none" stroke="#969696" stroke-width="2.8" stroke-linecap="round" stroke-linejoin="round" pathLength="1"/><path d="M-2.94 198.00 L-31.06 214.23 Q-34.00 215.93 -34.00 212.53 L-34.00 140.81 Q-34.00 137.41 -31.06 135.71 L-2.94 119.48 Q0.00 117.78 0.00 121.18 L0.00 192.90 Q0.00 196.30 -2.94 198.00 Z" fill="none" stroke="#969696" stroke-width="2.8" stroke-linecap="round" stroke-linejoin="round" pathLength="1"/></g></g><g class="iso-shape iso-face-group" style="pointer-events: none;"><path class="iso-face" d="M-201.06 119.48 L-36.94 214.23 Q-34.00 215.93 -34.00 212.53 L-34.00 140.81 Q-34.00 137.41 -36.94 135.71 L-201.06 40.96 Q-204.00 39.26 -204.00 42.66 L-204.00 114.38 Q-204.00 117.78 -201.06 119.48 Z" fill="#f2f2f2" pathLength="1" pointer-events="none" opacity="1" stroke="#969696" stroke-width="2.8" stroke-linecap="round" stroke-linejoin="round"/></g><g class="iso-shape iso-circle-group" style="pointer-events: none;"><path class="iso-circle" d="M-68.00 0.00 C-86.78 10.84 -117.22 10.84 -136.00 0.00 C-154.78 -10.84 -154.78 -28.42 -136.00 -39.26 C-117.22 -50.10 -86.78 -50.10 -68.00 -39.26 C-49.22 -28.42 -49.22 -10.84 -68.00 -0.00 Z" fill="#e6e6e6" pathLength="1" pointer-events="none" opacity="1" stroke="#969696" stroke-width="2.8" stroke-linecap="round" stroke-linejoin="round"/></g><g class="iso-shape iso-face-group" style="pointer-events: none;"><path class="iso-face" d="M130.78 -101.16 L158.22 -85.32 Q170.00 -78.52 158.22 -71.72 L130.78 -55.87 Q119.00 -49.07 107.22 -55.87 L79.78 -71.72 Q68.00 -78.52 79.78 -85.32 L107.22 -101.16 Q119.00 -107.96 130.78 -101.16 Z" fill="none" pathLength="1" pointer-events="none" opacity="1" stroke="#969696" stroke-width="2.8" stroke-linecap="round" stroke-linejoin="round"/></g><g class="iso-shape iso-face-group" style="pointer-events: none;"><path class="iso-face" d="M62.78 -101.16 L90.22 -85.32 Q102.00 -78.52 90.22 -71.72 L62.78 -55.87 Q51.00 -49.07 39.22 -55.87 L11.78 -71.72 Q0.00 -78.52 11.78 -85.32 L39.22 -101.16 Q51.00 -107.96 62.78 -101.16 Z" fill="none" pathLength="1" pointer-events="none" opacity="1" stroke="#969696" stroke-width="2.8" stroke-linecap="round" stroke-linejoin="round"/></g><g class="iso-shape iso-circle-group" style="pointer-events: none;"><path class="iso-circle" d="M68.00 117.78 C68.00 96.10 83.22 69.73 102.00 58.89 C120.78 48.05 136.00 56.84 136.00 78.52 C136.00 100.20 120.78 126.57 102.00 137.41 C83.22 148.25 68.00 139.46 68.00 117.78 Z" fill="#e6e6e6" pathLength="1" pointer-events="none" opacity="1" stroke="#969696" stroke-width="2.8" stroke-linecap="round" stroke-linejoin="round"/></g></g></svg>