<svg class="iso-export-surface" viewBox="-146 -167 292 334" width="1600" height="1600" preserveAspectRatio="xMidYMid meet" aria-hidden="true" focusable="false" xmlns="http://www.w3.org/2000/svg"><g class="iso-art"><g class="iso-shape iso-face-group" style="pointer-events: none;"><path class="iso-face" d="M29.44 17.00 L106.56 61.52 Q136.00 78.52 106.56 95.52 L29.44 140.04 Q0.00 157.04 -29.44 140.04 L-106.56 95.52 Q-136.00 78.52 -106.56 61.52 L-29.44 17.00 Q0.00 0.00 29.44 17.00 Z" fill="none" pathLength="1" pointer-events="none" opacity="1" stroke="#969696" stroke-width="2.3" stroke-linecap="round" stroke-linejoin="round"/></g><g class="iso-shape iso-face-group" style="pointer-events: none;"><path class="iso-face" d="M29.44 -61.52 L106.56 -17.00 Q136.00 0.00 106.56 17.00 L29.44 61.52 Q0.00 78.52 -29.44 61.52 L-106.56 17.00 Q-136.00 0.00 -106.56 -17.00 L-29.44 -61.52 Q0.00 -78.52 29.44 -61.52 Z" fill="#e6e6e6" pathLength="1" pointer-events="none" opacity="1" stroke="#969696" stroke-width="2.3" stroke-linecap="round" stroke-linejoin="round"/></g><g class="iso-shape iso-face-group" style="pointer-events: none;"><path class="iso-face" d="M29.44 -140.04 L106.56 -95.52 Q136.00 -78.52 106.56 -61.52 L29.44 -17.00 Q0.00 0.00 -29.44 -17.00 L-106.56 -61.52 Q-136.00 -78.52 -106.56 -95.52 L-29.44 -140.04 Q0.00 -157.04 29.44 -140.04 Z" fill="#f2f2f2" pathLength="1" pointer-events="none" opacity="1" stroke="#969696" stroke-width="2.3" stroke-linecap="round" stroke-linejoin="round"/></g><g class="iso-shape iso-circle-group" style="pointer-events: none;"><path class="iso-circle" d="M34.00 -58.89 C15.22 -48.05 -15.22 -48.05 -34.00 -58.89 C-52.78 -69.73 -52.78 -87.31 -34.00 -98.15 C-15.22 -108.99 15.22 -108.99 34.00 -98.15 C52.78 -87.31 52.78 -69.73 34.00 -58.89 Z" fill="#f2f2f2" pathLength="1" pointer-events="none" opacity="1" stroke="#969696" stroke-width="2.3" stroke-linecap="round" stroke-linejoin="round"/></g><g class="iso-shape iso-face-group" style="pointer-events: none;"><path class="iso-face" d="M79.78 -12.83 L90.22 -6.80 Q102.00 0.00 90.22 6.80 L79.78 12.83 Q68.00 19.63 56.22 12.83 L45.78 6.80 Q34.00 0.00 45.78 -6.80 L56.22 -12.83 Q68.00 -19.63 79.78 -12.83 Z" fill="#e6e6e6" pathLength="1" pointer-events="none" opacity="1" stroke="#969696" stroke-width="2.3" stroke-linecap="round" stroke-linejoin="round"/></g><g class="iso-shape iso-face-group" style="pointer-events: none;"><path class="iso-face" d="M-10.20 92.26 L18.70 108.95 Q34.00 117.78 18.70 126.61 L15.30 128.58 Q0.00 137.41 -15.30 128.58 L-44.20 111.89 Q-59.50 103.06 -44.20 94.22 L-40.80 92.26 Q-25.50 83.43 -10.20 92.26 Z" fill="#e6e6e6" pathLength="1" pointer-events="none" opacity="1" stroke="#969696" stroke-width="2.3" stroke-linecap="round" stroke-linejoin="round"/></g></g></svg>