<svg class="iso-export-surface" viewBox="-229 -166 510 312" width="1600" height="1600" preserveAspectRatio="xMidYMid meet" aria-hidden="true" focusable="false" xmlns="http://www.w3.org/2000/svg"><g class="iso-art"><g class="iso-shape iso-face-group" style="pointer-events: none;"><path class="iso-face" d="M23.56 -45.29 L78.44 -13.60 Q102.00 0.00 78.44 13.60 L23.56 45.29 Q0.00 58.89 -23.56 45.29 L-78.44 13.60 Q-102.00 0.00 -78.44 -13.60 L-23.56 -45.29 Q0.00 -58.89 23.56 -45.29 Z" fill="#e6e6e6" pathLength="1" pointer-events="none" opacity="1" stroke="#969696" stroke-width="3.2" stroke-linecap="round" stroke-linejoin="round"/></g><g class="iso-shape iso-face-group" style="pointer-events: none;"><path class="iso-face" d="M159.56 -123.81 L214.44 -92.12 Q238.00 -78.52 214.44 -64.92 L159.56 -33.23 Q136.00 -19.63 112.44 -33.23 L57.56 -64.92 Q34.00 -78.52 57.56 -92.12 L112.44 -123.81 Q136.00 -137.41 159.56 -123.81 Z" fill="#e6e6e6" pathLength="1" pointer-events="none" opacity="1" stroke="#969696" stroke-width="3.2" stroke-linecap="round" stroke-linejoin="round"/></g><g class="iso-shape iso-line-group" style="pointer-events: none;"><path class="iso-line" d="M51.00 -29.44L85.00 -49.07" fill="none" pointer-events="none" pathLength="1" opacity="1" stroke="#969696" stroke-width="3.2" stroke-linecap="round" stroke-linejoin="round" style="stroke-linecap: round; stroke-linejoin: round;"/></g><g class="iso-shape iso-face-group" style="pointer-events: none;"><path class="iso-face" d="M23.56 -64.92 L78.44 -33.23 Q102.00 -19.63 78.44 -6.03 L23.56 25.66 Q0.00 39.26 -23.56 25.66 L-78.44 -6.03 Q-102.00 -19.63 -78.44 -33.23 L-23.56 -64.92 Q0.00 -78.52 23.56 -64.92 Z" fill="#ffffff" pathLength="1" pointer-events="none" opacity="1" stroke="#969696" stroke-width="3.2" stroke-linecap="round" stroke-linejoin="round"/></g><g class="iso-shape iso-face-group" style="pointer-events: none;"><path class="iso-face" d="M-95.44 23.41 L-40.56 55.10 Q-17.00 68.70 -40.56 82.30 L-95.44 113.99 Q-119.00 127.59 -142.56 113.99 L-197.44 82.30 Q-221.00 68.70 -197.44 55.10 L-142.56 23.41 Q-119.00 9.81 -95.44 23.41 Z" fill="#ffffff" pathLength="1" pointer-events="none" opacity="1" stroke="#969696" stroke-width="3.2" stroke-linecap="round" stroke-linejoin="round"/></g><g class="iso-shape iso-line-group" style="pointer-events: none;"><path class="iso-line" d="M-68.00 39.26L-51.00 29.44" fill="none" pointer-events="none" pathLength="1" opacity="1" stroke="#969696" stroke-width="3.2" stroke-linecap="round" stroke-linejoin="round" style="stroke-linecap: round; stroke-linejoin: round;"/></g><g class="iso-shape iso-face-group" style="pointer-events: none;"><path class="iso-face" d="M159.56 -143.44 L214.44 -111.75 Q238.00 -98.15 214.44 -84.55 L159.56 -52.86 Q136.00 -39.26 112.44 -52.86 L57.56 -84.55 Q34.00 -98.15 57.56 -111.75 L112.44 -143.44 Q136.00 -157.04 159.56 -143.44 Z" fill="#f2f2f2" pathLength="1" pointer-events="none" opacity="1" stroke="#969696" stroke-width="3.2" stroke-linecap="round" stroke-linejoin="round"/></g><g class="iso-shape iso-face-group" style="pointer-events: none;"><path class="iso-face" d="M193.56 -143.44 L248.44 -111.75 Q272.00 -98.15 248.44 -84.55 L193.56 -52.86 Q170.00 -39.26 146.44 -52.86 L91.56 -84.55 Q68.00 -98.15 91.56 -111.75 L146.44 -143.44 Q170.00 -157.04 193.56 -143.44 Z" fill="#ffffff" pathLength="1" pointer-events="none" opacity="1" stroke="#969696" stroke-width="3.2" stroke-linecap="round" stroke-linejoin="round"/></g><g class="iso-shape iso-face-group" style="pointer-events: none;"><path class="iso-face" d="M-95.44 -133.62 L-40.56 -101.93 Q-17.00 -88.33 -40.56 -74.73 L-95.44 -43.04 Q-119.00 -29.44 -142.56 -43.04 L-197.44 -74.73 Q-221.00 -88.33 -197.44 -101.93 L-142.56 -133.62 Q-119.00 -147.22 -95.44 -133.62 Z" fill="#FFFFFF" pathLength="1" pointer-events="none" opacity="1" stroke="#969696" stroke-width="3.2" stroke-linecap="round" stroke-linejoin="round"/></g><g class="iso-shape iso-circle-group" style="pointer-events: none;"><path class="iso-circle" d="M-93.50 83.43 C-107.58 91.56 -130.42 91.56 -144.50 83.43 C-158.58 75.30 -158.58 62.11 -144.50 53.98 C-130.42 45.85 -107.58 45.85 -93.50 53.98 C-79.42 62.11 -79.42 75.30 -93.50 83.43 Z" fill="#ffffff" pathLength="1" pointer-events="none" opacity="1" stroke="#969696" stroke-width="3.2" stroke-linecap="round" stroke-linejoin="round"/></g><g class="iso-shape iso-vector" opacity="1" style="pointer-events: none;"><path class="iso-line" d="M159.56 33.23 L214.44 64.92 Q238.00 78.52 214.44 92.12 L159.56 123.81 Q136.00 137.41 112.44 123.81 L57.56 92.12 Q34.00 78.52 57.56 64.92 L112.44 33.23 Q136.00 19.63 159.56 33.23 Z" fill="none" pointer-events="none" pathLength="1" opacity="1" stroke="#969696" stroke-width="3.2" stroke-linecap="round" stroke-linejoin="round" style="stroke-linecap: round; stroke-linejoin: round;"/></g><g class="iso-shape iso-line-group" style="pointer-events: none;"><path class="iso-line" d="M51.00 29.44L85.00 49.07" fill="none" pointer-events="none" pathLength="1" opacity="1" stroke="#969696" stroke-width="3.2" stroke-linecap="round" stroke-linejoin="round" style="stroke-linecap: round; stroke-linejoin: round;"/></g><g class="iso-shape iso-face-group" style="pointer-events: none;"><path class="iso-face" d="M159.56 13.60 L214.44 45.29 Q238.00 58.89 214.44 72.49 L159.56 104.18 Q136.00 117.78 112.44 104.18 L57.56 72.49 Q34.00 58.89 57.56 45.29 L112.44 13.60 Q136.00 0.00 159.56 13.60 Z" fill="#ffffff" pathLength="1" pointer-events="none" opacity="1" stroke="#969696" stroke-width="3.2" stroke-linecap="round" stroke-linejoin="round"/></g><g class="iso-shape iso-face-group" style="pointer-events: none;"><path class="iso-face" d="M34.33 -48.88 L76.17 -24.73 Q85.00 -19.63 76.17 -14.53 L34.33 9.62 Q25.50 14.72 16.67 9.62 L-25.17 -14.53 Q-34.00 -19.63 -25.17 -24.73 L16.67 -48.88 Q25.50 -53.98 34.33 -48.88 Z" fill="none" pathLength="1" pointer-events="none" opacity="1" stroke="#969696" stroke-width="3.2" stroke-linecap="round" stroke-linejoin="round"/></g><g class="iso-shape iso-face-group" style="pointer-events: none;"><path class="iso-face" d="M-16.67 -48.88 L25.17 -24.73 Q34.00 -19.63 25.17 -14.53 L-16.67 9.62 Q-25.50 14.72 -34.33 9.62 L-76.17 -14.53 Q-85.00 -19.63 -76.17 -24.73 L-34.33 -48.88 Q-25.50 -53.98 -16.67 -48.88 Z" fill="none" pathLength="1" pointer-events="none" opacity="1" stroke="#969696" stroke-width="3.2" stroke-linecap="round" stroke-linejoin="round"/></g><g class="iso-shape iso-line-group" style="pointer-events: none;"><path class="iso-line" d="M-68.00 -58.89L-51.00 -49.07" fill="none" pointer-events="none" pathLength="1" opacity="1" stroke="#969696" stroke-width="3.2" stroke-linecap="round" stroke-linejoin="round" style="stroke-linecap: round; stroke-linejoin: round;"/></g></g></svg>