<svg class="iso-export-surface" viewBox="-264 -230 528 460" width="1600" height="1600" preserveAspectRatio="xMidYMid meet" aria-hidden="true" focusable="false" xmlns="http://www.w3.org/2000/svg"><g class="iso-art"><g class="iso-shape iso-block" opacity="1" style="pointer-events: none;"><path class="iso-block-face iso-block-face-left" d="M-256.00 36.95 L64.00 221.70 L64.00 73.90 L-256.00 -110.85 Z" fill="none" stroke="none" stroke-width="3.6" pathLength="1" pointer-events="none"/><path class="iso-block-face iso-block-face-right" d="M256.00 110.85 L64.00 221.70 L64.00 73.90 L256.00 -36.95 Z" fill="none" stroke="none" stroke-width="3.6" pathLength="1" pointer-events="none"/><path class="iso-block-face iso-block-face-top" d="M-64.00 -221.70 L256.00 -36.95 L64.00 73.90 L-256.00 -110.85 Z" fill="none" stroke="none" stroke-width="3.6" pathLength="1" pointer-events="none"/><g class="iso-block-edges" pointer-events="none"><g class="iso-linework" pointer-events="none"><g class="iso-line-joins" opacity="1"><path class="iso-line" d="M-64.00 -73.90 L256.00 110.85" fill="none" stroke="#969696" stroke-width="3.6" pathLength="1" style="stroke-linecap: round; stroke-linejoin: round;"/><path d="M256.00 110.85h0.001" fill="none" stroke="#969696" stroke-width="3.6" style="stroke-linecap: round; stroke-linejoin: round;"/></g><g class="iso-line-joins" opacity="1"><path class="iso-line" d="M-64.00 -73.90 L-256.00 36.95" fill="none" stroke="#969696" stroke-width="3.6" pathLength="1" style="stroke-linecap: round; stroke-linejoin: round;"/><path d="M-256.00 36.95h0.001" fill="none" stroke="#969696" stroke-width="3.6" style="stroke-linecap: round; stroke-linejoin: round;"/></g><g class="iso-line-joins" opacity="1"><path class="iso-line" d="M-64.00 -73.90 L-64.00 -221.70" fill="none" stroke="#969696" stroke-width="3.6" pathLength="1" style="stroke-linecap: round; stroke-linejoin: round;"/><path d="M-64.00 -221.70h0.001" fill="none" stroke="#969696" stroke-width="3.6" style="stroke-linecap: round; stroke-linejoin: round;"/></g><g class="iso-line-joins" opacity="1"><path class="iso-line" d="M256.00 110.85 L64.00 221.70" fill="none" stroke="#969696" stroke-width="3.6" pathLength="1" style="stroke-linecap: round; stroke-linejoin: round;"/><path d="M64.00 221.70h0.001" fill="none" stroke="#969696" stroke-width="3.6" style="stroke-linecap: round; stroke-linejoin: round;"/></g><g class="iso-line-joins" opacity="1"><path class="iso-line" d="M256.00 110.85 L256.00 -36.95" fill="none" stroke="#969696" stroke-width="3.6" pathLength="1" style="stroke-linecap: round; stroke-linejoin: round;"/><path d="M256.00 -36.95h0.001" fill="none" stroke="#969696" stroke-width="3.6" style="stroke-linecap: round; stroke-linejoin: round;"/></g><g class="iso-line-joins" opacity="1"><path class="iso-line" d="M64.00 221.70 L-256.00 36.95" fill="none" stroke="#969696" stroke-width="3.6" pathLength="1" style="stroke-linecap: round; stroke-linejoin: round;"/><path d="M-256.00 36.95h0.001" fill="none" stroke="#969696" stroke-width="3.6" style="stroke-linecap: round; stroke-linejoin: round;"/></g><g class="iso-line-joins" opacity="1"><path class="iso-line" d="M64.00 221.70 L64.00 73.90" fill="none" stroke="#969696" stroke-width="3.6" pathLength="1" style="stroke-linecap: round; stroke-linejoin: round;"/><path d="M64.00 73.90h0.001" fill="none" stroke="#969696" stroke-width="3.6" style="stroke-linecap: round; stroke-linejoin: round;"/></g><g class="iso-line-joins" opacity="1"><path class="iso-line" d="M-256.00 36.95 L-256.00 -110.85" fill="none" stroke="#969696" stroke-width="3.6" pathLength="1" style="stroke-linecap: round; stroke-linejoin: round;"/><path d="M-256.00 -110.85h0.001" fill="none" stroke="#969696" stroke-width="3.6" style="stroke-linecap: round; stroke-linejoin: round;"/></g><g class="iso-line-joins" opacity="1"><path class="iso-line" d="M-64.00 -221.70 L256.00 -36.95" fill="none" stroke="#969696" stroke-width="3.6" pathLength="1" style="stroke-linecap: round; stroke-linejoin: round;"/><path d="M256.00 -36.95h0.001" fill="none" stroke="#969696" stroke-width="3.6" style="stroke-linecap: round; stroke-linejoin: round;"/></g><g class="iso-line-joins" opacity="1"><path class="iso-line" d="M-64.00 -221.70 L-256.00 -110.85" fill="none" stroke="#969696" stroke-width="3.6" pathLength="1" style="stroke-linecap: round; stroke-linejoin: round;"/><path d="M-256.00 -110.85h0.001" fill="none" stroke="#969696" stroke-width="3.6" style="stroke-linecap: round; stroke-linejoin: round;"/></g><g class="iso-line-joins" opacity="1"><path class="iso-line" d="M256.00 -36.95 L64.00 73.90" fill="none" stroke="#969696" stroke-width="3.6" pathLength="1" style="stroke-linecap: round; stroke-linejoin: round;"/><path d="M64.00 73.90h0.001" fill="none" stroke="#969696" stroke-width="3.6" style="stroke-linecap: round; stroke-linejoin: round;"/></g><g class="iso-line-joins" opacity="1"><path class="iso-line" d="M64.00 73.90 L-256.00 -110.85" fill="none" stroke="#969696" stroke-width="3.6" pathLength="1" style="stroke-linecap: round; stroke-linejoin: round;"/><path d="M-256.00 -110.85h0.001" fill="none" stroke="#969696" stroke-width="3.6" style="stroke-linecap: round; stroke-linejoin: round;"/></g></g></g></g><g class="iso-shape iso-face-group" style="pointer-events: none;"><path class="iso-face" d="M126.48 -111.73 L193.52 -73.03 Q224.00 -55.43 193.52 -37.83 L126.48 0.88 Q96.00 18.48 65.52 0.88 L-1.52 -37.83 Q-32.00 -55.43 -1.52 -73.03 L65.52 -111.73 Q96.00 -129.33 126.48 -111.73 Z" fill="#e6e6e6" pathLength="1" pointer-events="none" opacity="1" stroke="#969696" stroke-width="3.6" stroke-linecap="round" stroke-linejoin="round"/></g><g class="iso-shape iso-face-group" style="pointer-events: none;"><path class="iso-face" d="M-65.52 -148.68 L1.52 -109.98 Q32.00 -92.38 1.52 -74.78 L-65.52 -36.08 Q-96.00 -18.48 -126.48 -36.08 L-193.52 -74.78 Q-224.00 -92.38 -193.52 -109.98 L-126.48 -148.68 Q-96.00 -166.28 -65.52 -148.68 Z" fill="#f2f2f2" pathLength="1" pointer-events="none" opacity="1" stroke="#969696" stroke-width="3.6" stroke-linecap="round" stroke-linejoin="round"/></g><g class="iso-shape iso-face-group" style="pointer-events: none;"><path class="iso-face" d="M-65.52 -185.63 L1.52 -146.93 Q32.00 -129.33 1.52 -111.73 L-65.52 -73.03 Q-96.00 -55.43 -126.48 -73.03 L-193.52 -111.73 Q-224.00 -129.33 -193.52 -146.93 L-126.48 -185.63 Q-96.00 -203.23 -65.52 -185.63 Z" fill="#f2f2f2" pathLength="1" pointer-events="none" opacity="1" stroke="#969696" stroke-width="3.6" stroke-linecap="round" stroke-linejoin="round"/></g><g class="iso-shape iso-face-group" style="pointer-events: none;"><path class="iso-face" d="M126.48 -185.63 L193.52 -146.93 Q224.00 -129.33 193.52 -111.73 L126.48 -73.03 Q96.00 -55.43 65.52 -73.03 L-1.52 -111.73 Q-32.00 -129.33 -1.52 -146.93 L65.52 -185.63 Q96.00 -203.23 126.48 -185.63 Z" fill="#f2f2f2" pathLength="1" pointer-events="none" opacity="1" stroke="#969696" stroke-width="3.6" stroke-linecap="round" stroke-linejoin="round"/></g><g class="iso-shape iso-circle-group" style="pointer-events: none;"><path class="iso-circle" d="M96.00 55.43 C78.33 65.63 49.67 65.63 32.00 55.43 C14.33 45.22 14.33 28.68 32.00 18.48 C49.67 8.27 78.33 8.27 96.00 18.48 C113.67 28.68 113.67 45.22 96.00 55.43 Z" fill="#f2f2f2" pathLength="1" pointer-events="none" opacity="1" stroke="#969696" stroke-width="3.6" stroke-linecap="round" stroke-linejoin="round"/></g><g class="iso-shape iso-circle-group" style="pointer-events: none;"><path class="iso-circle" d="M32.00 18.48 C14.33 28.68 -14.33 28.68 -32.00 18.48 C-49.67 8.27 -49.67 -8.27 -32.00 -18.48 C-14.33 -28.68 14.33 -28.68 32.00 -18.48 C49.67 -8.27 49.67 8.27 32.00 18.48 Z" fill="#e6e6e6" pathLength="1" pointer-events="none" opacity="1" stroke="#969696" stroke-width="3.6" stroke-linecap="round" stroke-linejoin="round"/></g><g class="iso-shape iso-block" opacity="1" style="pointer-events: none;"><path class="iso-block-face iso-block-face-left" d="M-224.00 55.43 L-96.00 129.33 L-96.00 92.38 L-224.00 18.48 Z" fill="none" stroke="none" stroke-width="3.6" pathLength="1" pointer-events="none"/><path class="iso-block-face iso-block-face-right" d="M-32.00 92.38 L-96.00 129.33 L-96.00 92.38 L-32.00 55.43 Z" fill="none" stroke="none" stroke-width="3.6" pathLength="1" pointer-events="none"/><path class="iso-block-face iso-block-face-top" d="M-160.00 -18.48 L-32.00 55.43 L-96.00 92.38 L-224.00 18.48 Z" fill="none" stroke="none" stroke-width="3.6" pathLength="1" pointer-events="none"/><g class="iso-block-edges" pointer-events="none"><g class="iso-linework" pointer-events="none"><g class="iso-line-joins" opacity="1"><path class="iso-line" d="M-160.00 18.48 L-32.00 92.38" fill="none" stroke="#969696" stroke-width="3.6" pathLength="1" style="stroke-linecap: round; stroke-linejoin: round;"/><path d="M-32.00 92.38h0.001" fill="none" stroke="#969696" stroke-width="3.6" style="stroke-linecap: round; stroke-linejoin: round;"/></g><g class="iso-line-joins" opacity="1"><path class="iso-line" d="M-160.00 18.48 L-224.00 55.43" fill="none" stroke="#969696" stroke-width="3.6" pathLength="1" style="stroke-linecap: round; stroke-linejoin: round;"/><path d="M-224.00 55.43h0.001" fill="none" stroke="#969696" stroke-width="3.6" style="stroke-linecap: round; stroke-linejoin: round;"/></g><g class="iso-line-joins" opacity="1"><path class="iso-line" d="M-160.00 18.48 L-160.00 -18.48" fill="none" stroke="#969696" stroke-width="3.6" pathLength="1" style="stroke-linecap: round; stroke-linejoin: round;"/><path d="M-160.00 -18.48h0.001" fill="none" stroke="#969696" stroke-width="3.6" style="stroke-linecap: round; stroke-linejoin: round;"/></g><g class="iso-line-joins" opacity="1"><path class="iso-line" d="M-32.00 92.38 L-96.00 129.33" fill="none" stroke="#969696" stroke-width="3.6" pathLength="1" style="stroke-linecap: round; stroke-linejoin: round;"/><path d="M-96.00 129.33h0.001" fill="none" stroke="#969696" stroke-width="3.6" style="stroke-linecap: round; stroke-linejoin: round;"/></g><g class="iso-line-joins" opacity="1"><path class="iso-line" d="M-32.00 92.38 L-32.00 55.43" fill="none" stroke="#969696" stroke-width="3.6" pathLength="1" style="stroke-linecap: round; stroke-linejoin: round;"/><path d="M-32.00 55.43h0.001" fill="none" stroke="#969696" stroke-width="3.6" style="stroke-linecap: round; stroke-linejoin: round;"/></g><g class="iso-line-joins" opacity="1"><path class="iso-line" d="M-96.00 129.33 L-224.00 55.43" fill="none" stroke="#969696" stroke-width="3.6" pathLength="1" style="stroke-linecap: round; stroke-linejoin: round;"/><path d="M-224.00 55.43h0.001" fill="none" stroke="#969696" stroke-width="3.6" style="stroke-linecap: round; stroke-linejoin: round;"/></g><g class="iso-line-joins" opacity="1"><path class="iso-line" d="M-96.00 129.33 L-96.00 92.38" fill="none" stroke="#969696" stroke-width="3.6" pathLength="1" style="stroke-linecap: round; stroke-linejoin: round;"/><path d="M-96.00 92.38h0.001" fill="none" stroke="#969696" stroke-width="3.6" style="stroke-linecap: round; stroke-linejoin: round;"/></g><g class="iso-line-joins" opacity="1"><path class="iso-line" d="M-224.00 55.43 L-224.00 18.48" fill="none" stroke="#969696" stroke-width="3.6" pathLength="1" style="stroke-linecap: round; stroke-linejoin: round;"/><path d="M-224.00 18.48h0.001" fill="none" stroke="#969696" stroke-width="3.6" style="stroke-linecap: round; stroke-linejoin: round;"/></g><g class="iso-line-joins" opacity="1"><path class="iso-line" d="M-160.00 -18.48 L-32.00 55.43" fill="none" stroke="#969696" stroke-width="3.6" pathLength="1" style="stroke-linecap: round; stroke-linejoin: round;"/><path d="M-32.00 55.43h0.001" fill="none" stroke="#969696" stroke-width="3.6" style="stroke-linecap: round; stroke-linejoin: round;"/></g><g class="iso-line-joins" opacity="1"><path class="iso-line" d="M-160.00 -18.48 L-224.00 18.48" fill="none" stroke="#969696" stroke-width="3.6" pathLength="1" style="stroke-linecap: round; stroke-linejoin: round;"/><path d="M-224.00 18.48h0.001" fill="none" stroke="#969696" stroke-width="3.6" style="stroke-linecap: round; stroke-linejoin: round;"/></g><g class="iso-line-joins" opacity="1"><path class="iso-line" d="M-32.00 55.43 L-96.00 92.38" fill="none" stroke="#969696" stroke-width="3.6" pathLength="1" style="stroke-linecap: round; stroke-linejoin: round;"/><path d="M-96.00 92.38h0.001" fill="none" stroke="#969696" stroke-width="3.6" style="stroke-linecap: round; stroke-linejoin: round;"/></g><g class="iso-line-joins" opacity="1"><path class="iso-line" d="M-96.00 92.38 L-224.00 18.48" fill="none" stroke="#969696" stroke-width="3.6" pathLength="1" style="stroke-linecap: round; stroke-linejoin: round;"/><path d="M-224.00 18.48h0.001" fill="none" stroke="#969696" stroke-width="3.6" style="stroke-linecap: round; stroke-linejoin: round;"/></g></g></g></g><g class="iso-shape iso-block" opacity="1" style="pointer-events: none;"><path class="iso-block-face iso-block-face-left" d="M-64.00 147.80 L0.00 184.75 L0.00 147.80 L-64.00 110.85 Z" fill="none" stroke="none" stroke-width="3.6" pathLength="1" pointer-events="none"/><path class="iso-block-face iso-block-face-right" d="M64.00 147.80 L0.00 184.75 L0.00 147.80 L64.00 110.85 Z" fill="none" stroke="none" stroke-width="3.6" pathLength="1" pointer-events="none"/><path class="iso-block-face iso-block-face-top" d="M0.00 73.90 L64.00 110.85 L0.00 147.80 L-64.00 110.85 Z" fill="none" stroke="none" stroke-width="3.6" pathLength="1" pointer-events="none"/><g class="iso-block-edges" pointer-events="none"><g class="iso-linework" pointer-events="none"><g class="iso-line-joins" opacity="1"><path class="iso-line" d="M0.00 110.85 L64.00 147.80" fill="none" stroke="#969696" stroke-width="3.6" pathLength="1" style="stroke-linecap: round; stroke-linejoin: round;"/><path d="M64.00 147.80h0.001" fill="none" stroke="#969696" stroke-width="3.6" style="stroke-linecap: round; stroke-linejoin: round;"/></g><g class="iso-line-joins" opacity="1"><path class="iso-line" d="M0.00 110.85 L-64.00 147.80" fill="none" stroke="#969696" stroke-width="3.6" pathLength="1" style="stroke-linecap: round; stroke-linejoin: round;"/><path d="M-64.00 147.80h0.001" fill="none" stroke="#969696" stroke-width="3.6" style="stroke-linecap: round; stroke-linejoin: round;"/></g><g class="iso-line-joins" opacity="1"><path class="iso-line" d="M0.00 110.85 L0.00 73.90" fill="none" stroke="#969696" stroke-width="3.6" pathLength="1" style="stroke-linecap: round; stroke-linejoin: round;"/><path d="M0.00 73.90h0.001" fill="none" stroke="#969696" stroke-width="3.6" style="stroke-linecap: round; stroke-linejoin: round;"/></g><g class="iso-line-joins" opacity="1"><path class="iso-line" d="M64.00 147.80 L0.00 184.75" fill="none" stroke="#969696" stroke-width="3.6" pathLength="1" style="stroke-linecap: round; stroke-linejoin: round;"/><path d="M0.00 184.75h0.001" fill="none" stroke="#969696" stroke-width="3.6" style="stroke-linecap: round; stroke-linejoin: round;"/></g><g class="iso-line-joins" opacity="1"><path class="iso-line" d="M64.00 147.80 L64.00 110.85" fill="none" stroke="#969696" stroke-width="3.6" pathLength="1" style="stroke-linecap: round; stroke-linejoin: round;"/><path d="M64.00 110.85h0.001" fill="none" stroke="#969696" stroke-width="3.6" style="stroke-linecap: round; stroke-linejoin: round;"/></g><g class="iso-line-joins" opacity="1"><path class="iso-line" d="M0.00 184.75 L-64.00 147.80" fill="none" stroke="#969696" stroke-width="3.6" pathLength="1" style="stroke-linecap: round; stroke-linejoin: round;"/><path d="M-64.00 147.80h0.001" fill="none" stroke="#969696" stroke-width="3.6" style="stroke-linecap: round; stroke-linejoin: round;"/></g><g class="iso-line-joins" opacity="1"><path class="iso-line" d="M0.00 184.75 L0.00 147.80" fill="none" stroke="#969696" stroke-width="3.6" pathLength="1" style="stroke-linecap: round; stroke-linejoin: round;"/><path d="M0.00 147.80h0.001" fill="none" stroke="#969696" stroke-width="3.6" style="stroke-linecap: round; stroke-linejoin: round;"/></g><g class="iso-line-joins" opacity="1"><path class="iso-line" d="M-64.00 147.80 L-64.00 110.85" fill="none" stroke="#969696" stroke-width="3.6" pathLength="1" style="stroke-linecap: round; stroke-linejoin: round;"/><path d="M-64.00 110.85h0.001" fill="none" stroke="#969696" stroke-width="3.6" style="stroke-linecap: round; stroke-linejoin: round;"/></g><g class="iso-line-joins" opacity="1"><path class="iso-line" d="M0.00 73.90 L64.00 110.85" fill="none" stroke="#969696" stroke-width="3.6" pathLength="1" style="stroke-linecap: round; stroke-linejoin: round;"/><path d="M64.00 110.85h0.001" fill="none" stroke="#969696" stroke-width="3.6" style="stroke-linecap: round; stroke-linejoin: round;"/></g><g class="iso-line-joins" opacity="1"><path class="iso-line" d="M0.00 73.90 L-64.00 110.85" fill="none" stroke="#969696" stroke-width="3.6" pathLength="1" style="stroke-linecap: round; stroke-linejoin: round;"/><path d="M-64.00 110.85h0.001" fill="none" stroke="#969696" stroke-width="3.6" style="stroke-linecap: round; stroke-linejoin: round;"/></g><g class="iso-line-joins" opacity="1"><path class="iso-line" d="M64.00 110.85 L0.00 147.80" fill="none" stroke="#969696" stroke-width="3.6" pathLength="1" style="stroke-linecap: round; stroke-linejoin: round;"/><path d="M0.00 147.80h0.001" fill="none" stroke="#969696" stroke-width="3.6" style="stroke-linecap: round; stroke-linejoin: round;"/></g><g class="iso-line-joins" opacity="1"><path class="iso-line" d="M0.00 147.80 L-64.00 110.85" fill="none" stroke="#969696" stroke-width="3.6" pathLength="1" style="stroke-linecap: round; stroke-linejoin: round;"/><path d="M-64.00 110.85h0.001" fill="none" stroke="#969696" stroke-width="3.6" style="stroke-linecap: round; stroke-linejoin: round;"/></g></g></g></g><g class="iso-shape iso-block" opacity="1" style="pointer-events: none;"><path class="iso-block-face iso-block-face-left" d="M96.00 129.33 L160.00 166.28 L160.00 129.33 L96.00 92.38 Z" fill="none" stroke="none" stroke-width="3.6" pathLength="1" pointer-events="none"/><path class="iso-block-face iso-block-face-right" d="M224.00 129.33 L160.00 166.28 L160.00 129.33 L224.00 92.38 Z" fill="none" stroke="none" stroke-width="3.6" pathLength="1" pointer-events="none"/><path class="iso-block-face iso-block-face-top" d="M160.00 55.43 L224.00 92.38 L160.00 129.33 L96.00 92.38 Z" fill="none" stroke="none" stroke-width="3.6" pathLength="1" pointer-events="none"/><g class="iso-block-edges" pointer-events="none"><g class="iso-linework" pointer-events="none"><g class="iso-line-joins" opacity="1"><path class="iso-line" d="M160.00 92.38 L224.00 129.33" fill="none" stroke="#969696" stroke-width="3.6" pathLength="1" style="stroke-linecap: round; stroke-linejoin: round;"/><path d="M224.00 129.33h0.001" fill="none" stroke="#969696" stroke-width="3.6" style="stroke-linecap: round; stroke-linejoin: round;"/></g><g class="iso-line-joins" opacity="1"><path class="iso-line" d="M160.00 92.38 L96.00 129.33" fill="none" stroke="#969696" stroke-width="3.6" pathLength="1" style="stroke-linecap: round; stroke-linejoin: round;"/><path d="M96.00 129.33h0.001" fill="none" stroke="#969696" stroke-width="3.6" style="stroke-linecap: round; stroke-linejoin: round;"/></g><g class="iso-line-joins" opacity="1"><path class="iso-line" d="M160.00 92.38 L160.00 55.43" fill="none" stroke="#969696" stroke-width="3.6" pathLength="1" style="stroke-linecap: round; stroke-linejoin: round;"/><path d="M160.00 55.43h0.001" fill="none" stroke="#969696" stroke-width="3.6" style="stroke-linecap: round; stroke-linejoin: round;"/></g><g class="iso-line-joins" opacity="1"><path class="iso-line" d="M224.00 129.33 L160.00 166.28" fill="none" stroke="#969696" stroke-width="3.6" pathLength="1" style="stroke-linecap: round; stroke-linejoin: round;"/><path d="M160.00 166.28h0.001" fill="none" stroke="#969696" stroke-width="3.6" style="stroke-linecap: round; stroke-linejoin: round;"/></g><g class="iso-line-joins" opacity="1"><path class="iso-line" d="M224.00 129.33 L224.00 92.38" fill="none" stroke="#969696" stroke-width="3.6" pathLength="1" style="stroke-linecap: round; stroke-linejoin: round;"/><path d="M224.00 92.38h0.001" fill="none" stroke="#969696" stroke-width="3.6" style="stroke-linecap: round; stroke-linejoin: round;"/></g><g class="iso-line-joins" opacity="1"><path class="iso-line" d="M160.00 166.28 L96.00 129.33" fill="none" stroke="#969696" stroke-width="3.6" pathLength="1" style="stroke-linecap: round; stroke-linejoin: round;"/><path d="M96.00 129.33h0.001" fill="none" stroke="#969696" stroke-width="3.6" style="stroke-linecap: round; stroke-linejoin: round;"/></g><g class="iso-line-joins" opacity="1"><path class="iso-line" d="M160.00 166.28 L160.00 129.33" fill="none" stroke="#969696" stroke-width="3.6" pathLength="1" style="stroke-linecap: round; stroke-linejoin: round;"/><path d="M160.00 129.33h0.001" fill="none" stroke="#969696" stroke-width="3.6" style="stroke-linecap: round; stroke-linejoin: round;"/></g><g class="iso-line-joins" opacity="1"><path class="iso-line" d="M96.00 129.33 L96.00 92.38" fill="none" stroke="#969696" stroke-width="3.6" pathLength="1" style="stroke-linecap: round; stroke-linejoin: round;"/><path d="M96.00 92.38h0.001" fill="none" stroke="#969696" stroke-width="3.6" style="stroke-linecap: round; stroke-linejoin: round;"/></g><g class="iso-line-joins" opacity="1"><path class="iso-line" d="M160.00 55.43 L224.00 92.38" fill="none" stroke="#969696" stroke-width="3.6" pathLength="1" style="stroke-linecap: round; stroke-linejoin: round;"/><path d="M224.00 92.38h0.001" fill="none" stroke="#969696" stroke-width="3.6" style="stroke-linecap: round; stroke-linejoin: round;"/></g><g class="iso-line-joins" opacity="1"><path class="iso-line" d="M160.00 55.43 L96.00 92.38" fill="none" stroke="#969696" stroke-width="3.6" pathLength="1" style="stroke-linecap: round; stroke-linejoin: round;"/><path d="M96.00 92.38h0.001" fill="none" stroke="#969696" stroke-width="3.6" style="stroke-linecap: round; stroke-linejoin: round;"/></g><g class="iso-line-joins" opacity="1"><path class="iso-line" d="M224.00 92.38 L160.00 129.33" fill="none" stroke="#969696" stroke-width="3.6" pathLength="1" style="stroke-linecap: round; stroke-linejoin: round;"/><path d="M160.00 129.33h0.001" fill="none" stroke="#969696" stroke-width="3.6" style="stroke-linecap: round; stroke-linejoin: round;"/></g><g class="iso-line-joins" opacity="1"><path class="iso-line" d="M160.00 129.33 L96.00 92.38" fill="none" stroke="#969696" stroke-width="3.6" pathLength="1" style="stroke-linecap: round; stroke-linejoin: round;"/><path d="M96.00 92.38h0.001" fill="none" stroke="#969696" stroke-width="3.6" style="stroke-linecap: round; stroke-linejoin: round;"/></g></g></g></g></g></svg>