<svg width="360" height="360" viewBox="0 0 360 360" fill="none" xmlns="http://www.w3.org/2000/svg">
<g transform="translate(15.0000 30.7143) scale(0.402930)">
<path d="M487.711 338.782L736.182 482.247C743.824 486.652 747.645 484.444 747.645 475.623V188.711C747.645 179.89 743.824 173.272 736.182 168.856L487.711 25.4083C480.069 20.9921 476.248 23.1943 476.248 32.0147V318.945C476.248 327.766 480.069 334.378 487.711 338.782Z" fill="#D4D4D4"/>
<path d="M769.268 476.373L759.108 482.247C751.466 486.651 747.646 484.443 747.646 475.623V188.71C747.646 179.89 751.466 173.272 759.108 168.856L769.268 162.999C776.91 158.583 780.731 160.785 780.731 169.605V456.536C780.731 465.356 776.91 471.969 769.268 476.373Z" fill="#EAEAEA"/>
<path d="M520.779 6.30318L769.268 149.768C776.91 154.173 776.91 158.583 769.268 162.999L759.108 168.855C751.466 173.272 743.824 173.272 736.182 168.855L487.712 25.4081C480.07 20.9919 480.07 16.5817 487.712 12.1775L497.871 6.30318C505.513 1.89894 513.149 1.89894 520.779 6.30318Z" fill="white"/>
<path d="M520.779 319.695L769.267 463.142C776.909 467.558 776.909 471.969 769.267 476.373L759.108 482.247C751.466 486.651 743.824 486.651 736.182 482.247L487.711 338.782C480.069 334.378 480.069 329.968 487.711 325.551L497.871 319.695C505.513 315.279 513.149 315.279 520.779 319.695Z" stroke="url(#paint0_linear_329_467)" stroke-width="6" stroke-linecap="square"/>
<path d="M520.779 6.30318L769.267 149.768C776.909 154.173 776.909 158.583 769.267 162.999L759.108 168.855C751.466 173.272 743.824 173.272 736.182 168.855L487.711 25.4081C480.069 20.9919 480.069 16.5817 487.711 12.1775L497.871 6.30318C505.513 1.89894 513.149 1.89894 520.779 6.30318Z" stroke="url(#paint1_linear_329_467)" stroke-width="6" stroke-linecap="square"/>
<path d="M520.779 319.694L769.267 463.142C776.909 467.558 780.73 465.356 780.73 456.535V169.605C780.73 160.784 776.909 154.172 769.267 149.768L520.779 6.30268C513.149 1.89843 509.333 4.10652 509.333 12.9269V299.84C509.333 308.66 513.149 315.278 520.779 319.694Z" stroke="url(#paint2_linear_329_467)" stroke-width="6" stroke-linecap="square"/>
<path d="M487.711 338.782L736.181 482.247C743.823 486.652 747.644 484.444 747.644 475.623V188.711C747.644 179.89 743.823 173.272 736.181 168.856L487.711 25.4083C480.069 20.9921 476.248 23.1943 476.248 32.0147V318.945C476.248 327.766 480.069 334.378 487.711 338.782Z" stroke="url(#paint3_linear_329_467)" stroke-width="6" stroke-linecap="square"/>
<path d="M497.87 319.694L487.711 325.551C480.069 329.967 476.248 327.765 476.248 318.944V32.0139C476.248 23.1936 480.069 16.5812 487.711 12.177L497.87 6.30268C505.512 1.89843 509.333 4.10652 509.333 12.9269V299.84C509.333 308.66 505.512 315.278 497.87 319.694Z" stroke="url(#paint4_linear_329_467)" stroke-width="6" stroke-linecap="square"/>
<path d="M769.268 476.373L759.108 482.247C751.466 486.651 747.645 484.443 747.645 475.623V188.71C747.645 179.89 751.466 173.272 759.108 168.856L769.268 162.999C776.91 158.583 780.731 160.785 780.731 169.605V456.536C780.731 465.356 776.91 471.969 769.268 476.373Z" stroke="url(#paint5_linear_329_467)" stroke-width="6" stroke-linecap="square"/>
<path d="M148.679 536.42L397.15 679.885C404.792 684.289 408.613 682.081 408.613 673.261V386.348C408.613 377.528 404.792 370.91 397.15 366.493L148.679 223.046C141.038 218.63 137.217 220.832 137.217 229.652V516.583C137.217 525.403 141.038 532.016 148.679 536.42Z" fill="#D4D4D4"/>
<path d="M668.547 536.42L420.076 679.885C412.435 684.289 408.614 682.081 408.614 673.261V386.348C408.614 377.528 412.435 370.91 420.076 366.493L668.547 223.046C676.189 218.63 680.01 220.832 680.01 229.652V516.583C680.01 525.403 676.189 532.016 668.547 536.42Z" fill="#EAEAEA"/>
<path d="M420.076 66.3501L668.547 209.815C676.189 214.22 676.189 218.63 668.547 223.046L420.076 366.493C412.434 370.909 404.792 370.909 397.15 366.493L148.68 223.046C141.038 218.63 141.038 214.22 148.68 209.815L397.15 66.3501C404.792 61.9458 412.434 61.9458 420.076 66.3501Z" fill="white"/>
<path d="M420.076 379.724L668.547 523.189C676.189 527.605 676.189 532.016 668.547 536.42L420.076 679.885C412.434 684.289 404.792 684.289 397.15 679.885L148.679 536.42C141.038 532.016 141.038 527.605 148.679 523.189L397.15 379.724C404.792 375.32 412.434 375.32 420.076 379.724Z" stroke="url(#paint6_linear_329_467)" stroke-width="6" stroke-linecap="square"/>
<path d="M420.076 66.3501L668.547 209.815C676.189 214.22 676.189 218.63 668.547 223.046L420.076 366.493C412.434 370.909 404.792 370.909 397.15 366.493L148.679 223.046C141.038 218.63 141.038 214.22 148.679 209.815L397.15 66.3501C404.792 61.9458 412.434 61.9458 420.076 66.3501Z" stroke="url(#paint7_linear_329_467)" stroke-width="6" stroke-linecap="square"/>
<path d="M420.076 379.724L668.547 523.19C676.189 527.606 680.01 525.404 680.01 516.583V229.653C680.01 220.832 676.189 214.22 668.547 209.816L420.076 66.3505C412.434 61.9463 408.613 64.1543 408.613 72.9747V359.887C408.613 368.708 412.434 375.32 420.076 379.724Z" stroke="url(#paint8_linear_329_467)" stroke-width="6" stroke-linecap="square"/>
<path d="M148.679 536.42L397.15 679.885C404.792 684.289 408.613 682.081 408.613 673.261V386.348C408.613 377.528 404.792 370.91 397.15 366.493L148.679 223.046C141.037 218.63 137.216 220.832 137.216 229.652V516.583C137.216 525.403 141.037 532.016 148.679 536.42Z" stroke="url(#paint9_linear_329_467)" stroke-width="6" stroke-linecap="square"/>
<path d="M397.15 379.724L148.679 523.19C141.037 527.606 137.216 525.404 137.216 516.583V229.653C137.216 220.832 141.037 214.22 148.679 209.816L397.15 66.3505C404.792 61.9463 408.613 64.1543 408.613 72.9747V359.887C408.613 368.708 404.792 375.32 397.15 379.724Z" stroke="url(#paint10_linear_329_467)" stroke-width="6" stroke-linecap="square"/>
<path d="M668.547 536.42L420.076 679.885C412.434 684.289 408.613 682.081 408.613 673.261V386.348C408.613 377.528 412.434 370.91 420.076 366.493L668.547 223.046C676.189 218.63 680.01 220.832 680.01 229.652V516.583C680.01 525.403 676.189 532.016 668.547 536.42Z" stroke="url(#paint11_linear_329_467)" stroke-width="6" stroke-linecap="square"/>
<path d="M61.7609 639.318L211.404 725.719C250.578 748.335 270.165 737.027 270.165 691.794V519.011C270.165 473.778 250.578 439.853 211.404 417.237L61.7609 330.837C22.587 308.22 3 319.528 3 364.761V537.544C3 582.777 22.587 616.702 61.7609 639.318Z" stroke="url(#paint12_linear_329_467)" stroke-width="6" stroke-linecap="square"/>
<path d="M544.097 609.323C544.097 522.779 604.858 417.56 679.795 374.279C754.751 331.016 815.494 366.084 815.494 452.627C815.494 539.17 754.751 644.39 679.795 687.671C604.858 730.933 544.097 695.848 544.097 609.323Z" stroke="url(#paint13_linear_329_467)" stroke-width="6" stroke-linecap="square"/>
<path d="M318.303 154.482L329.301 160.838C336.943 165.254 336.943 169.665 329.301 174.069L233.491 229.402C225.849 233.806 218.207 233.806 210.565 229.402L199.567 223.045C191.925 218.629 191.925 214.219 199.567 209.815L295.377 154.482C303.019 150.078 310.661 150.078 318.303 154.482Z" stroke="url(#paint14_linear_329_467)" stroke-width="6" stroke-linecap="square"/>
<defs>
<linearGradient id="paint0_linear_329_467" x1="483.778" y1="-15.9189" x2="773.2" y2="485.374" gradientUnits="userSpaceOnUse">
<stop stop-color="#525252"/>
<stop offset="1" stop-color="#C3C3C3"/>
</linearGradient>
<linearGradient id="paint1_linear_329_467" x1="483.778" y1="-15.919" x2="773.2" y2="485.374" gradientUnits="userSpaceOnUse">
<stop stop-color="#525252"/>
<stop offset="1" stop-color="#C3C3C3"/>
</linearGradient>
<linearGradient id="paint2_linear_329_467" x1="483.778" y1="-15.9195" x2="773.2" y2="485.374" gradientUnits="userSpaceOnUse">
<stop stop-color="#525252"/>
<stop offset="1" stop-color="#C3C3C3"/>
</linearGradient>
<linearGradient id="paint3_linear_329_467" x1="483.777" y1="-15.9188" x2="773.199" y2="485.375" gradientUnits="userSpaceOnUse">
<stop stop-color="#525252"/>
<stop offset="1" stop-color="#C3C3C3"/>
</linearGradient>
<linearGradient id="paint4_linear_329_467" x1="483.777" y1="-15.9195" x2="773.199" y2="485.374" gradientUnits="userSpaceOnUse">
<stop stop-color="#525252"/>
<stop offset="1" stop-color="#C3C3C3"/>
</linearGradient>
<linearGradient id="paint5_linear_329_467" x1="483.778" y1="-15.9189" x2="773.2" y2="485.375" gradientUnits="userSpaceOnUse">
<stop stop-color="#525252"/>
<stop offset="1" stop-color="#C3C3C3"/>
</linearGradient>
<linearGradient id="paint6_linear_329_467" x1="234.112" y1="-7.47227" x2="583.114" y2="597.017" gradientUnits="userSpaceOnUse">
<stop stop-color="#525252"/>
<stop offset="1" stop-color="#C3C3C3"/>
</linearGradient>
<linearGradient id="paint7_linear_329_467" x1="234.112" y1="-7.47249" x2="583.114" y2="597.017" gradientUnits="userSpaceOnUse">
<stop stop-color="#525252"/>
<stop offset="1" stop-color="#C3C3C3"/>
</linearGradient>
<linearGradient id="paint8_linear_329_467" x1="234.112" y1="-7.47203" x2="583.114" y2="597.017" gradientUnits="userSpaceOnUse">
<stop stop-color="#525252"/>
<stop offset="1" stop-color="#C3C3C3"/>
</linearGradient>
<linearGradient id="paint9_linear_329_467" x1="234.112" y1="-7.47241" x2="583.114" y2="597.017" gradientUnits="userSpaceOnUse">
<stop stop-color="#525252"/>
<stop offset="1" stop-color="#C3C3C3"/>
</linearGradient>
<linearGradient id="paint10_linear_329_467" x1="234.112" y1="-7.47203" x2="583.114" y2="597.017" gradientUnits="userSpaceOnUse">
<stop stop-color="#525252"/>
<stop offset="1" stop-color="#C3C3C3"/>
</linearGradient>
<linearGradient id="paint11_linear_329_467" x1="234.112" y1="-7.47241" x2="583.114" y2="597.017" gradientUnits="userSpaceOnUse">
<stop stop-color="#525252"/>
<stop offset="1" stop-color="#C3C3C3"/>
</linearGradient>
<linearGradient id="paint12_linear_329_467" x1="253.435" y1="-5.2751" x2="387.018" y2="226.097" gradientUnits="userSpaceOnUse">
<stop stop-color="#525252"/>
<stop offset="1" stop-color="#C3C3C3"/>
</linearGradient>
<linearGradient id="paint13_linear_329_467" x1="492.618" y1="481.439" x2="628.316" y2="716.475" gradientUnits="userSpaceOnUse">
<stop stop-color="#525252"/>
<stop offset="1" stop-color="#C3C3C3"/>
</linearGradient>
<linearGradient id="paint14_linear_329_467" x1="494.648" y1="75.8176" x2="565.247" y2="198.098" gradientUnits="userSpaceOnUse">
<stop stop-color="#525252"/>
<stop offset="1" stop-color="#C3C3C3"/>
</linearGradient>
</defs>
</g>
</svg>
