<svg width="360" height="360" viewBox="0 0 360 360" fill="none" xmlns="http://www.w3.org/2000/svg">
<g transform="translate(43.3730 15.0000) scale(0.436508)">
<path d="M371.626 411.684L593.35 539.705C632.524 562.321 632.524 584.937 593.35 607.554L371.626 735.557C332.452 758.173 293.278 758.173 254.104 735.557L32.3806 607.554C-6.7934 584.937 -6.7934 562.321 32.3806 539.705L254.104 411.684C293.278 389.068 332.452 389.068 371.626 411.684Z" fill="#F8F8F8" stroke="url(#paint0_linear_329_452)" stroke-width="6" stroke-linecap="square"/>
<path d="M371.626 215.814L593.35 343.834C632.524 366.451 632.524 389.067 593.35 411.684L371.626 539.704C332.452 562.321 293.278 562.321 254.104 539.704L32.3806 411.684C-6.7934 389.067 -6.7934 366.451 32.3806 343.834L254.104 215.814C293.278 193.197 332.452 193.197 371.626 215.814Z" fill="#E6E6E6" stroke="url(#paint1_linear_329_452)" stroke-width="6" stroke-linecap="square"/>
<path d="M511.86 335.961L554.89 360.797C574.472 372.105 574.472 383.413 554.89 394.722L528.822 409.756C509.241 421.064 489.66 421.064 470.079 409.756L427.048 384.937C407.467 373.629 407.467 362.321 427.048 351.012L453.117 335.961C472.698 324.652 492.279 324.652 511.86 335.961Z" fill="#F8F8F8" stroke="url(#paint2_linear_329_452)" stroke-width="6" stroke-linecap="square"/>
<path d="M371.626 19.9623L593.35 147.965C632.524 170.581 632.524 193.198 593.35 215.814L371.626 343.835C332.452 366.451 293.278 366.451 254.104 343.835L32.3805 215.814C-6.79349 193.198 -6.79349 170.581 32.3805 147.965L254.104 19.9623C293.278 -2.6541 332.452 -2.6541 371.626 19.9623Z" fill="#F8F8F8" stroke="url(#paint3_linear_329_452)" stroke-width="6" stroke-linecap="square"/>
<path d="M380.179 146.304C342.701 167.945 281.958 167.945 244.48 146.304C207.003 124.682 207.003 89.5968 244.48 67.9744C281.958 46.3341 342.701 46.3341 380.179 67.9744C417.656 89.5968 417.656 124.682 380.179 146.304Z" fill="#F8F8F8" stroke="url(#paint4_linear_329_452)" stroke-width="6" stroke-linecap="square"/>
<path d="M252.14 609.107L363.002 673.117C382.583 684.426 382.583 695.734 363.002 707.042L347.54 715.952C327.959 727.26 308.372 727.26 288.779 715.952L177.917 651.941C158.336 640.633 158.336 629.325 177.917 618.017L193.379 609.107C212.96 597.799 232.547 597.799 252.14 609.107Z" fill="#F8F8F8" stroke="url(#paint5_linear_329_452)" stroke-width="6" stroke-linecap="square"/>
<defs>
<linearGradient id="paint0_linear_329_452" x1="212.655" y1="84.3617" x2="383.475" y2="680.085" gradientUnits="userSpaceOnUse">
<stop stop-color="#6B6B6B"/>
<stop offset="0.830896" stop-color="#D3D3D3"/>
<stop offset="1" stop-color="#D9D9D9"/>
</linearGradient>
<linearGradient id="paint1_linear_329_452" x1="400.937" y1="30.3723" x2="571.758" y2="626.096" gradientUnits="userSpaceOnUse">
<stop stop-color="#6B6B6B"/>
<stop offset="0.830896" stop-color="#D3D3D3"/>
<stop offset="1" stop-color="#D9D9D9"/>
</linearGradient>
<linearGradient id="paint2_linear_329_452" x1="407.377" y1="438.46" x2="485.984" y2="574.611" gradientUnits="userSpaceOnUse">
<stop stop-color="#525252"/>
<stop offset="1" stop-color="#C3C3C3"/>
</linearGradient>
<linearGradient id="paint3_linear_329_452" x1="589.202" y1="-23.6114" x2="760.023" y2="572.112" gradientUnits="userSpaceOnUse">
<stop stop-color="#6B6B6B"/>
<stop offset="0.830896" stop-color="#D3D3D3"/>
<stop offset="1" stop-color="#D9D9D9"/>
</linearGradient>
<linearGradient id="paint4_linear_329_452" x1="548.176" y1="130.859" x2="644.133" y2="297.063" gradientUnits="userSpaceOnUse">
<stop stop-color="#525252"/>
<stop offset="1" stop-color="#C3C3C3"/>
</linearGradient>
<linearGradient id="paint5_linear_329_452" x1="46.2594" y1="359.279" x2="153.488" y2="545.004" gradientUnits="userSpaceOnUse">
<stop stop-color="#525252"/>
<stop offset="1" stop-color="#C3C3C3"/>
</linearGradient>
</defs>
</g>
</svg>
