<svg width="95" height="63" viewBox="0 0 95 63" fill="none" xmlns="http://www.w3.org/2000/svg">
<path d="M94 59L63.9 0H38.7L69.5 60.4C70.1 61.5 71.2 62.2 72.5 62.2H92C93.2 62.2 94.1999 61.1 94.1999 59.9C94.1999 59.6 94.1 59.3 94 59Z" fill="#0F497F"/>
<path d="M60.9001 58.9L41.8001 21.5H16.6001L36.4001 60.3C37.0001 61.4 38.1001 62.1 39.4001 62.1H58.9001C60.2001 62.1 61.2001 61 61.1001 59.8C61.1001 59.5 61.0001 59.2 60.9001 58.9Z" fill="#0F497F"/>
<path fill-rule="evenodd" clip-rule="evenodd" d="M11.6 62.5002C18 62.5002 23.2 57.3002 23.2 50.9002C23.2 44.5002 18 39.3002 11.6 39.3002C5.2 39.2002 0 44.4002 0 50.8002C0 57.2002 5.2 62.5002 11.6 62.5002Z" fill="#0F497F"/>
</svg>
