<svg width="360" height="360" viewBox="0 0 360 360" fill="none" xmlns="http://www.w3.org/2000/svg">
<g transform="translate(15.0000 20.6321) scale(0.417193)">
<path d="M424.781 316.374L773.133 517.493C792.714 528.801 792.714 540.109 773.133 551.417L424.781 752.519C405.2 763.827 385.619 763.827 366.038 752.519L17.6858 551.417C-1.89526 540.109 -1.89526 528.801 17.6858 517.493L366.038 316.374C385.619 305.066 405.2 305.066 424.781 316.374Z" stroke="url(#paint0_linear_329_424)" stroke-width="6" stroke-linecap="square"/>
<path d="M62.0379 537.847L389.535 726.914C393.451 729.175 395.409 728.045 395.409 723.521V697.917C395.409 693.394 393.451 690.001 389.535 687.74L62.0379 498.673C58.1217 496.411 56.1636 497.542 56.1636 502.065V527.669C56.1636 532.193 58.1217 535.585 62.0379 537.847Z" fill="#D4D4D4"/>
<path d="M728.781 537.847L401.283 726.914C397.367 729.175 395.409 728.045 395.409 723.521V697.917C395.409 693.394 397.367 690.001 401.283 687.74L728.781 498.673C732.697 496.411 734.655 497.542 734.655 502.065V527.669C734.655 532.193 732.697 535.585 728.781 537.847Z" fill="#EAEAEA"/>
<path d="M401.284 302.804L728.781 491.889C732.697 494.15 732.697 496.412 728.781 498.673L401.284 687.74C397.368 690.002 393.451 690.002 389.535 687.74L62.038 498.673C58.1218 496.412 58.1218 494.15 62.038 491.889L389.535 302.804C393.451 300.542 397.368 300.542 401.284 302.804Z" fill="white"/>
<path d="M401.284 341.977L728.781 531.062C732.697 533.324 732.697 535.586 728.781 537.847L401.284 726.914C397.368 729.176 393.451 729.176 389.535 726.914L62.038 537.847C58.1218 535.586 58.1218 533.324 62.038 531.062L389.535 341.977C393.451 339.716 397.368 339.716 401.284 341.977Z" stroke="url(#paint1_linear_329_424)" stroke-width="6" stroke-linecap="square"/>
<path d="M401.284 302.804L728.781 491.889C732.697 494.15 732.697 496.412 728.781 498.673L401.284 687.74C397.368 690.002 393.451 690.002 389.535 687.74L62.038 498.673C58.1218 496.412 58.1218 494.15 62.038 491.889L389.535 302.804C393.451 300.542 397.368 300.542 401.284 302.804Z" stroke="url(#paint2_linear_329_424)" stroke-width="6" stroke-linecap="square"/>
<path d="M401.283 341.978L728.781 531.063C732.697 533.324 734.655 532.193 734.655 527.67V502.066C734.655 497.543 732.697 494.15 728.781 491.889L401.283 302.804C397.367 300.542 395.409 301.673 395.409 306.196V331.8C395.409 336.324 397.367 339.716 401.283 341.978Z" stroke="url(#paint3_linear_329_424)" stroke-width="6" stroke-linecap="square"/>
<path d="M62.0379 537.847L389.535 726.914C393.451 729.175 395.409 728.045 395.409 723.521V697.917C395.409 693.394 393.451 690.001 389.535 687.74L62.0379 498.673C58.1217 496.411 56.1636 497.542 56.1636 502.065V527.669C56.1636 532.193 58.1217 535.585 62.0379 537.847Z" stroke="url(#paint4_linear_329_424)" stroke-width="6" stroke-linecap="square"/>
<path d="M389.535 341.978L62.0379 531.063C58.1217 533.324 56.1636 532.193 56.1636 527.67V502.066C56.1636 497.543 58.1217 494.15 62.0379 491.889L389.535 302.804C393.451 300.542 395.409 301.673 395.409 306.196V331.8C395.409 336.324 393.451 339.716 389.535 341.978Z" stroke="url(#paint5_linear_329_424)" stroke-width="6" stroke-linecap="square"/>
<path d="M728.781 537.847L401.283 726.914C397.367 729.175 395.409 728.045 395.409 723.521V697.917C395.409 693.394 397.367 690.001 401.283 687.74L728.781 498.673C732.697 496.411 734.655 497.542 734.655 502.065V527.669C734.655 532.193 732.697 535.585 728.781 537.847Z" stroke="url(#paint6_linear_329_424)" stroke-width="6" stroke-linecap="square"/>
<path d="M454.171 254.988L625.008 353.62C664.182 376.236 683.769 364.928 683.769 319.695V220.367C683.769 175.135 664.182 141.21 625.008 118.594L454.171 19.9625C414.997 -2.6539 395.41 8.6543 395.41 53.8871V153.215C395.41 198.447 414.997 232.372 454.171 254.988Z" stroke="url(#paint7_linear_329_424)" stroke-width="6" stroke-linecap="square"/>
<path d="M454.17 372.51L608.045 461.357C647.219 483.973 647.219 506.59 608.045 529.206L454.17 618.053C414.996 640.669 375.822 640.669 336.649 618.053L182.774 529.206C143.6 506.59 143.6 483.973 182.774 461.357L336.649 372.51C375.822 349.894 414.996 349.894 454.17 372.51Z" fill="#E5E5E5" stroke="url(#paint8_linear_329_424)" stroke-width="6" stroke-linecap="square"/>
<path d="M454.17 294.162L608.045 383.009C647.219 405.626 647.219 428.242 608.045 450.858L454.17 539.705C414.996 562.321 375.822 562.321 336.649 539.705L182.774 450.858C143.6 428.242 143.6 405.626 182.774 383.009L336.649 294.162C375.822 271.546 414.996 271.546 454.17 294.162Z" fill="#EFEFEF" stroke="url(#paint9_linear_329_424)" stroke-width="6" stroke-linecap="square"/>
<path d="M114.925 490.032L336.648 618.052C375.822 640.669 395.409 629.361 395.409 584.128V445.608C395.409 400.376 375.822 366.451 336.648 343.835L114.925 215.814C75.7506 193.198 56.1636 204.506 56.1636 249.739V388.258C56.1636 433.491 75.7506 467.415 114.925 490.032Z" stroke="url(#paint10_linear_329_424)" stroke-width="6" stroke-linecap="square"/>
<path d="M454.17 19.9623L540.196 69.6172C579.37 92.2335 579.37 114.85 540.196 137.466L318.472 265.487C279.298 288.103 240.124 288.103 200.95 265.487L114.925 215.814C75.7507 193.198 75.7507 170.581 114.925 147.965L336.649 19.9623C375.823 -2.6541 414.996 -2.6541 454.17 19.9623Z" stroke="url(#paint11_linear_329_424)" stroke-width="6" stroke-linecap="square"/>
<defs>
<linearGradient id="paint0_linear_329_424" x1="355.912" y1="-18.9179" x2="572.237" y2="735.498" gradientUnits="userSpaceOnUse">
<stop stop-color="#6B6B6B"/>
<stop offset="0.830896" stop-color="#D3D3D3"/>
<stop offset="1" stop-color="#D9D9D9"/>
</linearGradient>
<linearGradient id="paint1_linear_329_424" x1="315.304" y1="215.916" x2="475.515" y2="774.638" gradientUnits="userSpaceOnUse">
<stop stop-color="#6B6B6B"/>
<stop offset="0.830896" stop-color="#D3D3D3"/>
<stop offset="1" stop-color="#D9D9D9"/>
</linearGradient>
<linearGradient id="paint2_linear_329_424" x1="315.304" y1="215.916" x2="475.515" y2="774.638" gradientUnits="userSpaceOnUse">
<stop stop-color="#6B6B6B"/>
<stop offset="0.830896" stop-color="#D3D3D3"/>
<stop offset="1" stop-color="#D9D9D9"/>
</linearGradient>
<linearGradient id="paint3_linear_329_424" x1="315.304" y1="215.916" x2="475.515" y2="774.638" gradientUnits="userSpaceOnUse">
<stop stop-color="#6B6B6B"/>
<stop offset="0.830896" stop-color="#D3D3D3"/>
<stop offset="1" stop-color="#D9D9D9"/>
</linearGradient>
<linearGradient id="paint4_linear_329_424" x1="315.304" y1="215.916" x2="475.515" y2="774.638" gradientUnits="userSpaceOnUse">
<stop stop-color="#6B6B6B"/>
<stop offset="0.830896" stop-color="#D3D3D3"/>
<stop offset="1" stop-color="#D9D9D9"/>
</linearGradient>
<linearGradient id="paint5_linear_329_424" x1="315.304" y1="215.916" x2="475.515" y2="774.638" gradientUnits="userSpaceOnUse">
<stop stop-color="#6B6B6B"/>
<stop offset="0.830896" stop-color="#D3D3D3"/>
<stop offset="1" stop-color="#D9D9D9"/>
</linearGradient>
<linearGradient id="paint6_linear_329_424" x1="315.304" y1="215.916" x2="475.515" y2="774.638" gradientUnits="userSpaceOnUse">
<stop stop-color="#6B6B6B"/>
<stop offset="0.830896" stop-color="#D3D3D3"/>
<stop offset="1" stop-color="#D9D9D9"/>
</linearGradient>
<linearGradient id="paint7_linear_329_424" x1="255.467" y1="-80.3067" x2="484.466" y2="718.308" gradientUnits="userSpaceOnUse">
<stop stop-color="#6B6B6B"/>
<stop offset="0.830896" stop-color="#D3D3D3"/>
<stop offset="1" stop-color="#D9D9D9"/>
</linearGradient>
<linearGradient id="paint8_linear_329_424" x1="351.557" y1="138.785" x2="484.974" y2="604.067" gradientUnits="userSpaceOnUse">
<stop stop-color="#6B6B6B"/>
<stop offset="0.830896" stop-color="#D3D3D3"/>
<stop offset="1" stop-color="#D9D9D9"/>
</linearGradient>
<linearGradient id="paint9_linear_329_424" x1="426.87" y1="117.189" x2="560.287" y2="582.471" gradientUnits="userSpaceOnUse">
<stop stop-color="#6B6B6B"/>
<stop offset="0.830896" stop-color="#D3D3D3"/>
<stop offset="1" stop-color="#D9D9D9"/>
</linearGradient>
<linearGradient id="paint10_linear_329_424" x1="255.466" y1="-80.3071" x2="484.465" y2="718.308" gradientUnits="userSpaceOnUse">
<stop stop-color="#6B6B6B"/>
<stop offset="0.830896" stop-color="#D3D3D3"/>
<stop offset="1" stop-color="#D9D9D9"/>
</linearGradient>
<linearGradient id="paint11_linear_329_424" x1="255.467" y1="-80.3069" x2="484.466" y2="718.308" gradientUnits="userSpaceOnUse">
<stop stop-color="#6B6B6B"/>
<stop offset="0.830896" stop-color="#D3D3D3"/>
<stop offset="1" stop-color="#D9D9D9"/>
</linearGradient>
</defs>
</g>
</svg>
