<?xml version="1.0" encoding="UTF-8"?>
<svg version="1.1" xmlns="http://www.w3.org/2000/svg" width="100" height="100">
<path d="M0 0 C8.64822802 6.87119486 15.44311132 18.01837448 17 29 C18.40895106 46.55709566 15.56638733 59.95954698 4.4140625 73.99609375 C-3.81286908 83.00558711 -15.56118495 88.6401856 -27.6484375 89.3125 C-44.13318085 89.87527929 -57.29779856 86.1831071 -69.75 74.8125 C-80.88341536 62.87619411 -83.80272194 49.59143924 -83.34375 33.85546875 C-82.66010765 21.18611097 -76.33281061 9.26446012 -67.0703125 0.625 C-46.64754218 -15.40494803 -20.73790664 -15.44661826 0 0 Z " fill="#55BE8C" transform="translate(83,11)"/>
<path d="M0 0 C8.64822802 6.87119486 15.44311132 18.01837448 17 29 C18.40895106 46.55709566 15.56638733 59.95954698 4.4140625 73.99609375 C-3.81286908 83.00558711 -15.56118495 88.6401856 -27.6484375 89.3125 C-44.13318085 89.87527929 -57.29779856 86.1831071 -69.75 74.8125 C-80.88341536 62.87619411 -83.80272194 49.59143924 -83.34375 33.85546875 C-82.66010765 21.18611097 -76.33281061 9.26446012 -67.0703125 0.625 C-46.64754218 -15.40494803 -20.73790664 -15.44661826 0 0 Z M-37.421875 3.68359375 C-38.75 5.125 -38.75 5.125 -42 7 C-45.11089009 6.5849171 -47.95644039 5.76928217 -50.9609375 4.8671875 C-55.04853521 3.70080358 -58.81696866 2.97767055 -63 4 C-66.2881676 6.53608047 -66.2881676 6.53608047 -68 10 C-68.38114973 14.20093288 -67.42703957 17.94263833 -65.859375 21.82421875 C-64.6347291 25.12300085 -63.89892187 27.46666013 -64 31 C-67.08927664 35.70852182 -70.88045309 39.20145675 -75 43 C-77.36086122 46.54129184 -77.57269578 47.82750218 -77 52 C-74.78630991 56.25709633 -73.22247269 57.52734946 -68.7265625 59.265625 C-63.44359826 60.83833134 -58.54946447 62.27326908 -53 62 C-52.81824219 62.64066406 -52.63648437 63.28132813 -52.44921875 63.94140625 C-50.09924968 73.0897895 -50.09924968 73.0897895 -45.1875 80.9375 C-42.17319794 82.40158957 -40.32275374 82.46518552 -37 82 C-33.06358034 79.94978143 -30.71643743 77.68944248 -28.125 74.1875 C-26.6328125 72.35546875 -26.6328125 72.35546875 -25 71 C-21.83662897 71 -19.93032611 71.18898045 -17 72 C-12.028782 72.95193536 -7.04810833 73.71978731 -2 73 C0.50160818 71.12379387 1.61945652 69.76108697 3 67 C3.44724489 61.63306134 2.40719404 57.50418273 0.65625 52.4296875 C-0.09796061 49.6373125 -0.48742762 47.87187084 0 45 C1.76111282 42.92264123 3.47924107 41.11623777 5.4375 39.25 C9.46300175 35.13745694 12.20289461 31.91744246 12.65625 26.03515625 C11.58934264 22.72647331 9.6547091 21.18371232 7 19 C3.63279185 17.55648262 3.63279185 17.55648262 0 16.6875 C-1.19625 16.36136719 -2.3925 16.03523438 -3.625 15.69921875 C-6.55368365 15.092466 -9.02819496 14.8480327 -12 15 C-12.09796875 14.443125 -12.1959375 13.88625 -12.296875 13.3125 C-13.56028875 6.86473329 -15.29620874 0.88404401 -19.875 -4 C-27.60768181 -7.63890909 -32.61116572 -2.01260323 -37.421875 3.68359375 Z " fill="#FDFEFE" transform="translate(83,11)"/>
<path d="M0 0 C7.41087729 0.49405849 17.42245178 1.30778677 22.828125 6.88671875 C24.54009926 9.973979 24.5175413 11.91846786 24.0625 15.37109375 C22.36885502 19.56161976 19.10756094 22.52080098 15.77490234 25.48632812 C13.68130341 27.47167268 12.06904075 29.06507787 11.8503418 32.02661133 C12.23368587 35.31549915 13.11790163 38.39531722 14.0625 41.5625 C15.27204625 45.99750292 15.73235866 49.91559459 14.1875 54.3125 C13 56 13 56 10 58 C4.33022016 58.78843564 -1.1480507 57.71298733 -6.640625 56.33984375 C-9.4576399 55.93408167 -11.29484182 56.10263674 -14 57 C-15.94552381 58.75102941 -15.94552381 58.75102941 -17.5625 60.9375 C-20.65446371 64.87207738 -22.90267417 66.73225628 -27.9375 67.375 C-31.88835359 66.89122201 -33.17811275 65.79526567 -36 63 C-37.13709864 60.3608081 -38.02502041 57.9816505 -38.8125 55.25 C-39.02841797 54.55261719 -39.24433594 53.85523438 -39.46679688 53.13671875 C-39.99311601 51.42910557 -40.49868955 49.7151217 -41 48 C-34.31619374 48.47741473 -28.11828681 49.87283017 -21.67382812 51.62792969 C-16.39020683 53.11533792 -16.39020683 53.11533792 -11 53 C-8.7772792 51.16441645 -8.7772792 51.16441645 -6.8125 48.625 C-2.81196906 43.84190314 1.48847595 39.76284862 6.2265625 35.71484375 C8.48346463 32.25989445 8.2674045 30.51958002 7.59960938 26.54858398 C6.48132615 21.79542494 4.99742151 17.18666338 3.4375 12.5625 C2.78796365 10.60626431 2.14070725 8.64926962 1.49609375 6.69140625 C1.20919678 5.83748291 0.9222998 4.98355957 0.62670898 4.10375977 C0 2 0 2 0 0 Z " fill="#95CC9B" transform="translate(71,26)"/>
<path d="M0 0 C4.04329053 0.86017118 8.02418606 1.86981939 12 3 C10.64447265 5.9664439 9.09895555 8.25011395 6.9375 10.6875 C6.32519531 11.37972656 5.71289062 12.07195313 5.08203125 12.78515625 C2.13796094 15.91702842 -1.00414181 18.83089541 -4.1796875 21.7265625 C-6.46766183 24.58407551 -6.68335145 26.36796736 -7 30 C-6.42788883 33.08889997 -6.42788883 33.08889997 -5.34765625 36.203125 C-4.98349609 37.3478125 -4.61933594 38.4925 -4.24414062 39.671875 C-3.85419922 40.85265625 -3.46425781 42.0334375 -3.0625 43.25 C-2.30126296 45.60869106 -1.54204075 47.96803365 -0.78515625 50.328125 C-0.44363525 51.3687207 -0.10211426 52.40931641 0.24975586 53.48144531 C1 56 1 56 1 58 C-16.42476063 56.35615466 -16.42476063 56.35615466 -21.1875 51.1875 C-23.23747474 47.58237202 -23.49534113 46.06996781 -23 42 C-21.171875 39.4375 -21.171875 39.4375 -18.75 37 C-13.78548953 31.94146047 -13.78548953 31.94146047 -10 26 C-10.37860696 22.48375129 -10.37860696 22.48375129 -11.75 19 C-13.32079147 14.46657653 -14.45489534 10.82053275 -14 6 C-10.33601587 -0.38242397 -7.07223709 -1.10503705 0 0 Z " fill="#95CC9B" transform="translate(29,15)"/>
<path d="M0 0 C7.41087729 0.49405849 17.42245178 1.30778677 22.828125 6.88671875 C24.53716614 9.9686896 24.52580311 11.90622324 24.05078125 15.3515625 C22.11560003 20.22908245 18.22168794 23.74194345 14.56640625 27.3984375 C11.91583058 29.92102624 11.91583058 29.92102624 10 33 C8.57212243 28.62294764 7.14805678 24.24468083 5.72753906 19.86523438 C5.24356483 18.37498352 4.75854313 16.88507243 4.27246094 15.39550781 C3.57472733 13.25674071 2.88074636 11.11678763 2.1875 8.9765625 C1.96876221 8.30879791 1.75002441 7.64103333 1.5246582 6.95303345 C0 2.22774341 0 2.22774341 0 0 Z " fill="#99CFEB" transform="translate(71,26)"/>
<path d="M0 0 C4.04329053 0.86017118 8.02418606 1.86981939 12 3 C8.51916885 10.61747106 1.7349256 16.36297069 -4.1796875 22.1171875 C-6.06383898 23.87753339 -6.06383898 23.87753339 -7 26 C-7.99 26 -8.98 26 -10 26 C-10.67668949 23.79471728 -11.34093498 21.58561391 -12 19.375 C-12.37125 18.14523438 -12.7425 16.91546875 -13.125 15.6484375 C-14.38348139 10.40101956 -14.78174186 7.36174389 -12.0625 2.625 C-8.51050642 -1.15519429 -4.85935041 -0.7592735 0 0 Z " fill="#97CEEB" transform="translate(29,15)"/>
<path d="M0 0 C4.48261105 2.90915163 6.03960783 5.63838902 7.8125 10.625 C8.23144531 11.77226562 8.65039062 12.91953125 9.08203125 14.1015625 C10 17 10 17 10 19 C-0.01922694 18.50725113 -9.38546963 15.67509007 -19 13 C-6.79141518 -1.4763946 -6.79141518 -1.4763946 0 0 Z " fill="#96CC9C" transform="translate(61,6)"/>
<path d="M0 0 C6.87800037 0.61372926 13.3664323 1.89896752 20.0625 3.5625 C21.02349609 3.79646484 21.98449219 4.03042969 22.97460938 4.27148438 C25.31767482 4.84267943 27.65936918 5.41892423 30 6 C29.22785156 6.75925781 28.45570312 7.51851563 27.66015625 8.30078125 C25.76312496 10.2256691 24.07494421 12.05939306 22.4375 14.1875 C19.31458658 17.79086164 17.73163251 18.77894053 13.0625 19.375 C9.11164641 18.89122201 7.82188725 17.79526567 5 15 C3.86290136 12.3608081 2.97497959 9.9816505 2.1875 7.25 C1.97158203 6.55261719 1.75566406 5.85523437 1.53320312 5.13671875 C1.00688399 3.42910557 0.50131045 1.7151217 0 0 Z " fill="#98CFEB" transform="translate(30,74)"/>
</svg>
