<svg width="50" height="24" viewBox="0 0 50 24" fill="none" xmlns="http://www.w3.org/2000/svg">
<path d="M0 18.3772H3.28605C3.28605 19.2778 3.61465 19.9959 4.27186 20.5314C4.92907 21.0426 5.81752 21.2981 6.93722 21.2981C8.15427 21.2981 9.0914 21.0669 9.74861 20.6044C10.4058 20.1176 10.7344 19.4726 10.7344 18.6693C10.7344 18.0851 10.5519 17.5983 10.1868 17.2088C9.84598 16.8194 9.21311 16.5029 8.28815 16.2595L5.14814 15.5293C3.56597 15.1398 2.38543 14.5435 1.60651 13.7402C0.851938 12.937 0.474652 11.8781 0.474652 10.5637C0.474652 9.46836 0.754574 8.51906 1.31442 7.7158C1.89861 6.91254 2.68969 6.29185 3.68768 5.85371C4.71 5.41557 5.87838 5.1965 7.1928 5.1965C8.50722 5.1965 9.63908 5.42774 10.5884 5.89022C11.562 6.3527 12.3166 6.99774 12.8521 7.82533C13.4119 8.65293 13.704 9.63875 13.7284 10.7828H10.4423C10.418 9.85782 10.1137 9.13975 9.52954 8.62859C8.94536 8.11743 8.12993 7.86185 7.08326 7.86185C6.01225 7.86185 5.18466 8.09309 4.60047 8.55557C4.01628 9.01805 3.72419 9.65092 3.72419 10.4542C3.72419 11.6469 4.60047 12.4623 6.35303 12.9005L9.49303 13.6672C11.0022 14.008 12.134 14.5678 12.8886 15.3467C13.6432 16.1013 14.0205 17.1358 14.0205 18.4502C14.0205 19.5699 13.7162 20.5557 13.1077 21.4077C12.4992 22.2353 11.6594 22.8803 10.5884 23.3428C9.54171 23.7809 8.30032 24 6.86419 24C4.77086 24 3.10349 23.4888 1.86209 22.4665C0.620698 21.4442 0 20.0811 0 18.3772Z" fill="black"/>
<path d="M16.4371 23.5619V5.70766C17.8056 6.20434 18.409 6.20434 19.8692 5.70766V23.5619H16.4371ZM18.1166 4.52744C17.5081 4.52744 16.9726 4.30838 16.5101 3.87024C16.0719 3.40775 15.8529 2.87225 15.8529 2.26372C15.8529 1.63085 16.0719 1.09535 16.5101 0.65721C16.9726 0.21907 17.5081 0 18.1166 0C18.7495 0 19.285 0.21907 19.7231 0.65721C20.1613 1.09535 20.3803 1.63085 20.3803 2.26372C20.3803 2.87225 20.1613 3.40775 19.7231 3.87024C19.285 4.30838 18.7495 4.52744 18.1166 4.52744Z" fill="black"/>
<path d="M25.9229 23.5619H22.4908V5.70766H25.5578V8.72015C25.9229 7.72217 26.6288 6.87603 27.6025 6.21882C28.6004 5.53727 29.8053 5.1965 31.2171 5.1965C32.7993 5.1965 34.1137 5.62247 35.1604 6.4744C36.207 7.32634 36.8886 8.4582 37.205 9.86999H36.5843C36.8277 8.4582 37.4971 7.32634 38.5925 6.4744C39.6878 5.62247 41.0388 5.1965 42.6453 5.1965C44.6899 5.1965 46.2964 5.79285 47.4648 6.98557C48.6332 8.17828 49.2174 9.80914 49.2174 11.8781V23.5619H45.8583V12.7179C45.8583 11.3061 45.4932 10.2229 44.7629 9.46836C44.0571 8.68944 43.0956 8.29999 41.8785 8.29999C41.0266 8.29999 40.272 8.49472 39.6148 8.88417C38.9819 9.24929 38.4829 9.78479 38.1178 10.4907C37.7527 11.1966 37.5701 12.0242 37.5701 12.9735V23.5619H34.1746V12.6814C34.1746 11.2696 33.8216 10.1986 33.1157 9.46836C32.4098 8.71379 31.4484 8.3365 30.2313 8.3365C29.3794 8.3365 28.6248 8.53123 27.9676 8.92068C27.3347 9.2858 26.8357 9.82131 26.4706 10.5272C26.1055 11.2087 25.9229 12.0242 25.9229 12.9735V23.5619Z" fill="black"/>
</svg>
