<svg width="816" height="392" viewBox="0 0 816 392" fill="none" xmlns="http://www.w3.org/2000/svg">
<g>
<path d="M0 297.507H54.6095C54.6095 312.642 60.0704 324.71 70.9923 333.709C81.9142 342.299 96.6789 346.594 115.287 346.594C135.512 346.594 151.086 342.707 162.008 334.936C172.93 326.754 178.391 315.915 178.391 302.415C178.391 292.598 175.357 284.417 169.289 277.871C163.627 271.326 153.109 266.009 137.737 261.918L85.5548 249.646C59.2614 243.101 39.6424 233.08 26.698 219.581C14.158 206.082 7.88803 188.287 7.88803 166.198C7.88803 147.79 12.5399 131.837 21.8438 118.338C31.5522 104.838 44.6988 94.4078 61.284 87.0447C78.2735 79.6816 97.6902 76 119.534 76C141.378 76 160.187 79.8861 175.964 87.6582C192.144 95.4304 204.684 106.271 213.584 120.179C222.888 134.086 227.742 150.654 228.146 169.88H173.536C173.132 154.335 168.076 142.267 158.368 133.678C148.659 125.087 135.108 120.792 117.714 120.792C99.9151 120.792 86.1615 124.678 76.4532 132.451C66.7449 140.223 61.8907 150.858 61.8907 164.357C61.8907 184.402 76.4532 198.105 105.579 205.468L157.76 218.354C182.841 224.08 201.651 233.489 214.191 246.579C226.73 259.26 233 276.644 233 298.734C233 317.55 227.943 334.118 217.831 348.435C207.718 362.343 193.762 373.183 175.964 380.955C158.57 388.318 137.939 392 114.073 392C79.2848 392 51.5756 383.409 30.9453 366.229C10.3151 349.048 0 326.141 0 297.507Z" fill="#F8F8F8"/>
<path d="M430.759 392H374L374 92H424.721V143.095C430.76 126.357 442.433 112.167 458.535 101.145C475.039 89.715 494.966 84 518.314 84C544.48 84 566.217 91.1437 583.527 105.431C600.837 119.719 612.108 138.701 617.342 162.378H607.076C611.102 138.701 622.172 119.719 640.287 105.431C658.401 91.1437 680.743 84 707.311 84C741.126 84 767.694 94.0013 787.017 114.004C806.339 134.006 816 161.357 816 196.056V392H760.448V210.139C760.448 186.462 754.41 168.297 742.333 155.643C730.66 142.579 714.758 136.048 694.631 136.048C680.542 136.048 668.062 139.314 657.194 145.845C646.728 151.968 638.475 160.949 632.437 172.787C626.398 184.625 623.38 198.505 623.38 214.425V392H567.223V209.527C567.223 185.85 561.387 167.888 549.713 155.643C538.039 142.988 522.138 136.66 502.01 136.66C487.921 136.66 475.442 139.926 464.574 146.457C454.108 152.58 445.855 161.562 439.817 173.4C433.778 184.83 430.759 198.505 430.759 214.425V392Z" fill="#F8F8F8"/>
<path d="M342 38C342 58.9868 324.987 76 304 76C283.013 76 266 58.9868 266 38C266 17.0132 283.013 0 304 0C324.987 0 342 17.0132 342 38Z" fill="#F8F8F8"/>
<path d="M332 392H276V92C284.5 95.9881 293.99 98.2178 304 98.2178C314.01 98.2178 323.5 95.9881 332 92V392Z" fill="#F8F8F8"/>
</g>
</svg>
