<svg width="449" height="219" viewBox="0 0 449 219" fill="none" xmlns="http://www.w3.org/2000/svg">
<path d="M0 167.567H29.9998C29.9998 175.805 32.9997 182.373 39.0003 187.272C45.0001 191.948 53.1114 194.285 63.3333 194.285C74.4444 194.285 82.9999 192.171 88.9997 187.939C94.9995 183.487 98.0002 177.586 98.0002 170.239C98.0002 164.895 96.3329 160.442 93.0001 156.88C89.8889 153.318 84.1108 150.422 75.6666 148.196L47.0003 141.517C32.5555 137.954 21.7781 132.499 14.6665 125.151C7.77746 117.804 4.33336 108.119 4.33336 96.0957C4.33336 86.076 6.88905 77.3925 11.9996 70.045C17.3335 62.6975 24.5555 57.0196 33.6664 53.0123C42.9999 49.0041 53.6668 47 65.6664 47C77.6668 47 88 49.1156 96.6667 53.3459C105.555 57.5762 112.444 63.477 117.333 71.0466C122.444 78.6171 125.111 87.6342 125.333 98.0989H95.3333C95.1107 89.6383 92.3334 83.0703 86.9995 78.3941C81.6664 73.7187 74.2219 71.381 64.6667 71.381C54.889 71.381 47.3333 73.4958 42.0002 77.7261C36.6663 81.9572 34.0002 87.7457 34.0002 95.0932C34.0002 106.003 42.0002 113.462 58.0002 117.47L86.6665 124.483C100.445 127.6 110.778 132.722 117.667 139.847C124.555 146.749 128 156.212 128 168.235C128 178.477 125.222 187.494 119.666 195.287C114.111 202.857 106.444 208.758 96.6667 212.989C87.1107 216.996 75.7779 219 62.6665 219C43.5554 219 28.3334 214.325 16.9997 204.973C5.66684 195.621 0 183.153 0 167.567Z" fill="white"/>
<path d="M149.291 215V52.0821C161.684 56.6143 167.148 56.6143 180.371 52.0821V215H149.291ZM164.5 41.3127C158.99 41.3127 154.14 39.3135 149.952 35.3159C145.984 31.0951 144 26.2087 144 20.6559C144 14.8816 145.984 9.99518 149.952 5.99676C154.14 1.9992 158.99 0 164.5 0C170.231 0 175.08 1.9992 179.049 5.99676C183.016 9.99518 185 14.8816 185 20.6559C185 26.2087 183.016 31.0951 179.049 35.3159C175.08 39.3135 170.231 41.3127 164.5 41.3127Z" fill="white"/>
<path d="M236.333 215H205V51.6764H233V79.2334C236.333 70.1043 242.778 62.3637 251.667 56.352C260.778 50.1173 271.778 47 284.667 47C299.111 47 311.112 50.8969 320.667 58.6898C330.222 66.4836 336.444 76.8372 339.334 89.7517H333.667C335.889 76.8372 342 66.4836 352 58.6898C362 50.8969 374.334 47 389 47C407.666 47 422.334 52.4551 433 63.3662C443.667 74.2765 449 89.1951 449 108.121V215H418.333V115.804C418.333 102.889 415 92.9805 408.333 86.0778C401.889 78.9521 393.111 75.3896 382 75.3896C374.223 75.3896 367.333 77.1709 361.334 80.7341C355.556 84.0736 351.001 88.9721 347.667 95.4298C344.333 101.887 342.667 109.457 342.667 118.141V215H311.667V115.469C311.667 102.555 308.445 92.7575 302 86.0778C295.556 79.175 286.778 75.7241 275.667 75.7241C267.889 75.7241 261 77.5053 255 81.0677C249.222 84.408 244.667 89.3066 241.333 95.7634C238 101.998 236.333 109.457 236.333 118.141V215Z" fill="white"/>
</svg>
