<svg width="1767" height="484" viewBox="0 0 1767 484" fill="none" xmlns="http://www.w3.org/2000/svg">
<g clip-path="url(#clip0_2171_569)">
<path d="M629.804 420.29C629.804 427.336 624.068 433.048 616.996 433.048H598.435C591.429 433.048 585.626 427.451 585.626 420.454C585.725 350.834 526.183 294.779 455.185 300.278C392.049 305.167 343.964 358.95 343.964 422.051V422.117C343.964 428.159 339.052 433.048 332.986 433.048H312.594C305.523 433.048 299.786 427.336 299.786 420.29V333.746C380.609 321.448 442.69 251.729 442.69 167.836C442.69 144.574 437.909 122.416 429.288 102.249C441.239 99.6316 453.635 98.2487 466.394 98.364C557.24 99.2365 629.755 174.322 629.755 264.85V420.29H629.771H629.804ZM372.565 126.548C377.263 123.371 383.741 125.461 385.571 130.828C389.478 142.467 391.604 154.896 391.604 167.836C391.604 219.529 357.745 263.484 310.962 278.876C305.457 280.687 299.802 276.489 299.802 270.727V262.776C299.802 206.145 328.716 156.131 372.565 126.581V126.548ZM471.669 47.5605C446.91 46.7867 423.04 50.1945 400.72 57.1087C368.658 20.8417 321.199 -1.62975 268.597 0.0988189C177.455 3.09501 105.781 78.9875 105.781 169.845V405.111C105.781 419.072 95.5273 431.32 81.6144 432.917C65.1135 434.777 51.1018 421.92 51.1018 405.852H0C0 450.614 37.9966 486.733 83.5431 483.835C125.051 481.201 156.882 445.873 156.882 404.436V169.466C156.882 106.628 206.023 53.7504 269.043 51.0341C300.495 49.6677 329.376 60.747 351.217 79.6954C289.73 117.691 248.701 185.55 248.701 262.776V484H395.066V421.574C395.066 384.747 423.37 353.336 460.262 351.015C500.748 348.447 534.524 380.533 534.524 420.339V484H680.89V265.031C680.89 148.41 588.643 51.2316 471.653 47.6098L471.686 47.5769L471.669 47.5605Z" fill="#3b3b3b"/>
<path d="M1207.68 258.463C1219.67 248.602 1236.46 243.169 1254.98 243.169C1256.63 243.169 1258.29 243.218 1259.97 243.301V190.192C1242.18 190.456 1218 195.082 1200.64 214.886C1198.96 216.812 1196.65 217.85 1194.18 217.85C1189.86 217.85 1185.4 214.59 1185.4 209.141V194.539H1136.34V432.62H1185.4V312.608C1185.4 288.869 1192.91 270.645 1207.7 258.463H1207.68Z" fill="#3b3b3b"/>
<path d="M1370.38 434.777C1379.65 434.777 1390.08 434.102 1401.42 432.801V389.143C1393.66 389.505 1386.74 389.818 1380.57 389.818C1366.15 389.818 1357.46 388.105 1351.51 384.072C1344.57 379.38 1341.34 371.396 1341.34 358.967V268.406C1341.34 253.573 1353.45 241.506 1368.34 241.506H1401.39V194.555H1341.32V146.27H1292.26V358.967C1292.26 412.124 1315.62 434.793 1370.35 434.793H1370.37L1370.38 434.777Z" fill="#3b3b3b"/>
<path d="M1491.84 194.538H1442.78V432.62H1491.84V194.538Z" fill="#3b3b3b"/>
<path d="M1467.31 98.0017C1449.79 98.0017 1435.53 112.209 1435.53 129.676C1435.53 147.143 1450.09 161.366 1467.31 161.366C1484.54 161.366 1499.09 146.863 1499.09 129.676C1499.09 112.489 1484.84 98.0017 1467.31 98.0017Z" fill="#3b3b3b"/>
<path d="M1710.84 288.441C1708.1 292.491 1703.55 294.927 1698.64 294.927H1591.18C1586.17 294.927 1581.55 292.409 1578.81 288.227C1576.09 284.029 1585.23 232.32 1646.56 232.32C1676.71 232.32 1701.26 248.141 1712.21 274.645C1714.09 279.206 1713.57 284.358 1710.84 288.458V288.441ZM1733.72 225.373C1711.63 201.436 1680.85 188.25 1647.04 188.25C1573.88 188.25 1520.77 240.946 1520.77 313.563C1520.77 386.179 1574.3 438.876 1650.92 438.876C1673.85 438.876 1694.63 434.234 1712.67 425.048C1729.53 416.471 1743.66 404.157 1754.69 388.402L1714.38 364.943C1701.03 383.381 1677.6 394.345 1651.41 394.345C1635.16 394.345 1620.67 391.069 1608.34 384.615C1595.58 377.932 1585.79 368.153 1579.23 355.559C1576.84 350.966 1577.02 345.583 1579.72 341.154C1582.42 336.759 1587.09 334.125 1592.28 334.125H1765.3C1766.19 327.82 1767.02 320.658 1767.02 314.024C1767.02 280.111 1755.2 248.618 1733.72 225.356H1733.73L1733.72 225.373Z" fill="#3b3b3b"/>
<path d="M868.005 237.588C868.005 187.245 908.49 145.661 958.257 144.92H959.658C984.104 144.92 1007.12 154.435 1024.46 171.705C1041.8 188.974 1051.34 211.906 1051.34 236.255V255.499C1051.34 273.608 1036.56 288.326 1018.39 288.326H900.957C882.791 288.326 868.005 273.592 868.005 255.499V237.604V237.588ZM898.814 335.211H1020.52C1037.51 335.211 1051.33 348.99 1051.33 365.914V432.62H1098.41V236.222C1098.41 160.016 1036.16 98.0017 959.658 98.0017H958.306C882.56 98.7261 820.925 161.531 820.925 238V432.604H868.005V365.897C868.005 348.974 881.835 335.195 898.814 335.195V335.211Z" fill="#3b3b3b"/>
</g>
<defs>
<clipPath id="clip0_2171_569">
<rect width="1767" height="484" fill="#3b3b3b"/>
</clipPath>
</defs>
</svg>
