<?xml version="1.0" standalone="no"?>
<!DOCTYPE svg PUBLIC "-//W3C//DTD SVG 20010904//EN"
 "http://www.w3.org/TR/2001/REC-SVG-20010904/DTD/svg10.dtd">
<svg version="1.0" xmlns="http://www.w3.org/2000/svg"
 width="993.000000pt" height="540.000000pt" viewBox="0 0 993.000000 540.000000"
 preserveAspectRatio="xMidYMid meet">
<metadata>
Created by potrace 1.16, written by Peter Selinger 2001-2019
</metadata>
<g transform="translate(0.000000,540.000000) scale(0.100000,-0.100000)"
fill="#3b3b3b" stroke="none">
<path d="M4520 3428 c-734 -963 -1337 -1755 -1338 -1759 -2 -5 183 -8 429 -7
l433 3 321 422 c176 232 322 422 325 422 3 0 150 -191 328 -424 l323 -425 435
0 434 0 -94 123 c-695 908 -985 1294 -981 1305 3 7 357 475 788 1040 431 565
786 1033 791 1040 6 9 -82 12 -426 12 l-433 -1 -1335 -1751z"/>
<path d="M1590 4563 c-232 -35 -403 -86 -563 -167 -419 -213 -693 -599 -768
-1081 -18 -116 -15 -380 5 -495 37 -214 116 -413 233 -588 71 -107 213 -255
321 -337 275 -206 653 -317 1032 -302 323 12 628 113 850 281 79 59 291 267
289 284 0 5 -437 339 -492 376 -9 6 -40 -19 -103 -81 -99 -98 -245 -201 -333
-233 -113 -43 -180 -53 -336 -53 -176 0 -258 17 -383 83 -141 73 -236 169
-306 308 -33 65 -76 209 -76 255 0 16 58 17 1080 17 l1080 0 0 180 c0 351 -49
599 -166 849 -128 273 -348 492 -605 603 -185 79 -342 109 -574 107 -88 -1
-171 -3 -185 -6z m337 -553 c124 -32 217 -83 298 -164 107 -107 160 -230 180
-413 l7 -63 -726 0 c-574 0 -726 3 -726 13 0 44 48 196 85 272 105 216 278
341 519 375 89 13 274 2 363 -20z"/>
<path d="M8009 4560 c-161 -25 -355 -94 -462 -162 -82 -54 -207 -176 -260
-256 l-42 -64 -3 211 -2 211 -340 0 -340 0 0 -2095 0 -2095 355 0 355 0 0 855
c0 470 3 855 8 855 4 0 33 -29 64 -64 331 -370 988 -476 1487 -240 275 130
501 357 636 638 246 516 207 1184 -97 1641 -69 104 -241 276 -343 344 -94 62
-233 131 -325 161 -150 50 -226 61 -435 65 -110 2 -225 0 -256 -5z m296 -655
c87 -24 210 -85 288 -145 93 -70 170 -167 227 -285 73 -150 85 -210 84 -400
-1 -144 -3 -169 -28 -250 -69 -229 -214 -403 -419 -507 -127 -63 -207 -81
-377 -81 -115 0 -161 5 -221 21 -246 66 -457 255 -548 491 -115 299 -62 656
133 893 117 142 312 251 501 282 62 9 300 -3 360 -19z"/>
<path d="M3187 4487 c22 -37 858 -1127 864 -1127 11 0 424 549 423 563 -1 7
-97 140 -215 295 l-214 282 -433 0 c-360 0 -432 -2 -425 -13z"/>
<path d="M3026 1108 c-13 -29 -89 -196 -170 -370 -80 -174 -146 -324 -146
-332 0 -13 13 -16 69 -16 l68 0 32 70 33 70 159 0 159 0 33 -67 32 -68 70 0
c60 0 70 2 67 17 -1 9 -78 181 -170 382 -148 324 -170 366 -190 366 -17 0 -27
-12 -46 -52z m97 -335 c26 -60 47 -111 47 -115 0 -5 -45 -8 -101 -8 -92 0
-101 2 -95 18 18 48 92 212 96 212 3 0 27 -48 53 -107z"/>
<path d="M905 1137 c-3 -6 -4 -176 -3 -377 l3 -365 64 -3 c45 -2 67 1 72 10 5
7 9 75 9 151 l0 137 55 0 55 0 75 -150 75 -150 75 0 c65 0 75 2 75 18 0 9 -33
78 -74 152 l-73 135 26 14 c43 22 92 74 112 116 24 52 24 138 0 190 -20 46
-79 101 -127 121 -46 19 -412 20 -419 1z m371 -136 c37 -22 59 -70 50 -107 -4
-15 -20 -39 -36 -55 -28 -28 -31 -29 -134 -29 l-106 0 0 105 0 105 98 0 c77 0
103 -4 128 -19z"/>
<path d="M1932 773 l3 -378 240 0 240 0 0 60 0 60 -172 3 -173 2 0 95 0 95
145 0 145 0 0 64 c0 49 -4 65 -16 70 -9 3 -74 6 -145 6 l-129 0 0 85 0 85 173
2 172 3 0 60 0 60 -243 3 -242 2 2 -377z"/>
<path d="M3750 770 l0 -380 218 2 217 3 0 60 0 60 -147 3 -148 3 0 314 0 315
-70 0 -70 0 0 -380z"/>
<path d="M4474 1136 c-3 -7 -4 -35 -2 -62 l3 -49 92 -3 93 -3 2 -312 3 -312
64 -3 c45 -2 67 1 72 10 5 7 9 149 9 315 l0 302 88 3 87 3 3 63 3 62 -256 0
c-208 0 -257 -3 -261 -14z"/>
<path d="M5340 1135 c0 -9 56 -98 125 -199 l125 -184 0 -181 0 -181 70 0 70 0
0 181 0 180 131 190 c86 124 128 194 122 200 -6 6 -41 9 -79 7 l-69 -3 -83
-120 c-45 -66 -86 -121 -90 -122 -4 -1 -45 54 -92 122 l-85 125 -72 0 c-59 0
-73 -3 -73 -15z"/>
</g>
</svg>
