<?xml version="1.0" standalone="no"?>
<!DOCTYPE svg PUBLIC "-//W3C//DTD SVG 20010904//EN"
 "http://www.w3.org/TR/2001/REC-SVG-20010904/DTD/svg10.dtd">
<svg version="1.0" xmlns="http://www.w3.org/2000/svg"
 width="800.000000pt" height="101.000000pt" viewBox="0 0 800.000000 101.000000"
 preserveAspectRatio="xMidYMid meet">
<metadata>
Created by potrace 1.16, written by Peter Selinger 2001-2019
</metadata>
<g transform="translate(0.000000,101.000000) scale(0.100000,-0.100000)"
fill="#3b3b3b" stroke="none">
<path d="M620 1005 c0 -12 495 -971 504 -977 6 -4 91 -8 188 -8 158 0 178 2
187 17 8 14 -41 118 -232 495 l-242 478 -202 0 c-112 0 -203 -2 -203 -5z"/>
<path d="M3430 385 l0 -375 65 0 c58 0 65 2 65 20 0 20 0 20 32 0 106 -64 269
-7 329 117 27 56 29 140 5 198 -52 123 -201 186 -315 135 -24 -11 -45 -20 -47
-20 -2 0 -4 68 -4 150 l0 150 -65 0 -65 0 0 -375z m324 -34 c102 -68 54 -221
-69 -221 -118 0 -165 138 -74 215 38 31 100 34 143 6z"/>
<path d="M4294 747 c-3 -8 -4 -158 -2 -333 3 -278 5 -323 20 -350 23 -42 76
-66 136 -62 l47 3 3 57 c3 55 2 58 -20 58 -48 0 -48 -2 -50 325 l-3 310 -63 3
c-47 2 -64 -1 -68 -11z"/>
<path d="M5140 385 l0 -375 65 0 65 0 0 139 c0 190 13 221 95 221 82 0 95 -31
95 -221 l0 -139 66 0 66 0 -4 178 c-3 167 -4 179 -28 221 -47 83 -154 114
-247 71 l-43 -19 0 149 0 150 -65 0 -65 0 0 -375z"/>
<path d="M6874 747 c-3 -8 -4 -158 -2 -333 3 -278 5 -323 20 -350 23 -42 76
-66 136 -62 l47 3 3 57 3 57 -33 3 -33 3 -5 315 -5 315 -63 3 c-46 2 -64 -1
-68 -11z"/>
<path d="M7550 385 l0 -375 65 0 65 0 0 139 c0 190 13 221 95 221 82 0 95 -31
95 -221 l0 -139 66 0 66 0 -4 178 c-3 167 -4 179 -28 221 -47 83 -158 115
-245 71 -22 -11 -41 -20 -42 -20 -2 0 -3 68 -3 150 l0 150 -65 0 -65 0 0 -375z"/>
<path d="M4046 719 c-30 -35 -32 -49 -11 -88 30 -59 123 -55 146 6 33 87 -75
154 -135 82z"/>
<path d="M270 664 c0 -17 313 -620 327 -631 12 -9 67 -13 189 -13 147 0 173 2
185 16 12 15 -6 55 -143 323 l-156 306 -201 3 c-111 1 -201 -1 -201 -4z"/>
<path d="M7190 570 l0 -80 -40 0 -40 0 0 -60 0 -60 40 0 40 0 0 -137 c0 -119
3 -142 20 -170 32 -53 58 -64 141 -61 l74 3 3 60 3 61 -39 -4 c-63 -6 -72 10
-72 139 l0 109 60 0 60 0 0 60 0 60 -60 0 -60 0 0 80 0 80 -65 0 -65 0 0 -80z"/>
<path d="M2985 487 c-61 -29 -127 -101 -143 -155 -38 -127 16 -253 133 -308
125 -59 273 -9 337 115 65 125 11 284 -117 346 -63 30 -150 31 -210 2z m163
-137 c67 -41 77 -133 21 -189 -49 -49 -119 -49 -168 0 -101 100 26 263 147
189z"/>
<path d="M2165 480 c-47 -24 -45 -24 -45 -5 0 12 -14 15 -65 15 l-65 0 0 -240
0 -240 64 0 65 0 3 161 c3 155 4 161 27 180 33 27 102 26 127 -2 17 -18 19
-40 22 -180 l3 -159 64 0 64 0 3 161 c3 155 4 161 27 180 33 27 102 26 127 -2
17 -18 19 -40 22 -180 l3 -159 65 0 64 0 0 158 c0 220 -17 270 -107 316 -61
31 -167 14 -219 -35 -21 -19 -21 -19 -40 2 -47 52 -138 65 -209 29z"/>
<path d="M4722 487 c-47 -15 -117 -80 -142 -132 -18 -38 -21 -59 -18 -119 4
-93 40 -156 112 -201 42 -26 61 -30 131 -33 91 -4 137 11 187 65 l27 28 -40
34 -41 34 -38 -22 c-44 -25 -118 -28 -159 -7 -22 12 -51 52 -51 71 0 3 82 5
181 5 l181 0 -7 58 c-13 109 -68 186 -154 217 -49 17 -120 18 -169 2z m147
-122 c26 -13 41 -33 41 -56 0 -5 -49 -9 -110 -9 -60 0 -110 3 -110 8 1 12 34
49 55 60 28 16 91 15 124 -3z"/>
<path d="M5842 488 c-47 -16 -117 -81 -142 -133 -18 -38 -21 -59 -18 -119 4
-93 40 -156 112 -201 42 -26 61 -30 131 -33 91 -4 137 11 187 65 l27 28 -40
34 -41 34 -38 -22 c-41 -23 -114 -28 -153 -10 -21 9 -57 56 -57 73 0 3 81 6
180 6 l180 0 0 33 c-1 148 -90 246 -228 253 -37 2 -82 -2 -100 -8z m160 -128
c14 -11 28 -29 31 -40 5 -19 1 -20 -109 -20 -110 0 -114 1 -104 19 32 60 130
82 182 41z"/>
<path d="M6406 485 c-60 -23 -99 -57 -131 -116 -24 -45 -29 -65 -28 -119 0
-107 50 -181 149 -227 63 -29 126 -29 184 0 40 21 40 21 40 2 0 -12 14 -15 65
-15 l65 0 0 240 0 240 -65 0 c-51 0 -65 -3 -65 -15 0 -19 0 -19 -41 2 -45 22
-125 26 -173 8z m162 -140 c43 -36 58 -77 43 -125 -22 -74 -99 -109 -175 -80
-56 21 -82 110 -51 170 32 62 129 81 183 35z"/>
<path d="M4040 250 l0 -240 65 0 65 0 0 240 0 240 -65 0 -65 0 0 -240z"/>
<path d="M115 372 c-47 -23 -89 -65 -104 -105 -28 -73 3 -166 72 -221 76 -61
202 -33 260 57 56 85 25 206 -64 256 -55 31 -116 36 -164 13z"/>
</g>
</svg>
