<?xml version="1.0" standalone="no"?>
<!DOCTYPE svg PUBLIC "-//W3C//DTD SVG 20010904//EN"
 "http://www.w3.org/TR/2001/REC-SVG-20010904/DTD/svg10.dtd">
<svg version="1.0" xmlns="http://www.w3.org/2000/svg"
 width="17285.000000pt" height="1613.000000pt" viewBox="0 0 17285.000000 1613.000000"
 preserveAspectRatio="xMidYMid meet">
<metadata>
Created by potrace 1.16, written by Peter Selinger 2001-2019
</metadata>
<g transform="translate(0.000000,1613.000000) scale(0.100000,-0.100000)"
fill="#3b3b3b" stroke="none">
<path d="M49295 16118 c-3 -7 -4 -1694 -3 -3748 l3 -3735 460 0 460 0 0 3745
0 3745 -458 3 c-361 2 -459 0 -462 -10z"/>
<path d="M7 15584 c-4 -4 -7 -1447 -7 -3206 l0 -3198 690 0 690 0 0 2625 0
2626 1363 -4 c1180 -3 1373 -6 1443 -19 463 -89 714 -311 802 -708 21 -94 23
-395 4 -485 -86 -396 -318 -619 -746 -717 -86 -20 -131 -21 -831 -28 -787 -8
-783 -7 -929 -59 -199 -70 -336 -228 -398 -456 -18 -70 -22 -114 -26 -362 l-4
-283 406 0 c544 0 658 -14 841 -104 109 -54 200 -121 280 -208 33 -35 371
-461 750 -946 l690 -882 838 0 c471 0 837 4 837 9 0 5 -421 543 -935 1197
-514 654 -935 1191 -935 1194 0 3 53 19 118 36 410 110 767 319 1000 584 293
335 436 744 436 1255 0 276 -30 471 -110 715 -98 298 -247 549 -459 769 -337
352 -779 558 -1366 638 -112 15 -324 17 -2279 20 -1186 2 -2159 1 -2163 -3z"/>
<path d="M9220 12385 l0 -3205 685 0 685 0 0 3205 0 3205 -685 0 -685 0 0
-3205z"/>
<path d="M12870 15581 c0 -5 686 -1446 1524 -3203 l1523 -3193 738 0 738 0
1523 3193 c838 1757 1524 3198 1524 3203 0 5 -290 8 -731 7 l-732 -3 -1161
-2478 -1161 -2478 -23 48 c-12 26 -535 1142 -1161 2478 l-1139 2430 -731 3
c-433 1 -731 -2 -731 -7z"/>
<path d="M22747 15583 c-4 -3 -7 -1446 -7 -3205 l0 -3198 690 0 690 0 -2 3203
-3 3202 -681 3 c-374 1 -684 -1 -687 -5z"/>
<path d="M29504 15518 c-68 -134 -3066 -6232 -3090 -6285 l-24 -53 733 0 734
0 214 447 c117 247 235 480 261 519 92 138 204 231 352 293 149 62 123 61
1497 61 687 0 1249 4 1249 8 0 13 -295 637 -332 702 -46 82 -109 159 -190 235
-85 78 -222 150 -358 186 -84 23 -92 23 -788 27 -387 1 -702 7 -700 11 13 36
1204 2501 1208 2501 3 0 547 -1123 1209 -2495 l1204 -2495 733 0 c404 0 734 1
734 3 0 1 -708 1442 -1573 3202 l-1573 3200 -732 3 -732 2 -36 -72z"/>
<path d="M36267 15583 c-4 -3 -7 -1446 -7 -3205 l0 -3198 670 0 670 0 2 2370
3 2370 1909 -2370 1909 -2370 788 0 789 0 0 3205 0 3205 -662 -2 -663 -3 -5
-2372 -5 -2373 -1914 2375 -1913 2375 -782 0 c-431 0 -786 -3 -789 -7z"/>
<path d="M55480 15583 c0 -5 488 -1448 1084 -3208 l1083 -3200 884 -3 c485 -1
887 2 891 6 9 9 2168 6381 2168 6400 0 9 -143 12 -684 12 l-684 0 -111 -332
c-60 -183 -437 -1321 -836 -2528 -399 -1207 -728 -2202 -732 -2210 -5 -13 -6
-13 -11 0 -4 8 -383 1151 -842 2540 l-836 2525 -687 3 c-378 1 -687 -1 -687
-5z"/>
<path d="M64884 15579 c-834 -62 -1318 -511 -1426 -1324 -10 -80 -13 -457 -13
-1875 0 -1418 3 -1795 13 -1875 52 -391 182 -685 402 -905 224 -227 521 -359
925 -412 145 -19 2335 -19 2480 0 403 53 693 181 920 407 237 235 376 565 414
985 15 154 15 3442 1 3595 -55 596 -308 1010 -756 1233 -147 74 -339 128 -569
163 -95 14 -2212 22 -2391 8z m2101 -1152 c160 -46 268 -131 328 -259 66 -139
62 -27 62 -1793 0 -1531 -1 -1613 -18 -1675 -56 -196 -194 -327 -392 -372 -88
-19 -1792 -19 -1880 0 -159 36 -285 132 -349 264 -64 135 -61 49 -61 1788 0
1735 -3 1654 60 1785 74 155 219 251 413 275 37 4 452 7 922 6 777 -2 860 -3
915 -19z"/>
<path d="M71315 15578 c-3 -7 -4 -1451 -3 -3208 l3 -3195 1983 -3 1982 -2 0
570 0 570 -1365 0 -1365 0 -2 2638 -3 2637 -613 3 c-485 2 -614 0 -617 -10z"/>
<path d="M77480 12380 l0 -3210 613 2 612 3 3 1343 2 1342 317 -2 318 -3 907
-1260 c499 -693 935 -1297 968 -1342 l60 -83 741 0 c407 0 739 4 737 8 -1 5
-540 734 -1196 1621 -657 886 -1192 1617 -1189 1624 3 7 532 719 1176 1582
644 864 1171 1573 1171 1578 0 4 -332 7 -739 7 l-739 0 -957 -1305 -957 -1305
-309 0 -309 0 -2 1303 -3 1302 -612 3 -613 2 0 -3210z"/>
<path d="M86038 15580 c-508 -38 -877 -251 -1077 -620 -54 -102 -116 -291
-143 -441 -22 -120 -23 -145 -23 -729 0 -658 2 -683 60 -885 39 -133 79 -223
147 -327 174 -264 461 -444 874 -547 45 -12 533 -100 1085 -196 552 -96 1036
-185 1074 -196 153 -45 261 -132 306 -247 22 -54 23 -72 27 -360 2 -200 0
-327 -8 -372 -31 -184 -148 -303 -328 -336 -111 -19 -1652 -20 -1763 0 -140
25 -236 95 -290 210 -39 84 -49 145 -49 307 l0 139 -616 0 -616 0 5 -322 c6
-342 12 -400 62 -582 146 -540 551 -844 1190 -896 172 -14 2218 -14 2391 0
636 52 1031 347 1187 890 60 206 62 239 62 925 0 567 -2 641 -18 735 -89 504
-371 819 -887 990 -169 56 -253 73 -1295 255 -522 91 -983 175 -1023 185 -198
54 -311 162 -341 324 -14 75 -14 529 -1 616 22 141 118 265 237 310 101 38
188 41 978 38 745 -3 761 -4 822 -25 118 -40 182 -93 233 -193 38 -74 42 -99
49 -260 l6 -155 613 -3 612 -2 0 259 c0 282 -13 421 -54 582 -118 464 -414
763 -871 878 -222 55 -200 55 -1400 57 -610 1 -1158 -2 -1217 -6z"/>
<path d="M91740 15585 c0 -17 1673 -6401 1679 -6408 4 -4 355 -6 781 -5 l774
3 620 2353 c418 1585 623 2348 628 2335 7 -16 1238 -4679 1238 -4689 0 -2 351
-4 780 -4 l779 0 10 38 c167 630 1661 6357 1661 6368 0 12 -90 14 -655 14
l-655 0 -9 -22 c-4 -13 -266 -1082 -582 -2376 -359 -1471 -577 -2346 -581
-2335 -4 10 -277 1075 -607 2366 -330 1291 -603 2352 -606 2358 -4 5 -304 9
-780 9 l-774 0 -14 -47 c-7 -27 -281 -1095 -608 -2375 -374 -1467 -597 -2321
-601 -2310 -5 9 -265 1070 -579 2357 -313 1287 -572 2348 -575 2358 -5 16 -45
17 -665 17 -362 0 -659 -2 -659 -5z"/>
<path d="M104255 15580 c-10 -16 -2165 -6384 -2165 -6398 0 -10 138 -12 672
-10 l671 3 43 130 c24 72 118 358 209 638 l167 507 1292 0 1291 0 199 -607
c109 -335 205 -623 212 -641 l13 -32 670 0 c369 0 671 3 671 8 0 4 -488 1447
-1084 3207 l-1084 3200 -885 3 c-565 1 -888 -1 -892 -8z m1345 -2618 c249
-756 450 -1375 448 -1378 -3 -2 -412 -3 -910 -2 l-905 3 448 1360 c246 748
450 1369 453 1380 3 10 7 17 10 14 3 -2 208 -622 456 -1377z"/>
<path d="M111784 15579 c-434 -32 -777 -172 -1019 -414 -238 -237 -376 -567
-415 -990 -14 -153 -14 -3441 1 -3595 38 -420 177 -750 414 -985 227 -226 517
-354 920 -407 145 -19 2335 -19 2480 0 404 53 701 185 925 412 211 212 335
482 397 863 15 89 17 234 20 1155 l4 1052 -1171 0 -1170 0 0 -570 0 -570 556
0 556 0 -5 -382 c-5 -417 -7 -437 -63 -556 -63 -132 -190 -228 -349 -264 -88
-19 -1792 -19 -1880 0 -198 45 -336 176 -392 372 -17 62 -18 144 -18 1675 0
1766 -4 1654 62 1793 61 130 171 215 333 259 60 17 135 18 955 18 819 0 895
-1 955 -18 199 -54 324 -178 375 -372 9 -33 19 -120 22 -192 l6 -133 615 0
615 0 -6 233 c-8 312 -35 487 -107 692 -122 345 -344 599 -654 751 -171 83
-331 129 -571 165 -96 14 -2213 22 -2391 8z"/>
<path d="M118215 15578 c-3 -7 -4 -1451 -3 -3208 l3 -3195 2240 0 2240 0 3
568 2 567 -1625 0 -1625 0 0 770 0 770 1420 0 1420 0 0 570 0 570 -1420 0
-1420 0 0 730 0 730 1625 0 1625 0 -2 568 -3 567 -2238 3 c-1785 2 -2239 0
-2242 -10z"/>
<path d="M125475 15578 c-3 -7 -4 -1451 -3 -3208 l3 -3195 615 0 615 0 5 2158
5 2158 1364 -2128 c750 -1170 1375 -2143 1388 -2161 l24 -32 662 2 662 3 0
3205 0 3205 -615 0 -615 0 -5 -2160 -5 -2159 -1385 2159 -1385 2160 -663 3
c-525 2 -664 0 -667 -10z"/>
<path d="M138280 15580 c-745 -53 -1221 -424 -1385 -1080 -63 -250 -60 -149
-60 -2110 0 -1427 3 -1805 13 -1885 52 -390 183 -685 402 -905 217 -220 486
-343 882 -407 90 -14 239 -17 1183 -20 1274 -5 1357 -1 1633 72 513 136 845
472 982 989 65 248 64 216 67 1379 l4 1057 -1171 0 -1170 0 2 -567 3 -568 553
-3 554 -2 -5 -388 c-4 -426 -7 -446 -70 -567 -63 -120 -193 -213 -342 -247
-88 -19 -1792 -19 -1880 0 -153 35 -284 131 -344 254 -71 145 -66 14 -66 1798
0 1503 1 1609 18 1670 54 201 176 323 377 377 60 17 136 18 955 18 820 0 895
-1 955 -18 197 -53 324 -176 375 -362 8 -33 19 -122 22 -197 l6 -138 613 0
614 0 0 168 c0 577 -134 977 -425 1267 -220 220 -498 344 -910 406 -95 14
-2198 22 -2385 9z"/>
<path d="M144705 15578 c-3 -7 -4 -1451 -3 -3208 l3 -3195 615 0 615 0 3 1128
2 1127 503 0 502 -1 795 -1129 795 -1130 722 0 c398 0 723 2 723 5 0 2 -360
510 -800 1129 -440 619 -801 1131 -802 1137 -2 8 28 17 86 25 105 16 286 63
374 98 440 173 725 524 831 1021 43 200 46 263 46 935 0 570 -2 659 -18 764
-73 484 -262 813 -595 1038 -182 123 -411 203 -717 249 -121 19 -3673 25
-3680 7z m3383 -1151 c107 -29 172 -66 242 -136 72 -73 110 -142 137 -248 16
-60 18 -124 18 -533 0 -411 -2 -473 -18 -534 -51 -199 -179 -329 -379 -383
-57 -15 -162 -17 -1105 -20 l-1043 -4 0 941 0 941 1043 -4 c944 -3 1048 -5
1105 -20z"/>
<path d="M153780 15584 c-295 -19 -553 -81 -754 -183 -350 -179 -582 -480
-686 -894 -62 -245 -60 -187 -60 -2127 0 -1920 -1 -1872 55 -2107 69 -290 194
-515 388 -701 213 -203 482 -323 853 -379 109 -17 211 -18 1274 -18 1211 0
1219 0 1440 45 449 91 786 340 976 718 79 158 139 380 164 597 13 123 13 3567
0 3690 -79 703 -449 1148 -1085 1301 -242 58 -225 57 -1415 59 -602 1 -1120 0
-1150 -1z m2038 -1157 c200 -54 335 -194 377 -392 22 -105 22 -3205 0 -3310
-42 -198 -172 -334 -375 -392 -61 -17 -122 -18 -960 -18 -820 0 -900 1 -958
17 -200 56 -322 178 -372 374 -20 75 -20 116 -20 1668 0 1358 2 1601 15 1660
49 232 208 372 459 406 33 4 446 7 916 6 764 -2 862 -4 918 -19z"/>
<path d="M160134 15577 c-2 -7 -3 -1140 -1 -2517 3 -2781 -2 -2562 68 -2830
135 -513 470 -849 981 -985 275 -73 364 -77 1588 -72 1122 4 1104 3 1345 61
538 130 887 475 1025 1012 69 268 65 75 65 2844 l0 2495 -612 3 -613 2 0
-2337 c0 -1387 -4 -2377 -10 -2435 -26 -263 -153 -421 -390 -485 -60 -17 -134
-18 -905 -18 -922 0 -901 -1 -1032 61 -126 60 -214 168 -259 319 -18 57 -19
176 -21 2478 l-3 2417 -610 0 c-485 0 -612 -3 -616 -13z"/>
<path d="M167930 12380 l0 -3210 615 0 615 0 0 1040 0 1039 1153 4 c1259 3
1215 1 1462 63 627 158 993 613 1065 1323 13 135 13 1414 0 1552 -72 729 -447
1186 -1099 1338 -242 57 -160 55 -2058 58 l-1753 4 0 -3211z m3295 2047 c161
-47 270 -132 331 -260 62 -131 66 -176 62 -795 l-3 -547 -27 -77 c-59 -177
-168 -280 -355 -335 -53 -16 -143 -18 -1065 -21 l-1008 -3 0 1031 0 1031 1003
-3 c916 -3 1007 -5 1062 -21z"/>
<path d="M20423 4720 c-620 -49 -1117 -310 -1476 -778 -209 -271 -360 -655
-421 -1067 -44 -295 -47 -763 -8 -1020 72 -463 217 -815 459 -1115 72 -89 243
-257 328 -321 380 -290 822 -424 1345 -406 357 13 623 76 890 212 154 79 267
162 395 290 210 211 361 466 473 801 22 66 42 131 44 145 3 23 -10 28 -427
161 -236 75 -437 137 -446 137 -12 1 -22 -22 -39 -87 -140 -538 -464 -841
-930 -868 -241 -15 -497 56 -670 185 -335 251 -479 626 -497 1296 -21 839 176
1310 647 1545 271 136 676 137 943 4 234 -117 416 -342 483 -597 14 -51 22
-66 34 -62 8 2 206 49 440 105 234 55 433 104 442 108 15 6 13 19 -26 132
-101 298 -232 521 -407 692 -272 267 -611 429 -1019 488 -162 23 -403 32 -557
20z"/>
<path d="M49530 4720 c-424 -30 -781 -141 -1061 -329 -285 -191 -538 -486
-694 -806 -120 -246 -180 -465 -227 -825 -17 -130 -17 -673 0 -810 83 -665
353 -1175 804 -1516 281 -211 585 -334 980 -396 192 -29 608 -32 793 -5 488
72 861 247 1174 551 356 347 560 790 633 1376 21 166 17 683 -5 845 -70 498
-224 875 -482 1184 -340 406 -786 642 -1355 715 -147 19 -412 27 -560 16z
m460 -806 c244 -38 458 -150 632 -332 198 -208 306 -463 352 -838 60 -482 0
-971 -157 -1289 -103 -210 -282 -398 -487 -513 -310 -173 -776 -187 -1105 -33
-302 141 -534 411 -645 750 -68 210 -94 404 -95 711 0 316 24 502 95 725 195
611 731 922 1410 819z"/>
<path d="M68540 4719 c-479 -34 -876 -177 -1181 -425 -91 -74 -282 -273 -352
-366 -270 -361 -408 -767 -447 -1318 -38 -552 44 -1066 235 -1465 151 -315
388 -586 688 -788 94 -64 329 -178 442 -216 237 -79 468 -119 750 -128 690
-22 1250 175 1663 586 272 270 453 599 553 1006 104 426 112 984 18 1436 -89
432 -279 798 -560 1079 -328 328 -741 524 -1234 584 -160 20 -421 27 -575 15z
m471 -805 c373 -60 687 -298 844 -637 103 -223 151 -463 162 -807 16 -515 -83
-924 -291 -1201 -241 -320 -609 -488 -1021 -466 -326 18 -573 125 -790 342
-283 282 -408 664 -407 1235 1 493 96 849 298 1111 109 142 298 286 467 355
206 83 485 110 738 68z"/>
<path d="M78672 4719 c-427 -27 -780 -139 -1087 -344 -252 -169 -472 -399
-620 -649 -428 -724 -458 -1750 -76 -2551 32 -66 77 -151 101 -190 203 -332
511 -600 877 -763 570 -255 1321 -280 1988 -66 376 121 746 312 965 499 l70
60 -3 910 -2 910 -990 0 -990 0 0 -385 0 -385 523 -3 522 -2 0 -289 0 -290
-87 -58 c-372 -249 -800 -360 -1183 -308 -517 69 -888 413 -1030 953 -46 175
-62 307 -67 570 -6 276 3 408 41 587 113 530 448 878 943 979 275 57 617 28
819 -68 229 -109 402 -295 492 -527 32 -84 40 -97 57 -93 11 2 216 40 455 85
239 45 436 82 437 83 5 4 -46 182 -72 256 -40 109 -118 261 -188 365 -80 118
-274 312 -393 392 -286 194 -624 295 -1085 323 -181 11 -236 11 -417 -1z"/>
<path d="M104460 4724 c-516 -30 -913 -183 -1169 -449 -221 -231 -334 -512
-334 -830 1 -330 116 -607 353 -846 143 -145 306 -246 550 -342 178 -70 318
-112 675 -203 182 -47 400 -105 485 -130 288 -83 443 -181 512 -322 30 -60 33
-77 36 -172 3 -88 0 -116 -18 -170 -31 -93 -79 -166 -157 -241 -160 -154 -337
-215 -648 -225 -357 -12 -576 58 -766 246 -132 130 -212 284 -265 509 l-27
113 -46 -5 c-25 -3 -227 -22 -449 -43 l-403 -39 6 -50 c26 -203 100 -461 180
-630 132 -276 352 -513 611 -655 161 -90 415 -169 654 -205 168 -26 589 -32
782 -11 648 68 1051 295 1302 731 59 104 119 263 147 395 30 139 32 404 5 555
-51 280 -167 498 -365 688 -240 230 -536 353 -1311 547 -517 130 -733 214
-851 330 -87 86 -113 150 -107 265 7 119 49 195 150 265 167 118 393 169 688
157 393 -17 601 -147 710 -445 15 -42 34 -105 40 -140 7 -34 16 -64 19 -67 4
-2 198 5 432 15 233 11 439 20 457 20 l33 0 -6 73 c-51 595 -387 1023 -940
1200 -141 45 -275 74 -428 91 -129 15 -427 26 -537 20z"/>
<path d="M5 4637 c-3 -6 -4 -181 -3 -387 l3 -375 678 -3 677 -2 0 -1890 0
-1890 460 0 460 0 0 1890 0 1890 673 2 672 3 3 388 2 387 -1810 0 c-1442 0
-1812 -3 -1815 -13z"/>
<path d="M9310 2370 l0 -2280 1735 0 1735 0 0 385 0 385 -1270 0 -1270 0 0
620 0 620 1140 0 1140 0 0 385 0 385 -1140 0 -1140 0 0 500 0 500 1225 0 1225
0 0 390 0 390 -1690 0 -1690 0 0 -2280z"/>
<path d="M28340 2370 l0 -2280 465 0 465 0 0 995 0 995 895 0 895 0 0 -995 0
-995 465 0 465 0 0 2280 0 2280 -462 -2 -463 -3 -3 -892 -2 -893 -895 0 -895
0 -2 893 -3 892 -462 3 -463 2 0 -2280z"/>
<path d="M38040 2370 l0 -2280 425 0 425 0 2 1481 3 1482 915 -1481 915 -1481
463 -1 462 0 0 2280 0 2280 -425 0 -425 0 0 -1517 c0 -1275 -2 -1515 -14
-1503 -7 8 -419 679 -916 1490 -497 811 -912 1487 -922 1503 l-19 27 -445 0
-444 0 0 -2280z"/>
<path d="M86800 2370 l0 -2280 460 0 460 0 0 2280 0 2280 -460 0 -460 0 0
-2280z"/>
<path d="M93687 4643 c-4 -3 -7 -1029 -7 -2280 l0 -2273 1735 0 1735 0 0 385
0 385 -1270 0 -1270 0 0 620 0 620 1145 0 1145 0 -2 383 -3 382 -1142 3 -1143
2 0 500 0 500 1228 2 1227 3 3 388 2 387 -1688 0 c-929 0 -1692 -3 -1695 -7z"/>
<path d="M57780 2350 l0 -2260 1605 0 1605 0 0 385 0 385 -1140 0 -1140 0 0
1875 0 1875 -465 0 -465 0 0 -2260z"/>
</g>
</svg>
