<?xml version="1.0" encoding="UTF-8" standalone="no"?>
<!-- Created with Inkscape (http://www.inkscape.org/) by Marsupilami -->
<svg
   xmlns:svg="http://www.w3.org/2000/svg"
   xmlns="http://www.w3.org/2000/svg"
   version="1.0"
   width="1024"
   height="239"
   viewBox="0 0 117.5275 27.379999"
   id="svg2818">
  <defs
     id="defs2820" />
  <g
     transform="translate(-316.23625,-518.67218)"
     id="layer1">
    <path
       d="M 77.03125,0 C 76.818749,0.08125 75.13,0.29125 73.90625,0.375 L 73.90625,0.9375 C 74.151248,0.93750001 74.46875,1 74.46875,1 C 74.859998,1.01625 75.03125,1.15125 75.03125,1.59375 L 75.03125,10.34375 C 75.031248,11.23125 74.83625,11.26125 74.25,11.34375 L 73.875,11.40625 L 73.875,11.96875 C 74.5125,11.9525 77.875,11.9525 78.1875,11.96875 L 78.1875,11.40625 L 77.8125,11.34375 C 77.222497,11.26125 77.03125,11.1975 77.03125,10.34375 L 77.03125,0 z M 81.625,0 C 81.412503,0.08125 79.7225,0.29125 78.5,0.375 L 78.5,0.9375 C 78.745002,0.93750001 79.0625,1 79.0625,1 C 79.453752,1.01625 79.625,1.15125 79.625,1.59375 L 79.625,10.34375 C 79.625002,11.23125 79.43125,11.26125 78.84375,11.34375 L 78.46875,11.40625 L 78.46875,11.96875 C 79.105003,11.9525 82.4725,11.9525 82.78125,11.96875 L 82.78125,11.40625 L 82.40625,11.34375 C 81.818751,11.26125 81.625,11.1975 81.625,10.34375 L 81.625,0 z M 0,0.34375 L 0,27.21875 L 6.71875,27.21875 L 11.875,18.125 L 9.40625,13.84375 L 3.03125,25.1875 L 2.03125,25.1875 L 2.03125,2.40625 L 26.375,2.40625 L 26.375,25.1875 L 25.34375,25.1875 L 23.84375,22.21875 L 20.96875,27.21875 L 28.4375,27.21875 L 28.4375,0.34375 L 0,0.34375 z M 31.96875,0.34375 L 31.96875,0.9375 L 32.4375,1 C 33.10625,1.04875 33.25,1.125 33.25,2.09375 L 33.25,10.21875 C 33.25,11.1875 33.10625,11.26375 32.4375,11.3125 L 31.96875,11.34375 L 31.96875,11.96875 C 33.01375,11.9525 36.165,11.9525 36.6875,11.96875 L 36.6875,11.34375 L 36.125,11.3125 C 35.4575,11.26375 35.375,11.20375 35.375,10.21875 L 35.375,6.4375 C 35.8325,6.4374998 35.99,6.56125 36.59375,7.5625 L 38.15625,10.21875 C 38.36875,10.5975 39.15,11.705 39.28125,11.96875 C 39.558749,11.9525 42.21125,11.9525 42.40625,11.96875 L 42.40625,11.34375 L 42.15625,11.3125 C 41.552501,11.23125 41.32625,11.28625 40.65625,10.21875 L 38.96875,7.5625 C 38.3975,6.6762498 38.29625,6.4825 37.90625,6.1875 C 39.047498,6.05625 40.96875,5.32625 40.96875,3.40625 C 40.968748,1.35375 38.98625,0.34375 36.375,0.34375 C 35.706251,0.34374999 33.01375,0.36 31.96875,0.34375 z M 36.375,1.125 C 37.697498,1.125 38.65625,1.91375 38.65625,3.375 C 38.656252,4.835 37.8875,5.75 36.125,5.75 C 35.912501,5.7499999 35.62,5.7375 35.375,5.6875 L 35.375,2.09375 C 35.375,1.8475 35.38625,1.4925 35.5,1.3125 C 35.631249,1.13125 35.9675,1.125 36.375,1.125 z M 69.625,3.34375 C 67.2825,3.34375 65.687499,5.6712502 65.6875,7.6875 C 65.6875,9.9225 66.957502,12.15625 69.75,12.15625 C 71.68125,12.15625 72.448748,11.40125 73.15625,10.65625 L 72.5625,10.1875 C 72.3925,10.34875 72.226249,10.5175 72.0625,10.65625 C 71.89375,10.80125 71.7225,10.92375 71.53125,11.03125 C 71.15125,11.2475 70.719997,11.375 70.09375,11.375 C 68.33125,11.375 67.750003,9.02375 67.75,7.59375 L 73.375,7.59375 C 73.36375,5.3375 72.208746,3.34375 69.625,3.34375 z M 54.75,3.375 C 53.06,3.375 51.468751,4.4074998 51.46875,5.875 C 51.46875,7.545 52.587501,8.0350001 53.96875,8.4375 L 54.84375,8.6875 C 55.4325,8.87375 56.000002,9.2899999 56,10.09375 C 56,10.9675 55.3225,11.5625 54.3125,11.5625 C 52.845,11.5625 52.136249,10.76625 52.125,9.625 L 51.59375,9.625 L 51.6875,11.6875 C 52.51125,11.99875 53.376248,12.15625 54.28125,12.15625 C 56.5375,12.15625 57.84375,11.06 57.84375,9.40625 C 57.84375,7.83875 56.5925,7.3687501 55.375,7 L 54.3125,6.65625 C 53.6525,6.45125 53.312501,6.0412501 53.3125,5.375 C 53.3125,4.57125 53.92,3.9374999 54.75,3.9375 C 55.83625,3.9375 56.73625,4.6062501 56.75,5.8125 L 57.28125,5.8125 L 57.15625,3.84375 C 56.81625,3.69125 56.0725,3.3750001 54.75,3.375 z M 61.90625,3.375 C 60.215,3.375 58.656248,4.4074998 58.65625,5.875 C 58.65625,7.545 59.745,8.0350001 61.125,8.4375 L 62.03125,8.6875 C 62.62,8.87375 63.187499,9.2899999 63.1875,10.09375 C 63.1875,10.9675 62.4775,11.5625 61.46875,11.5625 C 60,11.5625 59.293751,10.76625 59.28125,9.625 L 58.75,9.625 L 58.84375,11.6875 C 59.6675,11.99875 60.529998,12.15625 61.4375,12.15625 C 63.69125,12.15625 65.000001,11.06 65,9.40625 C 65,7.83875 63.747502,7.3687501 62.53125,7 L 61.46875,6.65625 C 60.80875,6.45125 60.468749,6.0412501 60.46875,5.375 C 60.46875,4.57125 61.076252,3.9374999 61.90625,3.9375 C 62.99125,3.9375 63.893749,4.6062501 63.90625,5.8125 L 64.4375,5.8125 L 64.34375,3.84375 C 64.00375,3.69125 63.228752,3.3750001 61.90625,3.375 z M 45.09375,3.40625 C 44.4175,3.49125 43.034998,3.69875 41.8125,3.78125 L 41.8125,4.3125 C 42.0675,4.315 42.468749,4.3437498 42.46875,4.34375 C 42.89625,4.395 43.062501,4.5325 43.0625,5 L 43.0625,9.84375 C 43.0625,10.8875 43.55625,12.15625 45.5,12.15625 C 46.91375,12.15625 47.496252,11.14625 47.8125,10.59375 L 47.875,10.53125 L 48,12.03125 C 48.44875,12.01375 50.81875,12.01625 51.03125,12.03125 L 51.03125,11.5 L 50.59375,11.4375 C 49.98375,11.3525 49.781249,11.26 49.78125,10.40625 C 49.78125,10.40625 49.770001,3.5962501 49.78125,3.40625 C 49.7775,3.44625 48.596252,3.5625001 47.78125,3.65625 L 47.78125,8.875 C 47.78125,10.08875 47.0275,11.09375 46.15625,11.09375 C 45.26125,11.09375 45.03125,10.32625 45.03125,9.125 L 45.03125,5.1875 C 45.03125,4.6125 45.08125,3.6050001 45.09375,3.40625 z M 69.59375,4.03125 C 70.68375,4.03125 71.226253,5.2212498 71.3125,6.90625 L 67.71875,6.875 C 67.77,5.4025 68.383747,4.0312498 69.59375,4.03125 z M 17.5625,10.78125 L 8.15625,27.21875 L 13.09375,27.21875 L 19.9375,15.1875 L 17.5625,10.78125 z M 71.75,15.5 L 69.78125,17.5 L 69.78125,25.53125 C 69.78125,26.85 70.557496,27.375001 71.8125,27.375 C 72.32375,27.375 72.687499,27.297501 73,27.125 C 73.155,27.03875 73.278748,26.932501 73.4375,26.8125 C 73.5875,26.69375 73.755,26.551249 73.9375,26.40625 L 73.46875,25.96875 C 73.34,26.0775 73.1775,26.2425 73,26.375 C 72.81375,26.515 72.610001,26.625 72.40625,26.625 C 71.9125,26.625 71.749996,26.253751 71.75,25.5 L 71.75,19.65625 L 73.5625,19.65625 L 73.5625,18.90625 L 71.75,18.90625 L 71.75,15.5 z M 108.53125,15.5 L 106.5625,17.5 L 106.5625,25.53125 C 106.5625,26.85 107.33875,27.375001 108.59375,27.375 C 109.10625,27.375 109.46875,27.297501 109.78125,27.125 C 109.935,27.03875 110.06,26.932501 110.21875,26.8125 C 110.37,26.69375 110.53875,26.551249 110.71875,26.40625 L 110.25,25.96875 C 110.12,26.0775 109.96,26.2425 109.78125,26.375 C 109.5975,26.515 109.39125,26.625 109.1875,26.625 C 108.695,26.625 108.53125,26.253751 108.53125,25.5 L 108.53125,19.65625 L 110.34375,19.65625 L 110.34375,18.90625 L 108.53125,18.90625 L 108.53125,15.5 z M 32.0625,15.5625 L 32.0625,16.1875 L 32.40625,16.21875 C 33.076249,16.3 33.25,16.31125 33.25,17.3125 L 33.25,25.4375 C 33.249999,26.39 33.07625,26.48 32.40625,26.53125 L 32.0625,26.5625 L 32.0625,27.1875 C 32.716249,27.170001 36.205,27.17 36.53125,27.1875 L 36.53125,26.5625 L 36.1875,26.53125 C 35.518749,26.479999 35.34375,26.39 35.34375,25.4375 L 35.34375,17.3125 C 35.343749,16.311249 35.51875,16.3 36.1875,16.21875 L 36.53125,16.1875 L 36.53125,15.5625 C 35.8775,15.58 32.71625,15.58 32.0625,15.5625 z M 20.6875,16.46875 L 14.59375,27.21875 L 19.46875,27.21875 L 23.0625,20.8125 L 20.6875,16.46875 z M 42.78125,18.53125 C 41.35,18.53125 40.721249,19.542501 40.40625,20.09375 L 40.375,20.15625 L 40.28125,18.5625 C 39.95875,18.65375 38.410001,18.856251 37.21875,18.9375 L 37.21875,19.46875 C 37.47375,19.47125 37.874999,19.53125 37.875,19.53125 C 38.30375,19.58125 38.468752,19.687499 38.46875,20.15625 L 38.46875,25.5625 C 38.46875,26.44625 38.306248,26.5425 37.65625,26.59375 L 37.21875,26.65625 L 37.21875,27.1875 C 37.86875,27.1725 41.40625,27.172499 41.71875,27.1875 L 41.71875,26.65625 L 41.28125,26.59375 C 40.63125,26.5425 40.437499,26.43 40.4375,25.5625 L 40.4375,21.8125 C 40.4375,20.59875 41.286248,19.562499 42.15625,19.5625 C 43.05,19.5625 43.312498,20.3275 43.3125,21.53125 L 43.3125,24.875 C 43.3125,25.38875 43.298748,26.341251 43.25,27.1875 C 43.47875,27.185 46.317502,27.185001 46.53125,27.1875 L 46.53125,26.65625 L 46.09375,26.59375 C 45.445,26.5425 45.281251,26.43 45.28125,25.5625 L 45.28125,20.84375 C 45.28125,19.80125 44.643752,18.53125 42.78125,18.53125 z M 57.8125,18.53125 C 55.46875,18.53125 53.874999,20.828751 53.875,22.84375 C 53.875,25.07875 55.146251,27.312499 57.9375,27.3125 C 59.87125,27.3125 60.636249,26.55625 61.34375,25.8125 L 60.75,25.375 C 60.5825,25.5375 60.415,25.675 60.25,25.8125 C 60.0825,25.9575 59.90875,26.08 59.71875,26.1875 C 59.3375,26.4025 58.878752,26.53125 58.25,26.53125 C 56.48875,26.53125 55.906249,24.180001 55.90625,22.75 L 61.5625,22.75 C 61.5525,20.49375 60.393751,18.53125 57.8125,18.53125 z M 65.65625,18.53125 C 63.96375,18.53125 62.375,19.56375 62.375,21.03125 C 62.375,22.70125 63.462503,23.19375 64.84375,23.59375 L 65.75,23.84375 C 66.33875,24.03125 66.90625,24.47625 66.90625,25.28125 C 66.90625,26.155 66.197499,26.750001 65.1875,26.75 C 63.7225,26.75 63.011252,25.92375 63,24.78125 L 62.46875,24.78125 L 62.59375,26.84375 C 63.41625,27.15625 64.25125,27.312499 65.15625,27.3125 C 67.4125,27.3125 68.750001,26.21375 68.75,24.5625 C 68.75,22.995 67.498752,22.52625 66.28125,22.15625 L 65.21875,21.84375 C 64.55875,21.64 64.187501,21.196251 64.1875,20.53125 C 64.1875,19.7275 64.825001,19.125 65.65625,19.125 C 66.74,19.125 67.611252,19.765 67.625,20.96875 L 68.15625,20.96875 L 68.0625,19 C 67.725,18.8475 66.976251,18.53125 65.65625,18.53125 z M 79.9375,18.53125 C 78.52375,18.53125 77.938753,19.542501 77.625,20.09375 L 77.59375,20.15625 L 77.46875,18.5625 C 77.14625,18.65375 75.597502,18.856251 74.40625,18.9375 L 74.40625,19.46875 C 74.66125,19.47125 75.093749,19.53125 75.09375,19.53125 C 75.52,19.58125 75.687501,19.687499 75.6875,20.15625 L 75.6875,25.5625 C 75.6875,26.44625 75.522497,26.5425 74.875,26.59375 L 74.40625,26.65625 L 74.40625,27.1875 C 75.05375,27.1725 78.4075,27.172499 78.71875,27.1875 L 78.71875,26.65625 L 78.34375,26.59375 C 77.7725,26.5425 77.656246,26.425 77.65625,25.5625 L 77.65625,21.8125 C 77.65625,20.6 78.441252,19.562499 79.3125,19.5625 C 80.205,19.5625 80.499997,20.3275 80.5,21.53125 L 80.5,25.5625 C 80.5,26.4275 80.348749,26.5425 79.8125,26.59375 L 79.4375,26.65625 L 79.4375,27.1875 C 80.08625,27.1725 83.438746,27.172499 83.75,27.1875 L 83.75,26.65625 L 83.3125,26.59375 C 82.66375,26.5425 82.500003,26.43 82.5,25.5625 L 82.5,21.375 C 82.5,20.33875 83.376246,19.562499 84.125,19.5625 C 85.01875,19.5625 85.281251,20.33 85.28125,21.53125 L 85.28125,24.875 C 85.28125,25.38875 85.265002,26.341251 85.21875,27.1875 C 85.445,27.185 88.285003,27.185001 88.5,27.1875 L 88.5,26.65625 L 88.0625,26.59375 C 87.41125,26.5425 87.250004,26.43 87.25,25.5625 L 87.25,20.84375 C 87.25,19.80125 86.641252,18.53125 84.78125,18.53125 C 83.35,18.53125 82.752499,19.509999 82.4375,20.0625 L 82.40625,20.125 L 82.375,20.0625 C 82.1125,19.255 81.340002,18.53125 79.9375,18.53125 z M 92.46875,18.53125 C 90.125,18.53125 88.562503,20.828751 88.5625,22.84375 C 88.5625,25.07875 89.832501,27.312499 92.625,27.3125 C 94.55875,27.3125 95.293748,26.55625 96,25.8125 L 95.40625,25.375 C 95.23875,25.5375 95.099999,25.675 94.9375,25.8125 C 94.76875,25.9575 94.593748,26.08 94.40625,26.1875 C 94.02375,26.4025 93.566247,26.53125 92.9375,26.53125 C 91.1775,26.53125 90.593752,24.180001 90.59375,22.75 L 96.21875,22.75 C 96.21,20.49375 95.050001,18.53125 92.46875,18.53125 z M 102.15625,18.53125 C 100.72375,18.53125 100.09625,19.542501 99.78125,20.09375 L 99.71875,20.15625 L 99.625,18.5625 C 99.30375,18.65375 97.754998,18.856251 96.5625,18.9375 L 96.5625,19.46875 C 96.81875,19.47125 97.250001,19.53125 97.25,19.53125 C 97.67625,19.58125 97.843748,19.687499 97.84375,20.15625 L 97.84375,25.5625 C 97.84375,26.44625 97.64875,26.5425 97,26.59375 L 96.5625,26.65625 L 96.5625,27.1875 C 97.2125,27.1725 100.75,27.172499 101.0625,27.1875 L 101.0625,26.65625 L 100.625,26.59375 C 99.9775,26.5425 99.812498,26.43 99.8125,25.5625 L 99.8125,21.8125 C 99.8125,20.59875 100.6325,19.562499 101.5,19.5625 C 102.39625,19.5625 102.65625,20.3275 102.65625,21.53125 L 102.65625,24.875 C 102.65625,25.38875 102.64125,26.341251 102.59375,27.1875 C 102.8225,27.185 105.69125,27.185001 105.90625,27.1875 L 105.90625,26.65625 L 105.46875,26.59375 C 104.82125,26.5425 104.625,26.43 104.625,25.5625 L 104.625,20.84375 C 104.625,19.80125 104.01625,18.53125 102.15625,18.53125 z M 114.4375,18.53125 C 112.7475,18.53125 111.15625,19.56375 111.15625,21.03125 C 111.15625,22.70125 112.245,23.19375 113.625,23.59375 L 114.53125,23.84375 C 115.11875,24.03125 115.6875,24.47625 115.6875,25.28125 C 115.6875,26.155 114.98,26.750001 113.96875,26.75 C 112.5025,26.75 111.7925,25.92375 111.78125,24.78125 L 111.25,24.78125 L 111.34375,26.84375 C 112.17,27.15625 113.03375,27.312499 113.9375,27.3125 C 116.19375,27.3125 117.53125,26.21375 117.53125,24.5625 C 117.53125,22.995 116.28,22.52625 115.0625,22.15625 L 114,21.84375 C 113.34125,21.64 113,21.196251 113,20.53125 C 113,19.7275 113.61,19.125 114.4375,19.125 C 115.525,19.125 116.39375,19.765 116.40625,20.96875 L 116.9375,20.96875 L 116.84375,19 C 116.50625,18.8475 115.76125,18.53125 114.4375,18.53125 z M 45.4375,18.8125 L 45.4375,19.34375 L 45.875,19.375 C 46.14875,19.40125 46.295001,19.486249 46.40625,19.65625 C 46.46,19.74 46.508749,19.84625 46.5625,19.96875 C 46.615,20.09125 46.669999,20.23875 46.75,20.40625 L 49.03125,25.53125 C 49.14,25.79875 49.297501,26.202499 49.4375,26.5625 C 49.5725,26.90875 49.683752,27.21125 49.75,27.3125 L 50.53125,27.3125 C 50.685,26.95875 51.087501,25.828749 51.21875,25.53125 L 53.0625,20.40625 C 53.3125,19.685 53.5075,19.427499 53.875,19.375 L 54.34375,19.34375 L 54.34375,18.8125 C 54.01875,18.83125 51.762499,18.831251 51.4375,18.8125 L 51.4375,19.34375 L 51.9375,19.375 C 52.18875,19.39375 52.312498,19.58 52.3125,19.84375 C 52.3125,19.94875 52.2775,20.0525 52.25,20.15625 C 52.2225,20.26 52.1825,20.361251 52.15625,20.4375 L 50.6875,24.78125 L 48.90625,20.4375 C 48.8225,20.23625 48.718749,19.95625 48.71875,19.75 C 48.71875,19.5125 48.865001,19.3925 49.125,19.375 L 49.65625,19.34375 L 49.65625,18.8125 C 49.01,18.83 46.083751,18.830001 45.4375,18.8125 z M 57.75,19.1875 C 58.8425,19.1875 59.41625,20.37875 59.5,22.0625 L 55.90625,22.03125 C 55.955,20.55875 56.542502,19.187501 57.75,19.1875 z M 92.4375,19.1875 C 93.5325,19.1875 94.103753,20.37875 94.1875,22.0625 L 90.5625,22.03125 C 90.6125,20.55875 91.229998,19.187501 92.4375,19.1875 z"
       transform="translate(316.23625,518.67218)"
       id="path2460"
       style="fill:#3b3b3b;fill-opacity:1;fill-rule:evenodd;stroke:none" />
  </g>
</svg>
