<svg xmlns="http://www.w3.org/2000/svg" viewBox="0.00 0.00 1546.05 257.05"><path d="M1429.31 183.15C1423.91 189.11 1416.79 194.23 1407.95 198.51C1399.1 202.79 1388.63 204.93 1376.52 204.93C1365.91 204.93 1356.27 203.2 1347.61 199.77C1338.96 196.33 1331.56 191.49 1325.42 185.25C1319.27 179.01 1314.48 171.61 1311.04 163.04C1307.59 154.49 1305.88 145.07 1305.88 134.83C1305.88 125.15 1307.64 116.08 1311.19 107.61C1314.72 99.14 1319.6 91.73 1325.85 85.41C1332.08 79.08 1339.53 74.11 1348.19 70.47C1356.84 66.84 1366.29 65.02 1376.53 65.02C1388.44 65.02 1398.78 66.98 1407.53 70.88C1416.28 74.8 1423.63 80.01 1429.6 86.52L1405.3 112.77C1402.31 109.42 1398.68 106.44 1394.41 103.84C1390.12 101.23 1384.44 99.93 1377.37 99.93C1372.52 99.93 1368.19 100.91 1364.38 102.86C1360.57 104.82 1357.3 107.37 1354.61 110.53C1351.9 113.71 1349.86 117.38 1348.45 121.57C1347.06 125.75 1346.36 130.18 1346.36 134.83C1346.36 139.12 1347.06 143.35 1348.45 147.54C1349.86 151.74 1351.9 155.46 1354.61 158.72C1357.31 161.98 1360.57 164.63 1364.38 166.68C1368.19 168.73 1372.52 169.76 1377.37 169.76C1384.25 169.76 1390.03 168.41 1394.68 165.71C1399.33 163.01 1403.06 160.09 1405.85 156.91L1429.31 183.16V183.15Z" fill="#3b3b3b"/><path d="M662.99 69.48H701.53C701.91 71.91 702.18 74.28 702.37 76.6C702.55 78.93 702.74 81.31 702.93 83.72C707.21 78.33 712.7 74.19 719.41 71.29C726.11 68.41 733.1 66.97 740.36 66.97C749.85 66.97 758.23 68.83 765.49 72.55C772.75 76.27 778.79 81.25 783.64 87.5C788.48 93.74 792.11 100.9 794.53 109C796.94 117.1 798.15 125.44 798.15 133.99C798.15 146.1 796.11 156.61 792 165.56C787.9 174.5 782.6 181.86 776.09 187.62C769.57 193.39 762.22 197.68 754.03 200.47C745.84 203.26 737.74 204.66 729.73 204.66C723.4 204.66 718.18 204.1 714.1 202.99C710 201.87 706.27 200.76 702.92 199.64V256.33H662.98V69.48H662.99ZM702.93 165.83C708.14 169.38 715.87 171.14 726.11 171.14C736.35 171.14 743.75 167.84 749.44 161.23C755.12 154.63 757.95 145.82 757.95 134.85C757.95 130.57 757.44 126.38 756.42 122.28C755.39 118.18 753.81 114.6 751.67 111.52C749.53 108.45 746.73 105.99 743.29 104.13C739.84 102.26 735.62 101.33 730.58 101.33C726.11 101.33 722.15 102.17 718.7 103.84C715.26 105.51 712.38 107.76 710.05 110.54C707.72 113.33 705.95 116.51 704.74 120.04C703.52 123.59 702.92 127.21 702.92 130.93V165.83H702.93Z" fill="#3b3b3b"/><path d="M1269.06 161.15C1266.06 163.31 1261.52 165.85 1255.33 168.76C1248.81 171.84 1240.34 173.36 1229.91 173.36C1219.48 173.36 1210.97 170.71 1204.91 165.4C1198.87 160.1 1195.75 153.91 1195.56 146.84H1288.83V140.13C1288.83 129.15 1287.44 119.04 1284.65 109.83C1281.85 100.61 1277.72 92.7 1272.22 86.09C1266.72 79.48 1259.98 74.32 1251.97 70.59C1243.97 66.87 1234.66 65.01 1224.05 65.01C1213.44 65.01 1203.95 66.92 1195.57 70.74C1187.19 74.55 1180.11 79.63 1174.34 85.96C1168.57 92.29 1164.14 99.69 1161.07 108.15C1157.99 116.63 1156.47 125.43 1156.47 134.55C1156.47 144.98 1158.1 154.52 1161.35 163.18C1164.61 171.83 1169.36 179.23 1175.6 185.37C1181.83 191.52 1189.41 196.31 1198.36 199.76C1207.3 203.2 1217.35 204.92 1228.52 204.92C1236.91 204.92 1244.35 204.13 1250.86 202.55C1257.38 200.96 1263.01 199.16 1267.76 197.11C1272.51 195.06 1276.37 192.97 1279.35 190.82C1280.09 190.29 1280.78 189.8 1281.42 189.34L1269.06 161.14V161.15ZM1197.38 112.63C1198.58 109.75 1200.36 107.1 1202.69 104.67C1205.01 102.26 1207.95 100.24 1211.49 98.67C1215.02 97.09 1219.12 96.3 1223.77 96.3C1228.42 96.3 1232.43 97.09 1235.78 98.67C1239.14 100.24 1241.92 102.26 1244.16 104.67C1246.4 107.09 1248.07 109.75 1249.18 112.63C1250.3 115.52 1250.85 118.36 1250.85 121.15H1195.56C1195.56 118.36 1196.16 115.52 1197.38 112.63Z" fill="#3b3b3b"/><path d="M1533.94 165.8C1531.44 167.56 1528.78 169.12 1525.94 170.44C1522.95 171.85 1519.42 172.54 1515.32 172.54C1509.92 172.54 1505.97 170.83 1503.45 167.38C1500.94 163.93 1499.69 159.05 1499.69 152.72V101.05H1533.48V69.49H1499.69V29.98L1459.47 47.61V69.49H1438.8V101.05H1459.47V150.49C1459.47 158.67 1460.3 166.12 1461.98 172.83C1463.67 179.53 1466.45 185.26 1470.36 190.01C1474.27 194.76 1479.39 198.48 1485.72 201.17C1492.05 203.87 1499.86 205.23 1509.18 205.23C1522.34 205.23 1534.63 201.28 1546.05 193.43L1533.94 165.81V165.8Z" fill="#3b3b3b"/><path d="M915.14 69.47C912.73 68.54 910.27 67.89 907.78 67.53C905.26 67.16 902.24 66.97 898.7 66.97C889.38 66.97 881.8 69.01 875.94 73.11C870.07 77.21 865.47 81.49 862.11 85.96L860.72 69.48H822.17V200.46H862.39V135.67C862.39 125.25 865.32 117.19 871.19 111.52C877.06 105.84 884.73 103 894.22 103C896.37 103 898.36 103.13 900.28 103.32L915.13 69.48L915.14 69.47Z" fill="#3b3b3b"/><path d="M1132.1 175.66V69.74L1091.88 69.45V175.68C1091.88 198.38 1073.41 216.84 1050.71 216.84V257.05C1095.58 257.05 1132.1 220.55 1132.1 175.66Z" fill="#3b3b3b"/><path d="M923.83 134.84C923.83 125.16 925.55 116.09 928.99 107.61C932.43 99.14 937.23 91.74 943.37 85.42C949.52 79.09 956.92 74.1 965.57 70.47C974.22 66.84 983.77 65.03 994.19 65.03C1004.61 65.03 1014.11 66.84 1022.68 70.47C1031.24 74.1 1038.59 79.09 1044.74 85.42C1050.88 91.74 1055.68 99.15 1059.12 107.61C1062.57 116.09 1064.28 125.17 1064.28 134.84C1064.28 144.51 1062.57 153.6 1059.12 162.07C1055.68 170.55 1050.88 177.94 1044.74 184.26C1038.59 190.6 1031.24 195.62 1022.68 199.35C1014.11 203.07 1004.61 204.94 994.19 204.94C983.77 204.94 974.22 203.07 965.57 199.35C956.91 195.62 949.52 190.6 943.37 184.26C937.22 177.93 932.43 170.54 928.99 162.07C925.55 153.6 923.83 144.52 923.83 134.84ZM994.2 170.02C999.23 170.02 1003.7 169.04 1007.6 167.09C1011.51 165.14 1014.82 162.48 1017.51 159.13C1020.21 155.78 1022.22 152.01 1023.52 147.83C1024.81 143.63 1025.48 139.3 1025.48 134.84C1025.48 130.38 1024.82 126.04 1023.52 121.85C1022.22 117.67 1020.21 113.95 1017.51 110.69C1014.81 107.43 1011.51 104.82 1007.6 102.86C1003.7 100.91 999.23 99.94 994.2 99.94C989.17 99.94 984.66 100.92 980.65 102.86C976.65 104.82 973.35 107.43 970.74 110.69C968.13 113.95 966.13 117.66 964.74 121.85C963.34 126.05 962.64 130.38 962.64 134.84C962.64 139.3 963.34 143.63 964.74 147.83C966.13 152.01 968.13 155.78 970.74 159.13C973.35 162.48 976.65 165.14 980.65 167.09C984.65 169.05 989.17 170.02 994.2 170.02Z" fill="#3b3b3b"/><path d="M127.63 14.19H167.57V82.05C171.85 77.02 177.53 73.16 184.61 70.46C191.69 67.76 198.85 66.41 206.11 66.41C221.2 66.41 233.24 70.88 242.27 79.81C251.31 88.75 255.82 101.98 255.82 119.47V200.47H215.88V125.62C215.88 117.98 213.93 112.03 210.02 107.74C206.11 103.47 200.9 101.32 194.38 101.32C190.1 101.32 186.28 102.12 182.93 103.7C179.58 105.29 176.79 107.38 174.55 109.98C172.32 112.59 170.65 115.61 169.53 119.06C168.41 122.5 167.86 126.18 167.86 130.1V200.48H127.64V14.19H127.63Z" fill="#3b3b3b"/><path d="M357.47 69.49H396.01L397.13 83.73C401.41 78.53 407.04 74.34 414.04 71.17C421.01 68 428.32 66.42 435.95 66.42C451.04 66.42 462.99 70.89 471.85 79.82C480.69 88.76 485.11 101.98 485.11 119.48V200.47H444.89V125.06C444.89 117.8 443.07 112.04 439.44 107.76C435.82 103.48 430.74 101.33 424.22 101.33C419.75 101.33 415.85 102.12 412.49 103.7C409.14 105.29 406.35 107.38 404.11 109.98C401.88 112.59 400.21 115.61 399.09 119.05C397.97 122.5 397.42 126.17 397.42 130.09V200.47H357.48V69.49H357.47Z" fill="#3b3b3b"/><path d="M514.14 14.19H554.36V110.82L594.29 69.49H639.81L592.9 117.8L646.24 200.47H599.6L566.09 145.17L554.36 157.18V200.47H514.14V14.19Z" fill="#3b3b3b"/><path d="M286.25 87.11V200.47H326.48V69.49L286.25 87.11Z" fill="#3b3b3b"/><path d="M95.14 165.8C92.64 167.56 89.98 169.12 87.14 170.44C84.15 171.85 80.62 172.54 76.52 172.54C71.12 172.54 67.17 170.83 64.65 167.38C62.14 163.93 60.89 159.05 60.89 152.72V101.05H94.68V69.49H60.89V29.98L20.67 47.61V69.49H0V101.05H20.67V150.49C20.67 158.67 21.5 166.12 23.18 172.83C24.87 179.53 27.65 185.26 31.56 190.01C35.47 194.76 40.59 198.48 46.92 201.17C53.25 203.87 61.06 205.23 70.38 205.23C83.55 205.23 95.83 201.28 107.25 193.43L95.14 165.81V165.8Z" fill="#3b3b3b"/><path d="M358.82 0L286.26 31.82V69.91L358.82 38.08V0Z" fill="#3b3b3b"/></svg>