<svg width="329" height="167" viewBox="0 0 329 167" fill="none" xmlns="http://www.w3.org/2000/svg">
<g clip-path="url(#clip0_59_202)">
<path d="M311.796 25.7691H306.331V20.5702H305.472V25.7691H300.008V26.5118H305.472V31.7107H306.331V26.5118H311.796V25.7691Z" fill="#549A63" fill-opacity="0.15"/>
<path d="M311.796 62.9042H306.331V57.7053H305.472V62.9042H300.008V63.6469H305.472V68.8459H306.331V63.6469H311.796V62.9042Z" fill="#549A63" fill-opacity="0.15"/>
<path d="M311.796 100.039H306.331V94.8405H305.472V100.039H300.008V100.782H305.472V105.981H306.331V100.782H311.796V100.039Z" fill="#549A63" fill-opacity="0.15"/>
<path d="M311.796 137.175H306.331V131.976H305.472V137.175H300.008V137.917H305.472V143.116H306.331V137.917H311.796V137.175Z" fill="#549A63" fill-opacity="0.15"/>
<path d="M272.762 25.7691H267.297V20.5702H266.438V25.7691H260.973V26.5118H266.438V31.7107H267.297V26.5118H272.762V25.7691Z" fill="#549A63" fill-opacity="0.15"/>
<path d="M272.762 62.9042H267.297V57.7053H266.438V62.9042H260.973V63.6469H266.438V68.8459H267.297V63.6469H272.762V62.9042Z" fill="#549A63" fill-opacity="0.15"/>
<path d="M272.762 100.039H267.297V94.8405H266.438V100.039H260.973V100.782H266.438V105.981H267.297V100.782H272.762V100.039Z" fill="#549A63" fill-opacity="0.15"/>
<path d="M272.762 137.175H267.297V131.976H266.438V137.175H260.973V137.917H266.438V143.116H267.297V137.917H272.762V137.175Z" fill="#549A63" fill-opacity="0.15"/>
<path d="M233.728 25.7691H228.263V20.5702H227.405V25.7691H221.94V26.5118H227.405V31.7107H228.263V26.5118H233.728V25.7691Z" fill="#549A63" fill-opacity="0.15"/>
<path d="M233.728 62.9042H228.263V57.7053H227.405V62.9042H221.94V63.6469H227.405V68.8459H228.263V63.6469H233.728V62.9042Z" fill="#549A63" fill-opacity="0.15"/>
<path d="M233.728 100.039H228.263V94.8405H227.405V100.039H221.94V100.782H227.405V105.981H228.263V100.782H233.728V100.039Z" fill="#549A63" fill-opacity="0.15"/>
<path d="M233.728 137.175H228.263V131.976H227.405V137.175H221.94V137.917H227.405V143.116H228.263V137.917H233.728V137.175Z" fill="#549A63" fill-opacity="0.15"/>
<path d="M194.695 25.7691H189.23V20.5702H188.371V25.7691H182.906V26.5118H188.371V31.7107H189.23V26.5118H194.695V25.7691Z" fill="#549A63" fill-opacity="0.15"/>
<path d="M194.695 62.9042H189.23V57.7053H188.371V62.9042H182.906V63.6469H188.371V68.8459H189.23V63.6469H194.695V62.9042Z" fill="#549A63" fill-opacity="0.15"/>
<path d="M194.695 100.039H189.23V94.8405H188.371V100.039H182.906V100.782H188.371V105.981H189.23V100.782H194.695V100.039Z" fill="#549A63" fill-opacity="0.15"/>
<path d="M194.695 137.175H189.23V131.976H188.371V137.175H182.906V137.917H188.371V143.116H189.23V137.917H194.695V137.175Z" fill="#549A63" fill-opacity="0.15"/>
<path d="M155.661 25.7691H150.197V20.5702H149.338V25.7691H143.873V26.5118H149.338V31.7107H150.197V26.5118H155.661V25.7691Z" fill="#549A63" fill-opacity="0.15"/>
<path d="M155.661 62.9042H150.197V57.7053H149.338V62.9042H143.873V63.6469H149.338V68.8459H150.197V63.6469H155.661V62.9042Z" fill="#549A63" fill-opacity="0.15"/>
<path d="M155.661 100.039H150.197V94.8405H149.338V100.039H143.873V100.782H149.338V105.981H150.197V100.782H155.661V100.039Z" fill="#549A63" fill-opacity="0.15"/>
<path d="M155.661 137.175H150.197V131.976H149.338V137.175H143.873V137.917H149.338V143.116H150.197V137.917H155.661V137.175Z" fill="#549A63" fill-opacity="0.15"/>
<path d="M116.628 25.7691H111.163V20.5702H110.304V25.7691H104.839V26.5118H110.304V31.7107H111.163V26.5118H116.628V25.7691Z" fill="#549A63" fill-opacity="0.15"/>
<path d="M116.628 62.9042H111.163V57.7053H110.304V62.9042H104.839V63.6469H110.304V68.8459H111.163V63.6469H116.628V62.9042Z" fill="#549A63" fill-opacity="0.15"/>
<path d="M116.628 100.039H111.163V94.8405H110.304V100.039H104.839V100.782H110.304V105.981H111.163V100.782H116.628V100.039Z" fill="#549A63" fill-opacity="0.15"/>
<path d="M116.628 137.175H111.163V131.976H110.304V137.175H104.839V137.917H110.304V143.116H111.163V137.917H116.628V137.175Z" fill="#549A63" fill-opacity="0.15"/>
<path d="M77.5946 25.7691H72.1299V20.5702H71.2711V25.7691H65.8064V26.5118H71.2711V31.7107H72.1299V26.5118H77.5946V25.7691Z" fill="#549A63" fill-opacity="0.15"/>
<path d="M77.5946 62.9042H72.1299V57.7053H71.2711V62.9042H65.8064V63.6469H71.2711V68.8459H72.1299V63.6469H77.5946V62.9042Z" fill="#549A63" fill-opacity="0.15"/>
<path d="M77.5946 100.039H72.1299V94.8405H71.2711V100.039H65.8064V100.782H71.2711V105.981H72.1299V100.782H77.5946V100.039Z" fill="#549A63" fill-opacity="0.15"/>
<path d="M77.5946 137.175H72.1299V131.976H71.2711V137.175H65.8064V137.917H71.2711V143.116H72.1299V137.917H77.5946V137.175Z" fill="#549A63" fill-opacity="0.15"/>
<path d="M38.5606 25.7691H33.096V20.5702H32.2371V25.7691H26.7725V26.5118H32.2371V31.7107H33.096V26.5118H38.5606V25.7691Z" fill="#549A63" fill-opacity="0.15"/>
<path d="M38.5606 62.9042H33.096V57.7053H32.2371V62.9042H26.7725V63.6469H32.2371V68.8459H33.096V63.6469H38.5606V62.9042Z" fill="#549A63" fill-opacity="0.15"/>
<path d="M38.5606 100.039H33.096V94.8405H32.2371V100.039H26.7725V100.782H32.2371V105.981H33.096V100.782H38.5606V100.039Z" fill="#549A63" fill-opacity="0.15"/>
<path d="M38.5606 137.175H33.096V131.976H32.2371V137.175H26.7725V137.917H32.2371V143.116H33.096V137.917H38.5606V137.175Z" fill="#549A63" fill-opacity="0.15"/>
<path d="M15.744 27V16.92C15.744 16.032 15.966 15.36 16.41 14.904C16.854 14.448 17.544 14.22 18.48 14.22H21.576V15.75H18.66C18.3 15.75 18.024 15.858 17.832 16.074C17.652 16.278 17.562 16.566 17.562 16.938V27H15.744ZM13.224 18.954V17.424H21.432V18.954H13.224ZM27.365 27.216C26.441 27.216 25.703 26.904 25.151 26.28C24.599 25.644 24.323 24.756 24.323 23.616V17.424H26.141V23.148C26.141 24.012 26.291 24.642 26.591 25.038C26.891 25.434 27.347 25.632 27.959 25.632C28.619 25.632 29.147 25.41 29.543 24.966C29.951 24.522 30.155 23.892 30.155 23.076V17.424H31.973V27H30.263L30.245 24.498L30.497 24.606C30.329 25.434 29.975 26.076 29.435 26.532C28.895 26.988 28.205 27.216 27.365 27.216ZM35.0259 27V17.424H36.6999L36.7539 19.926L36.5559 19.782C36.6759 19.194 36.8859 18.714 37.1859 18.342C37.4979 17.958 37.8759 17.676 38.3199 17.496C38.7639 17.304 39.2379 17.208 39.7419 17.208C40.4619 17.208 41.0559 17.37 41.5239 17.694C41.9919 18.006 42.3459 18.438 42.5859 18.99C42.8259 19.53 42.9459 20.142 42.9459 20.826V27H41.1279V21.294C41.1279 20.466 40.9659 19.842 40.6419 19.422C40.3299 19.002 39.8559 18.792 39.2199 18.792C38.7759 18.792 38.3739 18.888 38.0139 19.08C37.6659 19.272 37.3839 19.56 37.1679 19.944C36.9519 20.316 36.8439 20.778 36.8439 21.33V27H35.0259ZM49.9949 27.216C49.1069 27.216 48.3209 27.012 47.6369 26.604C46.9649 26.184 46.4429 25.602 46.0709 24.858C45.7109 24.102 45.5309 23.22 45.5309 22.212C45.5309 21.204 45.7109 20.328 46.0709 19.584C46.4429 18.84 46.9649 18.258 47.6369 17.838C48.3209 17.418 49.1069 17.208 49.9949 17.208C50.7269 17.208 51.3809 17.346 51.9569 17.622C52.5329 17.886 53.0069 18.276 53.3789 18.792C53.7509 19.308 53.9969 19.926 54.1169 20.646L52.2629 20.772C52.1189 20.16 51.8489 19.692 51.4529 19.368C51.0569 19.044 50.5769 18.882 50.0129 18.882C49.2089 18.882 48.5729 19.182 48.1049 19.782C47.6489 20.37 47.4209 21.18 47.4209 22.212C47.4209 23.244 47.6489 24.06 48.1049 24.66C48.5729 25.248 49.2089 25.542 50.0129 25.542C50.5889 25.542 51.0809 25.374 51.4889 25.038C51.9089 24.69 52.1849 24.18 52.3169 23.508L54.1709 23.616C54.0509 24.348 53.7989 24.984 53.4149 25.524C53.0309 26.052 52.5449 26.466 51.9569 26.766C51.3809 27.066 50.7269 27.216 49.9949 27.216ZM61.9399 27C60.9679 27 60.2419 26.778 59.7619 26.334C59.2939 25.878 59.0599 25.182 59.0599 24.246V15.174H60.8779V24.156C60.8779 24.6 60.9799 24.93 61.1839 25.146C61.3999 25.362 61.7179 25.47 62.1379 25.47H64.6039V27H61.9399ZM56.0359 18.954V17.424H64.6039V18.954H56.0359ZM71.0768 27V17.424H72.9128V27H71.0768ZM67.3328 27V25.47H76.1168V27H67.3328ZM67.5128 18.954V17.424H72.7508V18.954H67.5128ZM70.9688 16.038V14.148H72.8408V16.038H70.9688ZM82.1578 27.216C81.2698 27.216 80.4898 27.012 79.8178 26.604C79.1578 26.196 78.6418 25.614 78.2698 24.858C77.9098 24.102 77.7298 23.22 77.7298 22.212C77.7298 21.192 77.9098 20.31 78.2698 19.566C78.6418 18.81 79.1578 18.228 79.8178 17.82C80.4898 17.412 81.2698 17.208 82.1578 17.208C83.0458 17.208 83.8198 17.412 84.4798 17.82C85.1518 18.228 85.6678 18.81 86.0278 19.566C86.3998 20.31 86.5858 21.192 86.5858 22.212C86.5858 23.22 86.3998 24.102 86.0278 24.858C85.6678 25.614 85.1518 26.196 84.4798 26.604C83.8198 27.012 83.0458 27.216 82.1578 27.216ZM82.1578 25.542C82.9618 25.542 83.5798 25.248 84.0118 24.66C84.4558 24.072 84.6778 23.256 84.6778 22.212C84.6778 21.168 84.4558 20.352 84.0118 19.764C83.5798 19.176 82.9618 18.882 82.1578 18.882C81.3538 18.882 80.7298 19.176 80.2858 19.764C79.8538 20.352 79.6378 21.168 79.6378 22.212C79.6378 23.256 79.8538 24.072 80.2858 24.66C80.7298 25.248 81.3538 25.542 82.1578 25.542ZM88.9908 27V17.424H90.6648L90.7188 19.926L90.5208 19.782C90.6408 19.194 90.8508 18.714 91.1508 18.342C91.4628 17.958 91.8408 17.676 92.2848 17.496C92.7288 17.304 93.2028 17.208 93.7068 17.208C94.4268 17.208 95.0208 17.37 95.4888 17.694C95.9568 18.006 96.3108 18.438 96.5508 18.99C96.7908 19.53 96.9108 20.142 96.9108 20.826V27H95.0928V21.294C95.0928 20.466 94.9308 19.842 94.6068 19.422C94.2948 19.002 93.8208 18.792 93.1848 18.792C92.7408 18.792 92.3388 18.888 91.9788 19.08C91.6308 19.272 91.3488 19.56 91.1328 19.944C90.9168 20.316 90.8088 20.778 90.8088 21.33V27H88.9908ZM103.888 27.216C103.036 27.216 102.304 27.072 101.692 26.784C101.08 26.496 100.606 26.112 100.27 25.632C99.9338 25.14 99.7418 24.594 99.6938 23.994L101.548 23.886C101.644 24.402 101.884 24.816 102.268 25.128C102.652 25.428 103.198 25.578 103.906 25.578C104.566 25.578 105.07 25.488 105.418 25.308C105.766 25.128 105.94 24.846 105.94 24.462C105.94 24.222 105.88 24.024 105.76 23.868C105.64 23.7 105.412 23.562 105.076 23.454C104.752 23.334 104.272 23.214 103.636 23.094C102.688 22.914 101.944 22.704 101.404 22.464C100.876 22.212 100.498 21.9 100.27 21.528C100.042 21.144 99.9278 20.682 99.9278 20.142C99.9278 19.59 100.066 19.092 100.342 18.648C100.63 18.204 101.05 17.856 101.602 17.604C102.154 17.34 102.838 17.208 103.654 17.208C104.506 17.208 105.208 17.358 105.76 17.658C106.312 17.946 106.744 18.324 107.056 18.792C107.368 19.26 107.566 19.77 107.65 20.322L105.796 20.43C105.724 20.118 105.598 19.848 105.418 19.62C105.238 19.38 104.998 19.194 104.698 19.062C104.398 18.918 104.05 18.846 103.654 18.846C103.018 18.846 102.55 18.972 102.25 19.224C101.95 19.476 101.8 19.782 101.8 20.142C101.8 20.43 101.872 20.664 102.016 20.844C102.16 21.012 102.4 21.156 102.736 21.276C103.072 21.384 103.528 21.492 104.104 21.6C105.076 21.756 105.826 21.96 106.354 22.212C106.882 22.452 107.254 22.752 107.47 23.112C107.686 23.472 107.794 23.916 107.794 24.444C107.794 25.02 107.626 25.518 107.29 25.938C106.966 26.346 106.51 26.664 105.922 26.892C105.346 27.108 104.668 27.216 103.888 27.216Z" fill="#4C4C4C"/>
<g filter="url(#filter0_dddd_59_202)">
<rect x="118" y="45" width="251" height="216" rx="20" fill="#111111"/>
<rect x="118.5" y="45.5" width="250" height="215" rx="19.5" stroke="#333333"/>
<rect x="134" y="61" width="28" height="28" rx="8" fill="#FF402F"/>
<path d="M149 71L146.667 79.3333M144.333 72.6667L142 75L144.333 77.3333M151.667 72.6667L154 75L151.667 77.3333" stroke="white" stroke-linecap="round" stroke-linejoin="round"/>
<path d="M172.28 81V69.64H179.88V71.448H173.224L174.36 70.28V75.496L173.224 74.552H179.592V76.344H173.224L174.36 75.4V81H172.28ZM184.045 81.192C183.181 81.192 182.493 80.9093 181.981 80.344C181.48 79.768 181.229 78.9733 181.229 77.96V72.456H183.277V77.448C183.277 78.1627 183.395 78.6907 183.629 79.032C183.875 79.3627 184.243 79.528 184.733 79.528C185.288 79.528 185.715 79.3467 186.013 78.984C186.323 78.6107 186.477 78.072 186.477 77.368V72.456H188.525V81H186.653L186.605 78.648L186.861 78.728C186.733 79.5387 186.429 80.152 185.949 80.568C185.469 80.984 184.835 81.192 184.045 81.192ZM190.776 81V72.456H192.632L192.712 74.856L192.472 74.76C192.558 74.1627 192.734 73.6827 193 73.32C193.267 72.9573 193.592 72.6907 193.976 72.52C194.36 72.3493 194.782 72.264 195.24 72.264C195.87 72.264 196.398 72.4027 196.824 72.68C197.262 72.9573 197.592 73.3413 197.816 73.832C198.04 74.312 198.152 74.872 198.152 75.512V81H196.104V76.168C196.104 75.688 196.056 75.2827 195.96 74.952C195.864 74.6213 195.704 74.3707 195.48 74.2C195.267 74.0187 194.979 73.928 194.616 73.928C194.072 73.928 193.635 74.12 193.304 74.504C192.984 74.888 192.824 75.4427 192.824 76.168V81H190.776ZM203.895 81.192C203.041 81.192 202.3 81.0107 201.671 80.648C201.041 80.2747 200.551 79.752 200.199 79.08C199.857 78.408 199.687 77.624 199.687 76.728C199.687 75.832 199.857 75.0533 200.199 74.392C200.551 73.72 201.041 73.1973 201.671 72.824C202.3 72.4507 203.041 72.264 203.895 72.264C204.62 72.264 205.265 72.392 205.831 72.648C206.396 72.904 206.855 73.272 207.207 73.752C207.569 74.2213 207.793 74.7973 207.878 75.48L205.767 75.592C205.681 75.048 205.468 74.6373 205.127 74.36C204.796 74.072 204.385 73.928 203.895 73.928C203.233 73.928 202.721 74.1787 202.359 74.68C201.996 75.1707 201.815 75.8533 201.815 76.728C201.815 77.6133 201.996 78.3013 202.359 78.792C202.721 79.2827 203.233 79.528 203.895 79.528C204.396 79.528 204.812 79.384 205.143 79.096C205.484 78.808 205.692 78.36 205.767 77.752L207.878 77.848C207.793 78.5307 207.575 79.1227 207.223 79.624C206.871 80.1253 206.412 80.5147 205.847 80.792C205.281 81.0587 204.631 81.192 203.895 81.192ZM212.435 81C211.581 81 210.952 80.8027 210.547 80.408C210.152 80.0133 209.955 79.3947 209.955 78.552V70.456H212.003V78.36C212.003 78.7547 212.088 79.032 212.259 79.192C212.429 79.3413 212.696 79.416 213.059 79.416H214.259V81H212.435ZM208.611 74.04V72.456H214.259V74.04H208.611ZM215.761 81V72.456H217.809V81H215.761ZM215.729 71.32V69.496H217.857V71.32H215.729ZM223.613 81.192C222.771 81.192 222.029 81.0107 221.389 80.648C220.76 80.2747 220.269 79.752 219.917 79.08C219.576 78.408 219.405 77.624 219.405 76.728C219.405 75.8213 219.576 75.0373 219.917 74.376C220.269 73.704 220.76 73.1867 221.389 72.824C222.029 72.4507 222.771 72.264 223.613 72.264C224.456 72.264 225.192 72.4507 225.821 72.824C226.451 73.1867 226.936 73.704 227.277 74.376C227.629 75.0373 227.805 75.8213 227.805 76.728C227.805 77.624 227.629 78.408 227.277 79.08C226.936 79.752 226.451 80.2747 225.821 80.648C225.192 81.0107 224.456 81.192 223.613 81.192ZM223.613 79.528C224.275 79.528 224.781 79.2827 225.133 78.792C225.496 78.3013 225.677 77.6133 225.677 76.728C225.677 75.8533 225.496 75.1707 225.133 74.68C224.781 74.1787 224.275 73.928 223.613 73.928C222.952 73.928 222.44 74.1787 222.077 74.68C221.715 75.1707 221.533 75.8533 221.533 76.728C221.533 77.6133 221.715 78.3013 222.077 78.792C222.44 79.2827 222.952 79.528 223.613 79.528ZM229.386 81V72.456H231.242L231.322 74.856L231.082 74.76C231.167 74.1627 231.343 73.6827 231.61 73.32C231.876 72.9573 232.202 72.6907 232.586 72.52C232.97 72.3493 233.391 72.264 233.85 72.264C234.479 72.264 235.007 72.4027 235.434 72.68C235.871 72.9573 236.202 73.3413 236.426 73.832C236.65 74.312 236.762 74.872 236.762 75.512V81H234.714V76.168C234.714 75.688 234.666 75.2827 234.57 74.952C234.474 74.6213 234.314 74.3707 234.09 74.2C233.876 74.0187 233.588 73.928 233.226 73.928C232.682 73.928 232.244 74.12 231.914 74.504C231.594 74.888 231.434 75.4427 231.434 76.168V81H229.386ZM244.696 81V73.208H242.264V71.624H243.24C243.699 71.624 244.067 71.5653 244.344 71.448C244.622 71.3307 244.819 71.128 244.936 70.84C245.064 70.5413 245.128 70.1413 245.128 69.64H246.776V81H244.696Z" fill="white" fill-opacity="0.62"/>
<path d="M317 78.3333C317.189 78.3333 317.347 78.2693 317.475 78.1413C317.603 78.0133 317.667 77.8551 317.667 77.6667V75C317.667 74.8111 317.603 74.6529 317.475 74.5253C317.347 74.3978 317.188 74.3338 317 74.3333C316.811 74.3329 316.653 74.3969 316.525 74.5253C316.397 74.6538 316.333 74.812 316.333 75V77.6667C316.333 77.8556 316.397 78.014 316.525 78.142C316.653 78.27 316.811 78.3338 317 78.3333ZM317 73C317.189 73 317.347 72.936 317.475 72.808C317.603 72.68 317.667 72.5218 317.667 72.3333C317.666 72.1449 317.602 71.9867 317.475 71.8587C317.347 71.7307 317.189 71.6667 317 71.6667C316.811 71.6667 316.653 71.7307 316.525 71.8587C316.398 71.9867 316.334 72.1449 316.333 72.3333C316.333 72.5218 316.397 72.6802 316.525 72.8087C316.654 72.9371 316.812 73.0009 317 73ZM317 81.6667C316.078 81.6667 315.211 81.4916 314.4 81.1413C313.589 80.7911 312.883 80.3162 312.283 79.7167C311.683 79.1171 311.208 78.4116 310.859 77.6C310.509 76.7884 310.334 75.9218 310.333 75C310.333 74.0782 310.508 73.2116 310.859 72.4C311.209 71.5884 311.684 70.8829 312.283 70.2833C312.882 69.6838 313.588 69.2089 314.4 68.8587C315.212 68.5084 316.079 68.3333 317 68.3333C317.921 68.3333 318.788 68.5084 319.6 68.8587C320.412 69.2089 321.117 69.6838 321.717 70.2833C322.316 70.8829 322.791 71.5884 323.142 72.4C323.493 73.2116 323.668 74.0782 323.667 75C323.665 75.9218 323.49 76.7884 323.141 77.6C322.792 78.4116 322.317 79.1171 321.717 79.7167C321.116 80.3162 320.41 80.7913 319.6 81.142C318.79 81.4927 317.923 81.6676 317 81.6667ZM317 80.3333C318.489 80.3333 319.75 79.8167 320.783 78.7833C321.817 77.75 322.333 76.4889 322.333 75C322.333 73.5111 321.817 72.25 320.783 71.2167C319.75 70.1833 318.489 69.6667 317 69.6667C315.511 69.6667 314.25 70.1833 313.217 71.2167C312.183 72.25 311.667 73.5111 311.667 75C311.667 76.4889 312.183 77.75 313.217 78.7833C314.25 79.8167 315.511 80.3333 317 80.3333Z" fill="white" fill-opacity="0.26"/>
<rect x="118" y="101" width="251" height="2" fill="#262626"/>
<rect x="134.5" y="115.5" width="218" height="129" rx="11.5" fill="#222222"/>
<rect x="134.5" y="115.5" width="218" height="129" rx="11.5" stroke="#282828"/>
<path d="M149.276 137V130.928H147.092V129.86H148.172C148.484 129.86 148.736 129.816 148.928 129.728C149.12 129.632 149.26 129.484 149.348 129.284C149.436 129.084 149.48 128.816 149.48 128.48H150.536V137H149.276ZM146.672 137V135.812H152.528V137H146.672Z" fill="#858585"/>
<path d="M169.768 137.144C169.176 137.144 168.66 137.008 168.22 136.736C167.78 136.464 167.44 136.08 167.2 135.584C166.96 135.08 166.84 134.492 166.84 133.82C166.84 133.148 166.96 132.564 167.2 132.068C167.44 131.572 167.78 131.188 168.22 130.916C168.66 130.636 169.176 130.496 169.768 130.496C170.24 130.496 170.66 130.584 171.028 130.76C171.396 130.928 171.7 131.176 171.94 131.504C172.18 131.832 172.344 132.232 172.432 132.704L171.376 132.776C171.28 132.352 171.088 132.028 170.8 131.804C170.52 131.572 170.176 131.456 169.768 131.456C169.184 131.456 168.724 131.668 168.388 132.092C168.06 132.508 167.896 133.084 167.896 133.82C167.896 134.556 168.06 135.136 168.388 135.56C168.724 135.976 169.184 136.184 169.768 136.184C170.176 136.184 170.528 136.064 170.824 135.824C171.128 135.584 171.328 135.224 171.424 134.744L172.48 134.816C172.392 135.288 172.224 135.7 171.976 136.052C171.728 136.396 171.416 136.664 171.04 136.856C170.664 137.048 170.24 137.144 169.768 137.144ZM176.795 137.144C176.211 137.144 175.699 137.008 175.259 136.736C174.827 136.464 174.491 136.08 174.251 135.584C174.011 135.08 173.891 134.492 173.891 133.82C173.891 133.14 174.011 132.552 174.251 132.056C174.491 131.56 174.827 131.176 175.259 130.904C175.699 130.632 176.211 130.496 176.795 130.496C177.379 130.496 177.887 130.632 178.319 130.904C178.759 131.176 179.099 131.56 179.339 132.056C179.579 132.552 179.699 133.14 179.699 133.82C179.699 134.492 179.579 135.08 179.339 135.584C179.099 136.08 178.759 136.464 178.319 136.736C177.887 137.008 177.379 137.144 176.795 137.144ZM176.795 136.184C177.379 136.184 177.831 135.976 178.151 135.56C178.479 135.136 178.643 134.556 178.643 133.82C178.643 133.084 178.479 132.508 178.151 132.092C177.831 131.668 177.379 131.456 176.795 131.456C176.211 131.456 175.755 131.668 175.427 132.092C175.107 132.508 174.947 133.084 174.947 133.82C174.947 134.556 175.107 135.136 175.427 135.56C175.755 135.976 176.211 136.184 176.795 136.184ZM181.399 137V130.64H182.323L182.359 132.26L182.239 132.152C182.319 131.776 182.463 131.468 182.671 131.228C182.887 130.98 183.143 130.796 183.439 130.676C183.735 130.556 184.047 130.496 184.375 130.496C184.863 130.496 185.267 130.604 185.587 130.82C185.915 131.036 186.163 131.328 186.331 131.696C186.499 132.056 186.583 132.46 186.583 132.908V137H185.575V133.196C185.575 132.604 185.459 132.156 185.227 131.852C184.995 131.54 184.639 131.384 184.159 131.384C183.831 131.384 183.535 131.456 183.271 131.6C183.007 131.736 182.795 131.94 182.635 132.212C182.483 132.476 182.407 132.804 182.407 133.196V137H181.399ZM191.306 137.144C190.754 137.144 190.278 137.048 189.878 136.856C189.478 136.664 189.162 136.408 188.93 136.088C188.706 135.76 188.578 135.396 188.546 134.996L189.602 134.924C189.666 135.316 189.838 135.624 190.118 135.848C190.406 136.072 190.802 136.184 191.306 136.184C191.778 136.184 192.142 136.116 192.398 135.98C192.662 135.844 192.794 135.632 192.794 135.344C192.794 135.16 192.75 135.008 192.662 134.888C192.574 134.768 192.41 134.668 192.17 134.588C191.93 134.5 191.578 134.416 191.114 134.336C190.498 134.224 190.014 134.088 189.662 133.928C189.318 133.76 189.074 133.552 188.93 133.304C188.786 133.056 188.714 132.76 188.714 132.416C188.714 132.048 188.806 131.72 188.99 131.432C189.174 131.144 189.446 130.916 189.806 130.748C190.166 130.58 190.606 130.496 191.126 130.496C191.654 130.496 192.094 130.592 192.446 130.784C192.806 130.968 193.09 131.216 193.298 131.528C193.506 131.832 193.642 132.168 193.706 132.536L192.65 132.608C192.602 132.384 192.51 132.188 192.374 132.02C192.246 131.844 192.074 131.708 191.858 131.612C191.65 131.508 191.402 131.456 191.114 131.456C190.65 131.456 190.306 131.548 190.082 131.732C189.858 131.916 189.746 132.144 189.746 132.416C189.746 132.632 189.798 132.804 189.902 132.932C190.006 133.06 190.174 133.164 190.406 133.244C190.638 133.316 190.946 133.384 191.33 133.448C191.986 133.552 192.494 133.688 192.854 133.856C193.214 134.016 193.466 134.216 193.61 134.456C193.754 134.696 193.826 134.992 193.826 135.344C193.826 135.72 193.714 136.044 193.49 136.316C193.274 136.58 192.974 136.784 192.59 136.928C192.214 137.072 191.786 137.144 191.306 137.144ZM198.381 137.144C197.797 137.144 197.285 137.008 196.845 136.736C196.413 136.464 196.077 136.08 195.837 135.584C195.597 135.08 195.477 134.492 195.477 133.82C195.477 133.14 195.597 132.552 195.837 132.056C196.077 131.56 196.413 131.176 196.845 130.904C197.285 130.632 197.797 130.496 198.381 130.496C198.965 130.496 199.473 130.632 199.905 130.904C200.345 131.176 200.685 131.56 200.925 132.056C201.165 132.552 201.285 133.14 201.285 133.82C201.285 134.492 201.165 135.08 200.925 135.584C200.685 136.08 200.345 136.464 199.905 136.736C199.473 137.008 198.965 137.144 198.381 137.144ZM198.381 136.184C198.965 136.184 199.417 135.976 199.737 135.56C200.065 135.136 200.229 134.556 200.229 133.82C200.229 133.084 200.065 132.508 199.737 132.092C199.417 131.668 198.965 131.456 198.381 131.456C197.797 131.456 197.341 131.668 197.013 132.092C196.693 132.508 196.533 133.084 196.533 133.82C196.533 134.556 196.693 135.136 197.013 135.56C197.341 135.976 197.797 136.184 198.381 136.184ZM205.253 137V130.184C205.253 129.928 205.181 129.728 205.037 129.584C204.893 129.44 204.693 129.368 204.437 129.368H202.937V128.48H204.485C205.069 128.48 205.509 128.632 205.805 128.936C206.109 129.232 206.261 129.672 206.261 130.256V137H205.253ZM202.697 137V136.112H208.457V137H202.697ZM212.88 137.144C212.28 137.144 211.76 137.008 211.32 136.736C210.888 136.464 210.552 136.08 210.312 135.584C210.08 135.08 209.964 134.492 209.964 133.82C209.964 133.148 210.08 132.564 210.312 132.068C210.552 131.572 210.884 131.188 211.308 130.916C211.74 130.636 212.248 130.496 212.832 130.496C213.384 130.496 213.872 130.628 214.296 130.892C214.72 131.148 215.052 131.524 215.292 132.02C215.532 132.516 215.652 133.12 215.652 133.832V134.132H211.02C211.06 134.812 211.24 135.324 211.56 135.668C211.888 136.012 212.328 136.184 212.88 136.184C213.296 136.184 213.636 136.088 213.9 135.896C214.172 135.696 214.36 135.436 214.464 135.116L215.544 135.2C215.376 135.768 215.056 136.236 214.584 136.604C214.12 136.964 213.552 137.144 212.88 137.144ZM211.02 133.244H214.548C214.5 132.628 214.32 132.176 214.008 131.888C213.696 131.6 213.304 131.456 212.832 131.456C212.344 131.456 211.94 131.608 211.62 131.912C211.308 132.208 211.108 132.652 211.02 133.244ZM219.223 137V135.536H220.711V137H219.223ZM226.839 137V130.184C226.839 129.928 226.767 129.728 226.623 129.584C226.479 129.44 226.279 129.368 226.023 129.368H224.523V128.48H226.071C226.655 128.48 227.095 128.632 227.391 128.936C227.695 129.232 227.847 129.672 227.847 130.256V137H226.839ZM224.283 137V136.112H230.043V137H224.283ZM234.358 137.144C233.774 137.144 233.262 137.008 232.822 136.736C232.39 136.464 232.054 136.08 231.814 135.584C231.574 135.08 231.454 134.492 231.454 133.82C231.454 133.14 231.574 132.552 231.814 132.056C232.054 131.56 232.39 131.176 232.822 130.904C233.262 130.632 233.774 130.496 234.358 130.496C234.942 130.496 235.45 130.632 235.882 130.904C236.322 131.176 236.662 131.56 236.902 132.056C237.142 132.552 237.262 133.14 237.262 133.82C237.262 134.492 237.142 135.08 236.902 135.584C236.662 136.08 236.322 136.464 235.882 136.736C235.45 137.008 234.942 137.144 234.358 137.144ZM234.358 136.184C234.942 136.184 235.394 135.976 235.714 135.56C236.042 135.136 236.206 134.556 236.206 133.82C236.206 133.084 236.042 132.508 235.714 132.092C235.394 131.668 234.942 131.456 234.358 131.456C233.774 131.456 233.318 131.668 232.99 132.092C232.67 132.508 232.51 133.084 232.51 133.82C232.51 134.556 232.67 135.136 232.99 135.56C233.318 135.976 233.774 136.184 234.358 136.184ZM241.517 138.944C241.061 138.944 240.649 138.868 240.281 138.716C239.913 138.564 239.605 138.348 239.357 138.068C239.109 137.788 238.941 137.464 238.853 137.096L239.909 137.024C240.005 137.32 240.173 137.552 240.413 137.72C240.661 137.896 241.029 137.984 241.517 137.984C242.093 137.984 242.533 137.868 242.837 137.636C243.149 137.404 243.305 137.056 243.305 136.592V135.56C243.153 135.896 242.909 136.164 242.573 136.364C242.237 136.564 241.861 136.664 241.445 136.664C240.909 136.664 240.429 136.532 240.005 136.268C239.589 136.004 239.261 135.64 239.021 135.176C238.789 134.712 238.673 134.18 238.673 133.58C238.673 132.972 238.789 132.44 239.021 131.984C239.253 131.52 239.573 131.156 239.981 130.892C240.397 130.628 240.869 130.496 241.397 130.496C241.845 130.496 242.245 130.6 242.597 130.808C242.957 131.016 243.209 131.296 243.353 131.648V130.64H244.313V136.568C244.313 137.064 244.201 137.488 243.977 137.84C243.753 138.2 243.433 138.472 243.017 138.656C242.601 138.848 242.101 138.944 241.517 138.944ZM241.493 135.704C242.037 135.704 242.473 135.516 242.801 135.14C243.129 134.756 243.297 134.236 243.305 133.58C243.313 133.14 243.241 132.764 243.089 132.452C242.945 132.132 242.733 131.888 242.453 131.72C242.181 131.544 241.861 131.456 241.493 131.456C240.933 131.456 240.497 131.648 240.185 132.032C239.881 132.408 239.729 132.924 239.729 133.58C239.729 134.236 239.885 134.756 240.197 135.14C240.517 135.516 240.949 135.704 241.493 135.704ZM249.132 138.32C248.58 137.488 248.164 136.64 247.884 135.776C247.604 134.904 247.464 134.032 247.464 133.16C247.464 131.384 248.02 129.664 249.132 128H250.032C249.016 129.728 248.508 131.448 248.508 133.16C248.508 134.016 248.636 134.876 248.892 135.74C249.148 136.596 249.528 137.456 250.032 138.32H249.132ZM257.78 128.288L257.216 130.16H257.864V131.624H256.424V130.328L257.18 128.288H257.78ZM255.38 128.288L254.816 130.16H255.464V131.624H254.024V130.328L254.78 128.288H255.38ZM260.259 137V128.48H261.291V132.62L260.763 132.212H265.515L264.987 132.62V128.48H266.019V137H264.987V132.812L265.515 133.22H260.763L261.291 132.812V137H260.259ZM270.442 137.144C269.842 137.144 269.322 137.008 268.882 136.736C268.45 136.464 268.114 136.08 267.874 135.584C267.642 135.08 267.526 134.492 267.526 133.82C267.526 133.148 267.642 132.564 267.874 132.068C268.114 131.572 268.446 131.188 268.87 130.916C269.302 130.636 269.81 130.496 270.394 130.496C270.946 130.496 271.434 130.628 271.858 130.892C272.282 131.148 272.614 131.524 272.854 132.02C273.094 132.516 273.214 133.12 273.214 133.832V134.132H268.582C268.622 134.812 268.802 135.324 269.122 135.668C269.45 136.012 269.89 136.184 270.442 136.184C270.858 136.184 271.198 136.088 271.462 135.896C271.734 135.696 271.922 135.436 272.026 135.116L273.106 135.2C272.938 135.768 272.618 136.236 272.146 136.604C271.682 136.964 271.114 137.144 270.442 137.144ZM268.582 133.244H272.11C272.062 132.628 271.882 132.176 271.57 131.888C271.258 131.6 270.866 131.456 270.394 131.456C269.906 131.456 269.502 131.608 269.182 131.912C268.87 132.208 268.67 132.652 268.582 133.244ZM277.206 137V130.184C277.206 129.928 277.134 129.728 276.99 129.584C276.846 129.44 276.646 129.368 276.39 129.368H274.89V128.48H276.438C277.022 128.48 277.462 128.632 277.758 128.936C278.062 129.232 278.214 129.672 278.214 130.256V137H277.206ZM274.65 137V136.112H280.41V137H274.65ZM284.401 137V130.184C284.401 129.928 284.329 129.728 284.185 129.584C284.041 129.44 283.841 129.368 283.585 129.368H282.085V128.48H283.633C284.217 128.48 284.657 128.632 284.953 128.936C285.257 129.232 285.409 129.672 285.409 130.256V137H284.401ZM281.845 137V136.112H287.605V137H281.845ZM291.92 137.144C291.336 137.144 290.824 137.008 290.384 136.736C289.952 136.464 289.616 136.08 289.376 135.584C289.136 135.08 289.016 134.492 289.016 133.82C289.016 133.14 289.136 132.552 289.376 132.056C289.616 131.56 289.952 131.176 290.384 130.904C290.824 130.632 291.336 130.496 291.92 130.496C292.504 130.496 293.012 130.632 293.444 130.904C293.884 131.176 294.224 131.56 294.464 132.056C294.704 132.552 294.824 133.14 294.824 133.82C294.824 134.492 294.704 135.08 294.464 135.584C294.224 136.08 293.884 136.464 293.444 136.736C293.012 137.008 292.504 137.144 291.92 137.144ZM291.92 136.184C292.504 136.184 292.956 135.976 293.276 135.56C293.604 135.136 293.768 134.556 293.768 133.82C293.768 133.084 293.604 132.508 293.276 132.092C292.956 131.668 292.504 131.456 291.92 131.456C291.336 131.456 290.88 131.668 290.552 132.092C290.232 132.508 290.072 133.084 290.072 133.82C290.072 134.556 290.232 135.136 290.552 135.56C290.88 135.976 291.336 136.184 291.92 136.184ZM298.792 134.492C298.768 134.212 298.74 133.88 298.708 133.496C298.676 133.112 298.648 132.72 298.624 132.32C298.608 131.92 298.6 131.56 298.6 131.24V128.48H299.632V131.24C299.632 131.56 299.62 131.92 299.596 132.32C299.58 132.72 299.556 133.112 299.524 133.496C299.5 133.88 299.476 134.212 299.452 134.492H298.792ZM298.372 137V135.536H299.86V137H298.372ZM304.475 131.816L305.039 129.944H304.391V128.48H305.831V129.776L305.075 131.816H304.475ZM306.875 131.816L307.439 129.944H306.791V128.48H308.231V129.776L307.475 131.816H306.875ZM313.122 138.32H312.222C312.726 137.456 313.106 136.596 313.362 135.74C313.618 134.876 313.746 134.016 313.746 133.16C313.746 131.448 313.238 129.728 312.222 128H313.122C314.234 129.664 314.79 131.384 314.79 133.16C314.79 134.032 314.65 134.904 314.37 135.776C314.09 136.64 313.674 137.488 313.122 138.32Z" fill="#C4C4C4" fill-opacity="0.78"/>
</g>
</g>
<rect x="0.5" y="0.5" width="328" height="166" rx="3.5" stroke="#262626"/>
<defs>
<filter id="filter0_dddd_59_202" x="58" y="33" width="371" height="439" filterUnits="userSpaceOnUse" color-interpolation-filters="sRGB">
<feFlood flood-opacity="0" result="BackgroundImageFix"/>
<feColorMatrix in="SourceAlpha" type="matrix" values="0 0 0 0 0 0 0 0 0 0 0 0 0 0 0 0 0 0 127 0" result="hardAlpha"/>
<feOffset dy="9"/>
<feGaussianBlur stdDeviation="10.5"/>
<feColorMatrix type="matrix" values="0 0 0 0 1 0 0 0 0 1 0 0 0 0 1 0 0 0 0.1 0"/>
<feBlend mode="normal" in2="BackgroundImageFix" result="effect1_dropShadow_59_202"/>
<feColorMatrix in="SourceAlpha" type="matrix" values="0 0 0 0 0 0 0 0 0 0 0 0 0 0 0 0 0 0 127 0" result="hardAlpha"/>
<feOffset dy="38"/>
<feGaussianBlur stdDeviation="19"/>
<feColorMatrix type="matrix" values="0 0 0 0 0 0 0 0 0 0 0 0 0 0 0 0 0 0 0.09 0"/>
<feBlend mode="normal" in2="effect1_dropShadow_59_202" result="effect2_dropShadow_59_202"/>
<feColorMatrix in="SourceAlpha" type="matrix" values="0 0 0 0 0 0 0 0 0 0 0 0 0 0 0 0 0 0 127 0" result="hardAlpha"/>
<feOffset dy="85"/>
<feGaussianBlur stdDeviation="25.5"/>
<feColorMatrix type="matrix" values="0 0 0 0 0 0 0 0 0 0 0 0 0 0 0 0 0 0 0.05 0"/>
<feBlend mode="normal" in2="effect2_dropShadow_59_202" result="effect3_dropShadow_59_202"/>
<feColorMatrix in="SourceAlpha" type="matrix" values="0 0 0 0 0 0 0 0 0 0 0 0 0 0 0 0 0 0 127 0" result="hardAlpha"/>
<feOffset dy="151"/>
<feGaussianBlur stdDeviation="30"/>
<feColorMatrix type="matrix" values="0 0 0 0 0 0 0 0 0 0 0 0 0 0 0 0 0 0 0.01 0"/>
<feBlend mode="normal" in2="effect3_dropShadow_59_202" result="effect4_dropShadow_59_202"/>
<feBlend mode="normal" in="SourceGraphic" in2="effect4_dropShadow_59_202" result="shape"/>
</filter>
<clipPath id="clip0_59_202">
<rect width="329" height="167" rx="4" fill="white"/>
</clipPath>
</defs>
</svg>
