<svg width="315" height="167" viewBox="0 0 315 167" fill="none" xmlns="http://www.w3.org/2000/svg">
<g clip-path="url(#clip0_59_3267)">
<path d="M311.796 25.7691H306.331V20.5702H305.472V25.7691H300.007V26.5118H305.472V31.7107H306.331V26.5118H311.796V25.7691Z" fill="#549A63" fill-opacity="0.15"/>
<path d="M311.796 62.9042H306.331V57.7053H305.472V62.9042H300.007V63.6469H305.472V68.8459H306.331V63.6469H311.796V62.9042Z" fill="#549A63" fill-opacity="0.15"/>
<path d="M311.796 100.039H306.331V94.8405H305.472V100.039H300.007V100.782H305.472V105.981H306.331V100.782H311.796V100.039Z" fill="#549A63" fill-opacity="0.15"/>
<path d="M311.796 137.175H306.331V131.976H305.472V137.175H300.007V137.917H305.472V143.116H306.331V137.917H311.796V137.175Z" fill="#549A63" fill-opacity="0.15"/>
<path d="M272.761 25.7691H267.297V20.5702H266.438V25.7691H260.973V26.5118H266.438V31.7107H267.297V26.5118H272.761V25.7691Z" fill="#549A63" fill-opacity="0.15"/>
<path d="M272.761 62.9042H267.297V57.7053H266.438V62.9042H260.973V63.6469H266.438V68.8459H267.297V63.6469H272.761V62.9042Z" fill="#549A63" fill-opacity="0.15"/>
<path d="M272.761 100.039H267.297V94.8405H266.438V100.039H260.973V100.782H266.438V105.981H267.297V100.782H272.761V100.039Z" fill="#549A63" fill-opacity="0.15"/>
<path d="M272.761 137.175H267.297V131.976H266.438V137.175H260.973V137.917H266.438V143.116H267.297V137.917H272.761V137.175Z" fill="#549A63" fill-opacity="0.15"/>
<path d="M233.728 25.7691H228.263V20.5702H227.405V25.7691H221.94V26.5118H227.405V31.7107H228.263V26.5118H233.728V25.7691Z" fill="#549A63" fill-opacity="0.15"/>
<path d="M233.728 62.9042H228.263V57.7053H227.405V62.9042H221.94V63.6469H227.405V68.8459H228.263V63.6469H233.728V62.9042Z" fill="#549A63" fill-opacity="0.15"/>
<path d="M233.728 100.039H228.263V94.8405H227.405V100.039H221.94V100.782H227.405V105.981H228.263V100.782H233.728V100.039Z" fill="#549A63" fill-opacity="0.15"/>
<path d="M233.728 137.175H228.263V131.976H227.405V137.175H221.94V137.917H227.405V143.116H228.263V137.917H233.728V137.175Z" fill="#549A63" fill-opacity="0.15"/>
<path d="M194.695 25.7691H189.23V20.5702H188.371V25.7691H182.907V26.5118H188.371V31.7107H189.23V26.5118H194.695V25.7691Z" fill="#549A63" fill-opacity="0.15"/>
<path d="M194.695 62.9042H189.23V57.7053H188.371V62.9042H182.907V63.6469H188.371V68.8459H189.23V63.6469H194.695V62.9042Z" fill="#549A63" fill-opacity="0.15"/>
<path d="M194.695 100.039H189.23V94.8405H188.371V100.039H182.907V100.782H188.371V105.981H189.23V100.782H194.695V100.039Z" fill="#549A63" fill-opacity="0.15"/>
<path d="M194.695 137.175H189.23V131.976H188.371V137.175H182.907V137.917H188.371V143.116H189.23V137.917H194.695V137.175Z" fill="#549A63" fill-opacity="0.15"/>
<path d="M155.661 25.7691H150.197V20.5702H149.338V25.7691H143.873V26.5118H149.338V31.7107H150.197V26.5118H155.661V25.7691Z" fill="#549A63" fill-opacity="0.15"/>
<path d="M155.661 62.9042H150.197V57.7053H149.338V62.9042H143.873V63.6469H149.338V68.8459H150.197V63.6469H155.661V62.9042Z" fill="#549A63" fill-opacity="0.15"/>
<path d="M155.661 100.039H150.197V94.8405H149.338V100.039H143.873V100.782H149.338V105.981H150.197V100.782H155.661V100.039Z" fill="#549A63" fill-opacity="0.15"/>
<path d="M155.661 137.175H150.197V131.976H149.338V137.175H143.873V137.917H149.338V143.116H150.197V137.917H155.661V137.175Z" fill="#549A63" fill-opacity="0.15"/>
<path d="M116.628 25.7691H111.163V20.5702H110.304V25.7691H104.839V26.5118H110.304V31.7107H111.163V26.5118H116.628V25.7691Z" fill="#549A63" fill-opacity="0.15"/>
<path d="M116.628 62.9042H111.163V57.7053H110.304V62.9042H104.839V63.6469H110.304V68.8459H111.163V63.6469H116.628V62.9042Z" fill="#549A63" fill-opacity="0.15"/>
<path d="M116.628 100.039H111.163V94.8405H110.304V100.039H104.839V100.782H110.304V105.981H111.163V100.782H116.628V100.039Z" fill="#549A63" fill-opacity="0.15"/>
<path d="M116.628 137.175H111.163V131.976H110.304V137.175H104.839V137.917H110.304V143.116H111.163V137.917H116.628V137.175Z" fill="#549A63" fill-opacity="0.15"/>
<path d="M77.5946 25.7691H72.1299V20.5702H71.2711V25.7691H65.8064V26.5118H71.2711V31.7107H72.1299V26.5118H77.5946V25.7691Z" fill="#549A63" fill-opacity="0.15"/>
<path d="M77.5946 62.9042H72.1299V57.7053H71.2711V62.9042H65.8064V63.6469H71.2711V68.8459H72.1299V63.6469H77.5946V62.9042Z" fill="#549A63" fill-opacity="0.15"/>
<path d="M77.5946 100.039H72.1299V94.8405H71.2711V100.039H65.8064V100.782H71.2711V105.981H72.1299V100.782H77.5946V100.039Z" fill="#549A63" fill-opacity="0.15"/>
<path d="M77.5946 137.175H72.1299V131.976H71.2711V137.175H65.8064V137.917H71.2711V143.116H72.1299V137.917H77.5946V137.175Z" fill="#549A63" fill-opacity="0.15"/>
<path d="M38.5606 25.7691H33.096V20.5702H32.2371V25.7691H26.7725V26.5118H32.2371V31.7107H33.096V26.5118H38.5606V25.7691Z" fill="#549A63" fill-opacity="0.15"/>
<path d="M38.5606 62.9042H33.096V57.7053H32.2371V62.9042H26.7725V63.6469H32.2371V68.8459H33.096V63.6469H38.5606V62.9042Z" fill="#549A63" fill-opacity="0.15"/>
<path d="M38.5606 100.039H33.096V94.8405H32.2371V100.039H26.7725V100.782H32.2371V105.981H33.096V100.782H38.5606V100.039Z" fill="#549A63" fill-opacity="0.15"/>
<path d="M38.5606 137.175H33.096V131.976H32.2371V137.175H26.7725V137.917H32.2371V143.116H33.096V137.917H38.5606V137.175Z" fill="#549A63" fill-opacity="0.15"/>
<path d="M15.942 27V17.424H17.382L17.544 19.872L17.382 19.854C17.502 19.026 17.76 18.414 18.156 18.018C18.552 17.622 19.098 17.424 19.794 17.424H21.828V19.008H19.866C19.41 19.008 19.026 19.098 18.714 19.278C18.402 19.446 18.162 19.704 17.994 20.052C17.838 20.388 17.76 20.808 17.76 21.312V27H15.942ZM13.512 27V25.47H20.748V27H13.512ZM13.512 18.954V17.424H16.968V18.954H13.512ZM28.193 27.216C27.305 27.216 26.525 27.012 25.853 26.604C25.193 26.196 24.677 25.614 24.305 24.858C23.945 24.102 23.765 23.22 23.765 22.212C23.765 21.192 23.945 20.31 24.305 19.566C24.677 18.81 25.193 18.228 25.853 17.82C26.525 17.412 27.305 17.208 28.193 17.208C29.081 17.208 29.855 17.412 30.515 17.82C31.187 18.228 31.703 18.81 32.063 19.566C32.435 20.31 32.621 21.192 32.621 22.212C32.621 23.22 32.435 24.102 32.063 24.858C31.703 25.614 31.187 26.196 30.515 26.604C29.855 27.012 29.081 27.216 28.193 27.216ZM28.193 25.542C28.997 25.542 29.615 25.248 30.047 24.66C30.491 24.072 30.713 23.256 30.713 22.212C30.713 21.168 30.491 20.352 30.047 19.764C29.615 19.176 28.997 18.882 28.193 18.882C27.389 18.882 26.765 19.176 26.321 19.764C25.889 20.352 25.673 21.168 25.673 22.212C25.673 23.256 25.889 24.072 26.321 24.66C26.765 25.248 27.389 25.542 28.193 25.542ZM38.1579 27.216C37.2339 27.216 36.4959 26.904 35.9439 26.28C35.3919 25.644 35.1159 24.756 35.1159 23.616V17.424H36.9339V23.148C36.9339 24.012 37.0839 24.642 37.3839 25.038C37.6839 25.434 38.1399 25.632 38.7519 25.632C39.4119 25.632 39.9399 25.41 40.3359 24.966C40.7439 24.522 40.9479 23.892 40.9479 23.076V17.424H42.7659V27H41.0559L41.0379 24.498L41.2899 24.606C41.1219 25.434 40.7679 26.076 40.2279 26.532C39.6879 26.988 38.9979 27.216 38.1579 27.216ZM51.1469 27C50.1749 27 49.4489 26.778 48.9689 26.334C48.5009 25.878 48.2669 25.182 48.2669 24.246V15.174H50.0849V24.156C50.0849 24.6 50.1869 24.93 50.3909 25.146C50.6069 25.362 50.9249 25.47 51.3449 25.47H53.8109V27H51.1469ZM45.2429 18.954V17.424H53.8109V18.954H45.2429ZM60.6979 27.216C59.7979 27.216 59.0119 27.012 58.3399 26.604C57.6799 26.196 57.1639 25.614 56.7919 24.858C56.4319 24.102 56.2519 23.22 56.2519 22.212C56.2519 21.204 56.4319 20.328 56.7919 19.584C57.1639 18.84 57.6739 18.258 58.3219 17.838C58.9819 17.418 59.7559 17.208 60.6439 17.208C61.4959 17.208 62.2459 17.412 62.8939 17.82C63.5419 18.216 64.0459 18.792 64.4059 19.548C64.7779 20.292 64.9639 21.192 64.9639 22.248V22.752H58.1599C58.2199 23.664 58.4719 24.36 58.9159 24.84C59.3719 25.308 59.9719 25.542 60.7159 25.542C61.2799 25.542 61.7479 25.41 62.1199 25.146C62.4919 24.87 62.7499 24.516 62.8939 24.084L64.8019 24.21C64.5259 25.122 64.0279 25.854 63.3079 26.406C62.5999 26.946 61.7299 27.216 60.6979 27.216ZM58.1599 21.294H63.0019C62.9299 20.478 62.6779 19.872 62.2459 19.476C61.8259 19.08 61.2919 18.882 60.6439 18.882C59.9719 18.882 59.4199 19.086 58.9879 19.494C58.5559 19.902 58.2799 20.502 58.1599 21.294ZM69.9068 27V17.424H71.3468L71.5088 19.872L71.3468 19.854C71.4668 19.026 71.7248 18.414 72.1208 18.018C72.5168 17.622 73.0628 17.424 73.7588 17.424H75.7928V19.008H73.8308C73.3748 19.008 72.9908 19.098 72.6788 19.278C72.3668 19.446 72.1268 19.704 71.9588 20.052C71.8028 20.388 71.7248 20.808 71.7248 21.312V27H69.9068ZM67.4768 27V25.47H74.7128V27H67.4768ZM67.4768 18.954V17.424H70.9328V18.954H67.4768ZM82.3018 27.216C81.4498 27.216 80.7178 27.072 80.1058 26.784C79.4938 26.496 79.0198 26.112 78.6838 25.632C78.3478 25.14 78.1558 24.594 78.1078 23.994L79.9618 23.886C80.0578 24.402 80.2978 24.816 80.6818 25.128C81.0658 25.428 81.6118 25.578 82.3198 25.578C82.9798 25.578 83.4838 25.488 83.8318 25.308C84.1798 25.128 84.3538 24.846 84.3538 24.462C84.3538 24.222 84.2938 24.024 84.1738 23.868C84.0538 23.7 83.8258 23.562 83.4898 23.454C83.1658 23.334 82.6858 23.214 82.0498 23.094C81.1018 22.914 80.3578 22.704 79.8178 22.464C79.2898 22.212 78.9118 21.9 78.6838 21.528C78.4558 21.144 78.3418 20.682 78.3418 20.142C78.3418 19.59 78.4798 19.092 78.7558 18.648C79.0438 18.204 79.4638 17.856 80.0158 17.604C80.5678 17.34 81.2518 17.208 82.0678 17.208C82.9198 17.208 83.6218 17.358 84.1738 17.658C84.7258 17.946 85.1578 18.324 85.4698 18.792C85.7818 19.26 85.9798 19.77 86.0638 20.322L84.2098 20.43C84.1378 20.118 84.0118 19.848 83.8318 19.62C83.6518 19.38 83.4118 19.194 83.1118 19.062C82.8118 18.918 82.4638 18.846 82.0678 18.846C81.4318 18.846 80.9638 18.972 80.6638 19.224C80.3638 19.476 80.2138 19.782 80.2138 20.142C80.2138 20.43 80.2858 20.664 80.4298 20.844C80.5738 21.012 80.8138 21.156 81.1498 21.276C81.4858 21.384 81.9418 21.492 82.5178 21.6C83.4898 21.756 84.2398 21.96 84.7678 22.212C85.2958 22.452 85.6678 22.752 85.8838 23.112C86.0998 23.472 86.2078 23.916 86.2078 24.444C86.2078 25.02 86.0398 25.518 85.7038 25.938C85.3798 26.346 84.9238 26.664 84.3358 26.892C83.7598 27.108 83.0818 27.216 82.3018 27.216Z" fill="#4C4C4C"/>
<g filter="url(#filter0_dddd_59_3267)">
<rect x="105" y="45" width="251" height="384" rx="20" fill="#111111"/>
<rect x="105.5" y="45.5" width="250" height="383" rx="19.5" stroke="#333333"/>
<rect x="121" y="61" width="28" height="28" rx="8" fill="#27C440"/>
<path d="M134.333 79.6667H138C138.619 79.6667 139.212 79.4208 139.65 78.9832C140.088 78.5457 140.333 77.9522 140.333 77.3333C140.333 76.7145 140.088 76.121 139.65 75.6834C139.212 75.2458 138.619 75 138 75H132.667C132.048 75 131.454 74.7542 131.017 74.3166C130.579 73.879 130.333 73.2855 130.333 72.6667C130.333 72.0478 130.579 71.4543 131.017 71.0168C131.454 70.5792 132.048 70.3333 132.667 70.3333H135.667M129 79.6667C129 80.0203 129.14 80.3594 129.391 80.6095C129.641 80.8595 129.98 81 130.333 81C130.687 81 131.026 80.8595 131.276 80.6095C131.526 80.3594 131.667 80.0203 131.667 79.6667C131.667 79.313 131.526 78.9739 131.276 78.7239C131.026 78.4738 130.687 78.3333 130.333 78.3333C129.98 78.3333 129.641 78.4738 129.391 78.7239C129.14 78.9739 129 79.313 129 79.6667ZM139.667 71.6667C140.02 71.6667 140.359 71.5262 140.609 71.2761C140.86 71.0261 141 70.687 141 70.3333C141 69.9797 140.86 69.6406 140.609 69.3905C140.359 69.1405 140.02 69 139.667 69C139.313 69 138.974 69.1405 138.724 69.3905C138.474 69.6406 138.333 69.9797 138.333 70.3333C138.333 70.687 138.474 71.0261 138.724 71.2761C138.974 71.5262 139.313 71.6667 139.667 71.6667Z" stroke="white" stroke-width="1.33333" stroke-linecap="round" stroke-linejoin="round"/>
<path d="M159.28 81V69.64H164.032C164.853 69.64 165.563 69.7787 166.16 70.056C166.757 70.3333 167.221 70.728 167.552 71.24C167.883 71.752 168.048 72.3547 168.048 73.048C168.048 73.5707 167.936 74.0347 167.712 74.44C167.488 74.8453 167.184 75.1707 166.8 75.416C166.427 75.6613 166.011 75.8107 165.552 75.864L165.472 75.704C166.208 75.704 166.773 75.8693 167.168 76.2C167.573 76.5307 167.803 77.0373 167.856 77.72L168.144 81H166.032L165.792 78.024C165.76 77.576 165.616 77.2453 165.36 77.032C165.104 76.8187 164.677 76.712 164.08 76.712H161.36V81H159.28ZM161.36 74.888H163.904C164.533 74.888 165.024 74.7387 165.376 74.44C165.728 74.1413 165.904 73.72 165.904 73.176C165.904 72.6213 165.723 72.1947 165.36 71.896C165.008 71.5973 164.491 71.448 163.808 71.448H161.36V74.888ZM173.613 81.192C172.771 81.192 172.029 81.0107 171.389 80.648C170.76 80.2747 170.269 79.752 169.917 79.08C169.576 78.408 169.405 77.624 169.405 76.728C169.405 75.8213 169.576 75.0373 169.917 74.376C170.269 73.704 170.76 73.1867 171.389 72.824C172.029 72.4507 172.771 72.264 173.613 72.264C174.456 72.264 175.192 72.4507 175.821 72.824C176.451 73.1867 176.936 73.704 177.277 74.376C177.629 75.0373 177.805 75.8213 177.805 76.728C177.805 77.624 177.629 78.408 177.277 79.08C176.936 79.752 176.451 80.2747 175.821 80.648C175.192 81.0107 174.456 81.192 173.613 81.192ZM173.613 79.528C174.275 79.528 174.781 79.2827 175.133 78.792C175.496 78.3013 175.677 77.6133 175.677 76.728C175.677 75.8533 175.496 75.1707 175.133 74.68C174.781 74.1787 174.275 73.928 173.613 73.928C172.952 73.928 172.44 74.1787 172.077 74.68C171.715 75.1707 171.533 75.8533 171.533 76.728C171.533 77.6133 171.715 78.3013 172.077 78.792C172.44 79.2827 172.952 79.528 173.613 79.528ZM182.202 81.192C181.338 81.192 180.65 80.9093 180.138 80.344C179.636 79.768 179.386 78.9733 179.386 77.96V72.456H181.434V77.448C181.434 78.1627 181.551 78.6907 181.786 79.032C182.031 79.3627 182.399 79.528 182.89 79.528C183.444 79.528 183.871 79.3467 184.17 78.984C184.479 78.6107 184.634 78.072 184.634 77.368V72.456H186.682V81H184.81L184.762 78.648L185.018 78.728C184.89 79.5387 184.586 80.152 184.106 80.568C183.626 80.984 182.991 81.192 182.202 81.192ZM191.982 81C191.128 81 190.499 80.8027 190.094 80.408C189.699 80.0133 189.502 79.3947 189.502 78.552V70.456H191.549V78.36C191.549 78.7547 191.635 79.032 191.806 79.192C191.976 79.3413 192.243 79.416 192.606 79.416H193.806V81H191.982ZM188.158 74.04V72.456H193.806V74.04H188.158ZM198.863 81.192C198.01 81.192 197.268 81.0107 196.639 80.648C196.01 80.2747 195.524 79.752 195.183 79.08C194.842 78.408 194.671 77.624 194.671 76.728C194.671 75.832 194.842 75.0533 195.183 74.392C195.524 73.72 196.004 73.1973 196.623 72.824C197.252 72.4507 197.983 72.264 198.815 72.264C199.626 72.264 200.335 72.4453 200.943 72.808C201.562 73.1707 202.036 73.6933 202.367 74.376C202.698 75.0587 202.863 75.88 202.863 76.84V77.304H196.799C196.842 78.0507 197.044 78.616 197.407 79C197.78 79.3733 198.271 79.56 198.879 79.56C199.338 79.56 199.716 79.4587 200.015 79.256C200.324 79.0427 200.538 78.7493 200.655 78.376L202.751 78.504C202.516 79.336 202.052 79.992 201.359 80.472C200.676 80.952 199.844 81.192 198.863 81.192ZM196.799 75.928H200.751C200.708 75.2347 200.511 74.7227 200.159 74.392C199.807 74.0507 199.359 73.88 198.815 73.88C198.271 73.88 197.818 74.056 197.455 74.408C197.103 74.76 196.884 75.2667 196.799 75.928ZM204.464 81V72.456H206.384L206.464 74.824L206.288 74.792C206.416 73.9707 206.656 73.3787 207.008 73.016C207.37 72.6427 207.861 72.456 208.48 72.456H209.264V74.216H208.464C208.026 74.216 207.664 74.28 207.376 74.408C207.088 74.536 206.869 74.7387 206.72 75.016C206.581 75.2827 206.512 75.6347 206.512 76.072V81H204.464ZM216.712 81V73.208H214.28V71.624H215.256C215.715 71.624 216.083 71.5653 216.36 71.448C216.637 71.3307 216.835 71.128 216.952 70.84C217.08 70.5413 217.144 70.1413 217.144 69.64H218.792V81H216.712Z" fill="white" fill-opacity="0.62"/>
<path d="M304 78.3333C304.189 78.3333 304.347 78.2693 304.475 78.1413C304.603 78.0133 304.667 77.8551 304.667 77.6667V75C304.667 74.8111 304.603 74.6529 304.475 74.5253C304.347 74.3978 304.189 74.3338 304 74.3333C303.812 74.3329 303.653 74.3969 303.525 74.5253C303.397 74.6538 303.333 74.812 303.333 75V77.6667C303.333 77.8556 303.397 78.014 303.525 78.142C303.653 78.27 303.812 78.3338 304 78.3333ZM304 73C304.189 73 304.347 72.936 304.475 72.808C304.603 72.68 304.667 72.5218 304.667 72.3333C304.666 72.1449 304.602 71.9867 304.475 71.8587C304.347 71.7307 304.189 71.6667 304 71.6667C303.811 71.6667 303.653 71.7307 303.525 71.8587C303.398 71.9867 303.334 72.1449 303.333 72.3333C303.333 72.5218 303.397 72.6802 303.525 72.8087C303.654 72.9371 303.812 73.0009 304 73ZM304 81.6667C303.078 81.6667 302.211 81.4916 301.4 81.1413C300.589 80.7911 299.883 80.3162 299.283 79.7167C298.683 79.1171 298.209 78.4116 297.859 77.6C297.509 76.7884 297.334 75.9218 297.333 75C297.333 74.0782 297.508 73.2116 297.859 72.4C298.209 71.5884 298.684 70.8829 299.283 70.2833C299.883 69.6838 300.588 69.2089 301.4 68.8587C302.212 68.5084 303.079 68.3333 304 68.3333C304.921 68.3333 305.788 68.5084 306.6 68.8587C307.412 69.2089 308.118 69.6838 308.717 70.2833C309.316 70.8829 309.791 71.5884 310.142 72.4C310.493 73.2116 310.668 74.0782 310.667 75C310.665 75.9218 310.49 76.7884 310.141 77.6C309.793 78.4116 309.318 79.1171 308.717 79.7167C308.116 80.3162 307.41 80.7913 306.6 81.142C305.79 81.4927 304.923 81.6676 304 81.6667ZM304 80.3333C305.489 80.3333 306.75 79.8167 307.783 78.7833C308.817 77.75 309.333 76.4889 309.333 75C309.333 73.5111 308.817 72.25 307.783 71.2167C306.75 70.1833 305.489 69.6667 304 69.6667C302.511 69.6667 301.25 70.1833 300.217 71.2167C299.183 72.25 298.667 73.5111 298.667 75C298.667 76.4889 299.183 77.75 300.217 78.7833C301.25 79.8167 302.511 80.3333 304 80.3333Z" fill="white" fill-opacity="0.26"/>
<rect x="105" y="101" width="251" height="2" fill="#262626"/>
<path d="M122.376 133V121.64H126.616C127.917 121.64 128.931 121.955 129.656 122.584C130.381 123.203 130.744 124.067 130.744 125.176C130.744 125.912 130.579 126.552 130.248 127.096C129.917 127.629 129.443 128.04 128.824 128.328C128.216 128.605 127.48 128.744 126.616 128.744H124.104V133H122.376ZM124.104 127.176H126.568C127.347 127.176 127.939 127.011 128.344 126.68C128.749 126.339 128.952 125.837 128.952 125.176C128.952 124.525 128.749 124.04 128.344 123.72C127.939 123.389 127.347 123.224 126.568 123.224H124.104V127.176ZM132.575 133V124.488H134.127L134.191 126.744L134.047 126.696C134.164 125.928 134.399 125.368 134.751 125.016C135.114 124.664 135.599 124.488 136.207 124.488H137.023V126.008H136.207C135.78 126.008 135.423 126.077 135.135 126.216C134.847 126.355 134.628 126.568 134.479 126.856C134.34 127.144 134.271 127.517 134.271 127.976V133H132.575ZM141.735 133.192C140.925 133.192 140.215 133.011 139.607 132.648C138.999 132.285 138.53 131.768 138.199 131.096C137.869 130.424 137.703 129.64 137.703 128.744C137.703 127.837 137.869 127.053 138.199 126.392C138.53 125.731 138.999 125.219 139.607 124.856C140.215 124.483 140.925 124.296 141.735 124.296C142.546 124.296 143.255 124.483 143.863 124.856C144.471 125.219 144.941 125.731 145.271 126.392C145.602 127.053 145.767 127.837 145.767 128.744C145.767 129.64 145.602 130.424 145.271 131.096C144.941 131.768 144.471 132.285 143.863 132.648C143.255 133.011 142.546 133.192 141.735 133.192ZM141.735 131.72C142.461 131.72 143.021 131.459 143.415 130.936C143.81 130.403 144.007 129.672 144.007 128.744C144.007 127.816 143.81 127.091 143.415 126.568C143.021 126.035 142.461 125.768 141.735 125.768C141.021 125.768 140.461 126.035 140.055 126.568C139.661 127.091 139.463 127.816 139.463 128.744C139.463 129.672 139.661 130.403 140.055 130.936C140.461 131.459 141.021 131.72 141.735 131.72ZM147.481 133V124.488H149.033L149.081 126.6L148.889 126.536C148.985 126.067 149.151 125.667 149.385 125.336C149.631 125.005 149.929 124.749 150.281 124.568C150.633 124.387 151.017 124.296 151.433 124.296C152.159 124.296 152.751 124.504 153.209 124.92C153.668 125.325 153.956 125.885 154.073 126.6H153.801C153.897 126.099 154.057 125.683 154.281 125.352C154.516 125.011 154.815 124.749 155.177 124.568C155.54 124.387 155.951 124.296 156.409 124.296C157.007 124.296 157.513 124.424 157.929 124.68C158.356 124.925 158.676 125.288 158.889 125.768C159.113 126.248 159.225 126.835 159.225 127.528V133H157.529V127.944C157.529 127.208 157.396 126.653 157.129 126.28C156.863 125.907 156.457 125.72 155.913 125.72C155.561 125.72 155.252 125.811 154.985 125.992C154.719 126.173 154.511 126.435 154.361 126.776C154.223 127.117 154.153 127.528 154.153 128.008V133H152.537V128.008C152.537 127.283 152.415 126.723 152.169 126.328C151.935 125.923 151.529 125.72 150.953 125.72C150.591 125.72 150.276 125.811 150.009 125.992C149.753 126.173 149.551 126.44 149.401 126.792C149.252 127.133 149.177 127.539 149.177 128.008V133H147.481ZM161.341 135.4V124.488H162.941L162.989 126.312L162.797 126.216C163.01 125.587 163.362 125.112 163.853 124.792C164.343 124.461 164.909 124.296 165.549 124.296C166.381 124.296 167.063 124.504 167.597 124.92C168.141 125.325 168.541 125.864 168.797 126.536C169.063 127.208 169.197 127.944 169.197 128.744C169.197 129.544 169.063 130.28 168.797 130.952C168.541 131.624 168.141 132.168 167.597 132.584C167.063 132.989 166.381 133.192 165.549 133.192C165.122 133.192 164.722 133.117 164.349 132.968C163.975 132.819 163.655 132.611 163.389 132.344C163.133 132.067 162.951 131.741 162.845 131.368L163.037 131.176V135.4H161.341ZM165.245 131.72C165.927 131.72 166.461 131.459 166.845 130.936C167.239 130.413 167.437 129.683 167.437 128.744C167.437 127.805 167.239 127.075 166.845 126.552C166.461 126.029 165.927 125.768 165.245 125.768C164.797 125.768 164.407 125.88 164.077 126.104C163.746 126.317 163.49 126.648 163.309 127.096C163.127 127.544 163.037 128.093 163.037 128.744C163.037 129.395 163.122 129.944 163.293 130.392C163.474 130.84 163.73 131.176 164.061 131.4C164.402 131.613 164.797 131.72 165.245 131.72ZM173.87 133C173.06 133 172.462 132.813 172.078 132.44C171.694 132.067 171.502 131.485 171.502 130.696V122.488H173.198V130.568C173.198 130.963 173.284 131.235 173.454 131.384C173.625 131.533 173.886 131.608 174.238 131.608H175.454V133H173.87ZM170.206 125.88V124.488H175.454V125.88H170.206Z" fill="#7D7D7D"/>
<path d="M178.417 126.984L177.441 126.392L178.465 124.84H176.641V123.624L178.465 123.64L177.441 122.088L178.417 121.48L179.393 123.112L180.385 121.48L181.345 122.088L180.321 123.64L182.145 123.624V124.84H180.321L181.345 126.392L180.385 126.984L179.393 125.368L178.417 126.984Z" fill="#C53232"/>
<rect x="121.5" y="147.5" width="245" height="93" rx="11.5" fill="#222222"/>
<rect x="121.5" y="147.5" width="245" height="93" rx="11.5" stroke="#282828"/>
<path d="M134.032 170V161.48H139.576V162.668H135.328V165.152H139.432V166.304H135.328V168.812H139.672V170H134.032ZM141.213 170V163.616H142.377L142.425 165.32L142.269 165.236C142.341 164.82 142.477 164.484 142.677 164.228C142.877 163.972 143.121 163.784 143.409 163.664C143.697 163.536 144.009 163.472 144.345 163.472C144.825 163.472 145.221 163.58 145.533 163.796C145.853 164.004 146.093 164.292 146.253 164.66C146.421 165.02 146.505 165.432 146.505 165.896V170H145.233V166.28C145.233 165.904 145.193 165.588 145.113 165.332C145.033 165.076 144.901 164.88 144.717 164.744C144.533 164.608 144.293 164.54 143.997 164.54C143.549 164.54 143.185 164.688 142.905 164.984C142.625 165.28 142.485 165.712 142.485 166.28V170H141.213ZM150.293 170C149.685 170 149.237 169.86 148.949 169.58C148.661 169.3 148.517 168.864 148.517 168.272V162.116H149.789V168.176C149.789 168.472 149.853 168.676 149.981 168.788C150.109 168.9 150.305 168.956 150.569 168.956H151.481V170H150.293ZM147.545 164.66V163.616H151.481V164.66H147.545ZM155.219 170.144C154.595 170.144 154.055 170.008 153.599 169.736C153.151 169.464 152.803 169.076 152.555 168.572C152.315 168.068 152.195 167.48 152.195 166.808C152.195 166.136 152.315 165.552 152.555 165.056C152.803 164.552 153.151 164.164 153.599 163.892C154.047 163.612 154.575 163.472 155.183 163.472C155.759 163.472 156.267 163.608 156.707 163.88C157.147 164.144 157.487 164.528 157.727 165.032C157.975 165.536 158.099 166.144 158.099 166.856V167.18H153.515C153.547 167.804 153.711 168.272 154.007 168.584C154.311 168.896 154.719 169.052 155.231 169.052C155.607 169.052 155.919 168.964 156.167 168.788C156.415 168.612 156.587 168.376 156.683 168.08L158.003 168.164C157.835 168.756 157.503 169.236 157.007 169.604C156.519 169.964 155.923 170.144 155.219 170.144ZM153.515 166.22H156.755C156.715 165.652 156.551 165.232 156.263 164.96C155.983 164.688 155.623 164.552 155.183 164.552C154.727 164.552 154.351 164.696 154.055 164.984C153.767 165.264 153.587 165.676 153.515 166.22ZM159.388 170V163.616H160.552L160.6 165.308L160.492 165.272C160.58 164.696 160.756 164.276 161.02 164.012C161.292 163.748 161.656 163.616 162.112 163.616H162.724V164.756H162.112C161.792 164.756 161.524 164.808 161.308 164.912C161.092 165.016 160.928 165.176 160.816 165.392C160.712 165.608 160.66 165.888 160.66 166.232V170H159.388ZM167.161 170V161.48H170.341C171.317 161.48 172.077 161.716 172.621 162.188C173.165 162.652 173.437 163.3 173.437 164.132C173.437 164.684 173.313 165.164 173.065 165.572C172.817 165.972 172.461 166.28 171.997 166.496C171.541 166.704 170.989 166.808 170.341 166.808H168.457V170H167.161ZM168.457 165.632H170.305C170.889 165.632 171.333 165.508 171.637 165.26C171.941 165.004 172.093 164.628 172.093 164.132C172.093 163.644 171.941 163.28 171.637 163.04C171.333 162.792 170.889 162.668 170.305 162.668H168.457V165.632ZM174.81 170V163.616H175.974L176.022 165.308L175.914 165.272C176.002 164.696 176.178 164.276 176.442 164.012C176.714 163.748 177.078 163.616 177.534 163.616H178.146V164.756H177.534C177.214 164.756 176.946 164.808 176.73 164.912C176.514 165.016 176.35 165.176 176.238 165.392C176.134 165.608 176.082 165.888 176.082 166.232V170H174.81ZM181.68 170.144C181.072 170.144 180.54 170.008 180.084 169.736C179.628 169.464 179.276 169.076 179.028 168.572C178.78 168.068 178.656 167.48 178.656 166.808C178.656 166.128 178.78 165.54 179.028 165.044C179.276 164.548 179.628 164.164 180.084 163.892C180.54 163.612 181.072 163.472 181.68 163.472C182.288 163.472 182.82 163.612 183.276 163.892C183.732 164.164 184.084 164.548 184.332 165.044C184.58 165.54 184.704 166.128 184.704 166.808C184.704 167.48 184.58 168.068 184.332 168.572C184.084 169.076 183.732 169.464 183.276 169.736C182.82 170.008 182.288 170.144 181.68 170.144ZM181.68 169.04C182.224 169.04 182.644 168.844 182.94 168.452C183.236 168.052 183.384 167.504 183.384 166.808C183.384 166.112 183.236 165.568 182.94 165.176C182.644 164.776 182.224 164.576 181.68 164.576C181.144 164.576 180.724 164.776 180.42 165.176C180.124 165.568 179.976 166.112 179.976 166.808C179.976 167.504 180.124 168.052 180.42 168.452C180.724 168.844 181.144 169.04 181.68 169.04ZM185.99 170V163.616H187.154L187.19 165.2L187.046 165.152C187.118 164.8 187.242 164.5 187.418 164.252C187.602 164.004 187.826 163.812 188.09 163.676C188.354 163.54 188.642 163.472 188.954 163.472C189.498 163.472 189.942 163.628 190.286 163.94C190.63 164.244 190.846 164.664 190.934 165.2H190.73C190.802 164.824 190.922 164.512 191.09 164.264C191.266 164.008 191.49 163.812 191.762 163.676C192.034 163.54 192.342 163.472 192.686 163.472C193.134 163.472 193.514 163.568 193.826 163.76C194.146 163.944 194.386 164.216 194.546 164.576C194.714 164.936 194.798 165.376 194.798 165.896V170H193.526V166.208C193.526 165.656 193.426 165.24 193.226 164.96C193.026 164.68 192.722 164.54 192.314 164.54C192.05 164.54 191.818 164.608 191.618 164.744C191.418 164.88 191.262 165.076 191.15 165.332C191.046 165.588 190.994 165.896 190.994 166.256V170H189.782V166.256C189.782 165.712 189.69 165.292 189.506 164.996C189.33 164.692 189.026 164.54 188.594 164.54C188.322 164.54 188.086 164.608 187.886 164.744C187.694 164.88 187.542 165.08 187.43 165.344C187.318 165.6 187.262 165.904 187.262 166.256V170H185.99ZM196.384 171.8V163.616H197.584L197.62 164.984L197.476 164.912C197.636 164.44 197.9 164.084 198.268 163.844C198.636 163.596 199.06 163.472 199.54 163.472C200.164 163.472 200.676 163.628 201.076 163.94C201.484 164.244 201.784 164.648 201.976 165.152C202.176 165.656 202.276 166.208 202.276 166.808C202.276 167.408 202.176 167.96 201.976 168.464C201.784 168.968 201.484 169.376 201.076 169.688C200.676 169.992 200.164 170.144 199.54 170.144C199.22 170.144 198.92 170.088 198.64 169.976C198.36 169.864 198.12 169.708 197.92 169.508C197.728 169.3 197.592 169.056 197.512 168.776L197.656 168.632V171.8H196.384ZM199.312 169.04C199.824 169.04 200.224 168.844 200.512 168.452C200.808 168.06 200.956 167.512 200.956 166.808C200.956 166.104 200.808 165.556 200.512 165.164C200.224 164.772 199.824 164.576 199.312 164.576C198.976 164.576 198.684 164.66 198.436 164.828C198.188 164.988 197.996 165.236 197.86 165.572C197.724 165.908 197.656 166.32 197.656 166.808C197.656 167.296 197.72 167.708 197.848 168.044C197.984 168.38 198.176 168.632 198.424 168.8C198.68 168.96 198.976 169.04 199.312 169.04ZM205.782 170C205.174 170 204.726 169.86 204.438 169.58C204.15 169.3 204.006 168.864 204.006 168.272V162.116H205.278V168.176C205.278 168.472 205.342 168.676 205.47 168.788C205.598 168.9 205.794 168.956 206.058 168.956H206.97V170H205.782ZM203.034 164.66V163.616H206.97V164.66H203.034Z" fill="#858585" fill-opacity="0.85"/>
</g>
</g>
<rect x="0.5" y="0.5" width="328" height="166" rx="3.5" stroke="#262626"/>
<defs>
<filter id="filter0_dddd_59_3267" x="-5" y="27" width="471" height="749" filterUnits="userSpaceOnUse" color-interpolation-filters="sRGB">
<feFlood flood-opacity="0" result="BackgroundImageFix"/>
<feColorMatrix in="SourceAlpha" type="matrix" values="0 0 0 0 0 0 0 0 0 0 0 0 0 0 0 0 0 0 127 0" result="hardAlpha"/>
<feOffset dy="16"/>
<feGaussianBlur stdDeviation="17"/>
<feColorMatrix type="matrix" values="0 0 0 0 1 0 0 0 0 1 0 0 0 0 1 0 0 0 0.1 0"/>
<feBlend mode="normal" in2="BackgroundImageFix" result="effect1_dropShadow_59_3267"/>
<feColorMatrix in="SourceAlpha" type="matrix" values="0 0 0 0 0 0 0 0 0 0 0 0 0 0 0 0 0 0 127 0" result="hardAlpha"/>
<feOffset dy="62"/>
<feGaussianBlur stdDeviation="31"/>
<feColorMatrix type="matrix" values="0 0 0 0 0 0 0 0 0 0 0 0 0 0 0 0 0 0 0.09 0"/>
<feBlend mode="normal" in2="effect1_dropShadow_59_3267" result="effect2_dropShadow_59_3267"/>
<feColorMatrix in="SourceAlpha" type="matrix" values="0 0 0 0 0 0 0 0 0 0 0 0 0 0 0 0 0 0 127 0" result="hardAlpha"/>
<feOffset dy="140"/>
<feGaussianBlur stdDeviation="42"/>
<feColorMatrix type="matrix" values="0 0 0 0 0 0 0 0 0 0 0 0 0 0 0 0 0 0 0.05 0"/>
<feBlend mode="normal" in2="effect2_dropShadow_59_3267" result="effect3_dropShadow_59_3267"/>
<feColorMatrix in="SourceAlpha" type="matrix" values="0 0 0 0 0 0 0 0 0 0 0 0 0 0 0 0 0 0 127 0" result="hardAlpha"/>
<feOffset dy="248"/>
<feGaussianBlur stdDeviation="49.5"/>
<feColorMatrix type="matrix" values="0 0 0 0 0 0 0 0 0 0 0 0 0 0 0 0 0 0 0.01 0"/>
<feBlend mode="normal" in2="effect3_dropShadow_59_3267" result="effect4_dropShadow_59_3267"/>
<feBlend mode="normal" in="SourceGraphic" in2="effect4_dropShadow_59_3267" result="shape"/>
</filter>
<clipPath id="clip0_59_3267">
<rect width="329" height="167" rx="4" fill="white"/>
</clipPath>
</defs>
</svg>
